<svg width="1440" height="1011" viewBox="0 0 1440 1011" fill="none" xmlns="http://www.w3.org/2000/svg">
<rect width="1440" height="1011" fill="white"/>
<rect x="83.5" y="53.5" width="1273" height="713" stroke="black" stroke-width="7"/>
<path d="M709.398 85.8125V87H701.953V85.9609L705.68 81.8125C706.138 81.3021 706.492 80.8698 706.742 80.5156C706.997 80.1562 707.174 79.8359 707.273 79.5547C707.378 79.2682 707.43 78.9766 707.43 78.6797C707.43 78.3047 707.352 77.9661 707.195 77.6641C707.044 77.3568 706.82 77.112 706.523 76.9297C706.227 76.7474 705.867 76.6562 705.445 76.6562C704.94 76.6562 704.518 76.7552 704.18 76.9531C703.846 77.1458 703.596 77.4167 703.43 77.7656C703.263 78.1146 703.18 78.5156 703.18 78.9688H701.734C701.734 78.3281 701.875 77.7422 702.156 77.2109C702.438 76.6797 702.854 76.2578 703.406 75.9453C703.958 75.6276 704.638 75.4688 705.445 75.4688C706.164 75.4688 706.779 75.5964 707.289 75.8516C707.799 76.1016 708.19 76.4557 708.461 76.9141C708.737 77.3672 708.875 77.8984 708.875 78.5078C708.875 78.8411 708.818 79.1797 708.703 79.5234C708.594 79.862 708.44 80.2005 708.242 80.5391C708.049 80.8776 707.823 81.2109 707.562 81.5391C707.307 81.8672 707.034 82.1901 706.742 82.5078L703.695 85.8125H709.398ZM712.933 81.5859L711.777 81.2891L712.347 75.625H718.183V76.9609H713.574L713.23 80.0547C713.439 79.9349 713.702 79.8229 714.019 79.7188C714.342 79.6146 714.712 79.5625 715.129 79.5625C715.655 79.5625 716.126 79.6536 716.543 79.8359C716.959 80.013 717.314 80.2682 717.605 80.6016C717.902 80.9349 718.129 81.3359 718.285 81.8047C718.441 82.2734 718.519 82.7969 718.519 83.375C718.519 83.9219 718.444 84.4245 718.293 84.8828C718.147 85.3411 717.926 85.7422 717.629 86.0859C717.332 86.4245 716.957 86.6875 716.504 86.875C716.056 87.0625 715.527 87.1562 714.918 87.1562C714.459 87.1562 714.025 87.0938 713.613 86.9688C713.207 86.8385 712.842 86.6432 712.519 86.3828C712.202 86.1172 711.941 85.7891 711.738 85.3984C711.54 85.0026 711.415 84.5391 711.363 84.0078H712.738C712.801 84.4349 712.926 84.7943 713.113 85.0859C713.301 85.3776 713.545 85.599 713.847 85.75C714.155 85.8958 714.512 85.9688 714.918 85.9688C715.262 85.9688 715.566 85.9089 715.832 85.7891C716.097 85.6693 716.321 85.4974 716.504 85.2734C716.686 85.0495 716.824 84.7786 716.918 84.4609C717.017 84.1432 717.066 83.7865 717.066 83.3906C717.066 83.0312 717.017 82.6979 716.918 82.3906C716.819 82.0833 716.67 81.8151 716.472 81.5859C716.28 81.3568 716.043 81.1797 715.762 81.0547C715.48 80.9245 715.157 80.8594 714.793 80.8594C714.308 80.8594 713.941 80.9245 713.691 81.0547C713.446 81.1849 713.194 81.362 712.933 81.5859ZM725.812 75.6094H725.937V76.8359H725.812C725.047 76.8359 724.406 76.9609 723.89 77.2109C723.375 77.4557 722.966 77.7865 722.664 78.2031C722.362 78.6146 722.143 79.0781 722.007 79.5938C721.877 80.1094 721.812 80.6328 721.812 81.1641V82.8359C721.812 83.3411 721.872 83.7891 721.992 84.1797C722.112 84.5651 722.276 84.8906 722.484 85.1562C722.692 85.4219 722.927 85.6224 723.187 85.7578C723.453 85.8932 723.729 85.9609 724.015 85.9609C724.349 85.9609 724.646 85.8984 724.906 85.7734C725.166 85.6432 725.385 85.4635 725.562 85.2344C725.744 85 725.882 84.724 725.976 84.4062C726.07 84.0885 726.117 83.7396 726.117 83.3594C726.117 83.0208 726.075 82.6953 725.992 82.3828C725.909 82.0651 725.781 81.7839 725.609 81.5391C725.437 81.2891 725.221 81.0938 724.961 80.9531C724.705 80.8073 724.401 80.7344 724.047 80.7344C723.646 80.7344 723.271 80.8333 722.922 81.0312C722.578 81.224 722.294 81.4792 722.07 81.7969C721.851 82.1094 721.726 82.4505 721.695 82.8203L720.929 82.8125C721.002 82.2292 721.138 81.7318 721.336 81.3203C721.539 80.9036 721.789 80.5651 722.086 80.3047C722.388 80.0391 722.724 79.8464 723.093 79.7266C723.468 79.6016 723.864 79.5391 724.281 79.5391C724.849 79.5391 725.338 79.6458 725.75 79.8594C726.161 80.0729 726.5 80.3594 726.765 80.7188C727.031 81.0729 727.226 81.474 727.351 81.9219C727.481 82.3646 727.547 82.8203 727.547 83.2891C727.547 83.8255 727.471 84.3281 727.32 84.7969C727.169 85.2656 726.942 85.6771 726.64 86.0312C726.343 86.3854 725.976 86.6615 725.539 86.8594C725.101 87.0573 724.593 87.1562 724.015 87.1562C723.401 87.1562 722.864 87.0312 722.406 86.7812C721.948 86.526 721.567 86.1875 721.265 85.7656C720.963 85.3438 720.737 84.875 720.586 84.3594C720.435 83.8438 720.359 83.3203 720.359 82.7891V82.1094C720.359 81.3073 720.44 80.5208 720.601 79.75C720.763 78.9792 721.041 78.2812 721.437 77.6562C721.838 77.0312 722.393 76.5339 723.101 76.1641C723.81 75.7943 724.713 75.6094 725.812 75.6094ZM736.566 80.4062V82.1406C736.566 83.0729 736.483 83.8594 736.316 84.5C736.149 85.1406 735.91 85.6562 735.597 86.0469C735.285 86.4375 734.907 86.7214 734.464 86.8984C734.027 87.0703 733.532 87.1562 732.98 87.1562C732.542 87.1562 732.139 87.1016 731.769 86.9922C731.399 86.8828 731.066 86.7083 730.769 86.4688C730.477 86.224 730.227 85.9062 730.019 85.5156C729.811 85.125 729.652 84.651 729.542 84.0938C729.433 83.5365 729.378 82.8854 729.378 82.1406V80.4062C729.378 79.474 729.462 78.6927 729.628 78.0625C729.8 77.4323 730.042 76.9271 730.355 76.5469C730.667 76.1615 731.042 75.8854 731.48 75.7188C731.923 75.5521 732.417 75.4688 732.964 75.4688C733.407 75.4688 733.813 75.5234 734.183 75.6328C734.558 75.737 734.891 75.9062 735.183 76.1406C735.475 76.3698 735.722 76.6771 735.925 77.0625C736.134 77.4427 736.292 77.9089 736.402 78.4609C736.511 79.013 736.566 79.6615 736.566 80.4062ZM735.113 82.375V80.1641C735.113 79.6536 735.082 79.2057 735.019 78.8203C734.962 78.4297 734.876 78.0964 734.761 77.8203C734.647 77.5443 734.501 77.3203 734.324 77.1484C734.152 76.9766 733.951 76.8516 733.722 76.7734C733.498 76.6901 733.246 76.6484 732.964 76.6484C732.621 76.6484 732.316 76.7135 732.05 76.8438C731.785 76.9688 731.561 77.1693 731.378 77.4453C731.201 77.7214 731.066 78.0833 730.972 78.5312C730.878 78.9792 730.832 79.5234 730.832 80.1641V82.375C730.832 82.8854 730.86 83.3359 730.917 83.7266C730.98 84.1172 731.071 84.4557 731.191 84.7422C731.311 85.0234 731.457 85.2552 731.628 85.4375C731.8 85.6198 731.998 85.7552 732.222 85.8438C732.451 85.9271 732.704 85.9688 732.98 85.9688C733.334 85.9688 733.644 85.901 733.91 85.7656C734.175 85.6302 734.397 85.4193 734.574 85.1328C734.756 84.8411 734.891 84.4688 734.98 84.0156C735.069 83.5573 735.113 83.0104 735.113 82.375Z" fill="black"/>
<path d="M107.695 398.562V410H106.25V400.367L103.336 401.43V400.125L107.469 398.562H107.695ZM119.793 406.172V407.359H111.574V406.508L116.668 398.625H117.847L116.582 400.906L113.215 406.172H119.793ZM118.207 398.625V410H116.762V398.625H118.207ZM128.953 406.172V407.359H120.734V406.508L125.828 398.625H127.007L125.742 400.906L122.375 406.172H128.953ZM127.367 398.625V410H125.922V398.625H127.367ZM137.566 403.406V405.141C137.566 406.073 137.483 406.859 137.316 407.5C137.149 408.141 136.91 408.656 136.597 409.047C136.285 409.438 135.907 409.721 135.464 409.898C135.027 410.07 134.532 410.156 133.98 410.156C133.542 410.156 133.139 410.102 132.769 409.992C132.399 409.883 132.066 409.708 131.769 409.469C131.477 409.224 131.227 408.906 131.019 408.516C130.811 408.125 130.652 407.651 130.542 407.094C130.433 406.536 130.378 405.885 130.378 405.141V403.406C130.378 402.474 130.462 401.693 130.628 401.062C130.8 400.432 131.042 399.927 131.355 399.547C131.667 399.161 132.042 398.885 132.48 398.719C132.923 398.552 133.417 398.469 133.964 398.469C134.407 398.469 134.813 398.523 135.183 398.633C135.558 398.737 135.891 398.906 136.183 399.141C136.475 399.37 136.722 399.677 136.925 400.062C137.134 400.443 137.292 400.909 137.402 401.461C137.511 402.013 137.566 402.661 137.566 403.406ZM136.113 405.375V403.164C136.113 402.654 136.082 402.206 136.019 401.82C135.962 401.43 135.876 401.096 135.761 400.82C135.647 400.544 135.501 400.32 135.324 400.148C135.152 399.977 134.951 399.852 134.722 399.773C134.498 399.69 134.246 399.648 133.964 399.648C133.621 399.648 133.316 399.714 133.05 399.844C132.785 399.969 132.561 400.169 132.378 400.445C132.201 400.721 132.066 401.083 131.972 401.531C131.878 401.979 131.832 402.523 131.832 403.164V405.375C131.832 405.885 131.86 406.336 131.917 406.727C131.98 407.117 132.071 407.456 132.191 407.742C132.311 408.023 132.457 408.255 132.628 408.438C132.8 408.62 132.998 408.755 133.222 408.844C133.451 408.927 133.704 408.969 133.98 408.969C134.334 408.969 134.644 408.901 134.91 408.766C135.175 408.63 135.397 408.419 135.574 408.133C135.756 407.841 135.891 407.469 135.98 407.016C136.069 406.557 136.113 406.01 136.113 405.375Z" fill="black"/>
<path d="M560.633 520.172V521.359H552.414V520.508L557.508 512.625H558.688L557.422 514.906L554.055 520.172H560.633ZM559.047 512.625V524H557.602V512.625H559.047ZM569.558 522.812V524H562.113V522.961L565.84 518.812C566.298 518.302 566.652 517.87 566.902 517.516C567.157 517.156 567.334 516.836 567.433 516.555C567.538 516.268 567.59 515.977 567.59 515.68C567.59 515.305 567.512 514.966 567.355 514.664C567.204 514.357 566.98 514.112 566.683 513.93C566.387 513.747 566.027 513.656 565.605 513.656C565.1 513.656 564.678 513.755 564.34 513.953C564.006 514.146 563.756 514.417 563.59 514.766C563.423 515.115 563.34 515.516 563.34 515.969H561.894C561.894 515.328 562.035 514.742 562.316 514.211C562.597 513.68 563.014 513.258 563.566 512.945C564.118 512.628 564.798 512.469 565.605 512.469C566.324 512.469 566.939 512.596 567.449 512.852C567.959 513.102 568.35 513.456 568.621 513.914C568.897 514.367 569.035 514.898 569.035 515.508C569.035 515.841 568.978 516.18 568.863 516.523C568.754 516.862 568.6 517.201 568.402 517.539C568.209 517.878 567.983 518.211 567.722 518.539C567.467 518.867 567.194 519.19 566.902 519.508L563.855 522.812H569.558ZM578.437 520.922C578.437 521.615 578.276 522.203 577.953 522.688C577.635 523.167 577.203 523.531 576.656 523.781C576.114 524.031 575.502 524.156 574.82 524.156C574.138 524.156 573.523 524.031 572.976 523.781C572.429 523.531 571.997 523.167 571.679 522.688C571.362 522.203 571.203 521.615 571.203 520.922C571.203 520.469 571.289 520.055 571.461 519.68C571.638 519.299 571.885 518.969 572.203 518.688C572.526 518.406 572.906 518.19 573.343 518.039C573.786 517.883 574.273 517.805 574.804 517.805C575.502 517.805 576.125 517.94 576.672 518.211C577.218 518.477 577.648 518.844 577.961 519.312C578.278 519.781 578.437 520.318 578.437 520.922ZM576.984 520.891C576.984 520.469 576.893 520.096 576.711 519.773C576.528 519.445 576.273 519.19 575.945 519.008C575.617 518.826 575.237 518.734 574.804 518.734C574.362 518.734 573.979 518.826 573.656 519.008C573.338 519.19 573.091 519.445 572.914 519.773C572.737 520.096 572.648 520.469 572.648 520.891C572.648 521.328 572.734 521.703 572.906 522.016C573.083 522.323 573.333 522.56 573.656 522.727C573.984 522.888 574.372 522.969 574.82 522.969C575.268 522.969 575.653 522.888 575.976 522.727C576.299 522.56 576.547 522.323 576.718 522.016C576.896 521.703 576.984 521.328 576.984 520.891ZM578.172 515.586C578.172 516.138 578.026 516.635 577.734 517.078C577.442 517.521 577.044 517.87 576.539 518.125C576.034 518.38 575.461 518.508 574.82 518.508C574.169 518.508 573.588 518.38 573.078 518.125C572.573 517.87 572.177 517.521 571.89 517.078C571.604 516.635 571.461 516.138 571.461 515.586C571.461 514.924 571.604 514.362 571.89 513.898C572.182 513.435 572.58 513.081 573.086 512.836C573.591 512.591 574.166 512.469 574.812 512.469C575.463 512.469 576.041 512.591 576.547 512.836C577.052 513.081 577.448 513.435 577.734 513.898C578.026 514.362 578.172 514.924 578.172 515.586ZM576.726 515.609C576.726 515.229 576.646 514.893 576.484 514.602C576.323 514.31 576.099 514.081 575.812 513.914C575.526 513.742 575.192 513.656 574.812 513.656C574.432 513.656 574.099 513.737 573.812 513.898C573.531 514.055 573.31 514.279 573.148 514.57C572.992 514.862 572.914 515.208 572.914 515.609C572.914 516 572.992 516.341 573.148 516.633C573.31 516.924 573.534 517.151 573.82 517.312C574.106 517.474 574.44 517.555 574.82 517.555C575.2 517.555 575.531 517.474 575.812 517.312C576.099 517.151 576.323 516.924 576.484 516.633C576.646 516.341 576.726 516 576.726 515.609Z" fill="black"/>
<path d="M634.383 319.789H634.531C635.365 319.789 636.042 319.672 636.562 319.438C637.083 319.203 637.484 318.888 637.766 318.492C638.047 318.096 638.24 317.651 638.344 317.156C638.448 316.656 638.5 316.143 638.5 315.617V313.875C638.5 313.359 638.44 312.901 638.32 312.5C638.206 312.099 638.044 311.763 637.836 311.492C637.633 311.221 637.401 311.016 637.141 310.875C636.88 310.734 636.604 310.664 636.312 310.664C635.979 310.664 635.68 310.732 635.414 310.867C635.154 310.997 634.932 311.182 634.75 311.422C634.573 311.661 634.438 311.943 634.344 312.266C634.25 312.589 634.203 312.94 634.203 313.32C634.203 313.659 634.245 313.987 634.328 314.305C634.411 314.622 634.539 314.909 634.711 315.164C634.883 315.419 635.096 315.622 635.352 315.773C635.612 315.919 635.917 315.992 636.266 315.992C636.589 315.992 636.891 315.93 637.172 315.805C637.458 315.674 637.711 315.5 637.93 315.281C638.154 315.057 638.331 314.805 638.461 314.523C638.596 314.242 638.674 313.948 638.695 313.641H639.383C639.383 314.073 639.297 314.5 639.125 314.922C638.958 315.339 638.724 315.719 638.422 316.062C638.12 316.406 637.766 316.682 637.359 316.891C636.953 317.094 636.51 317.195 636.031 317.195C635.469 317.195 634.982 317.086 634.57 316.867C634.159 316.648 633.82 316.357 633.555 315.992C633.294 315.628 633.099 315.221 632.969 314.773C632.844 314.32 632.781 313.862 632.781 313.398C632.781 312.857 632.857 312.349 633.008 311.875C633.159 311.401 633.383 310.984 633.68 310.625C633.977 310.26 634.344 309.977 634.781 309.773C635.224 309.57 635.734 309.469 636.312 309.469C636.964 309.469 637.518 309.599 637.977 309.859C638.435 310.12 638.807 310.469 639.094 310.906C639.385 311.344 639.599 311.836 639.734 312.383C639.87 312.93 639.938 313.492 639.938 314.07V314.594C639.938 315.182 639.898 315.781 639.82 316.391C639.747 316.995 639.604 317.573 639.391 318.125C639.182 318.677 638.878 319.172 638.477 319.609C638.076 320.042 637.552 320.385 636.906 320.641C636.266 320.891 635.474 321.016 634.531 321.016H634.383V319.789ZM649.558 319.812V321H642.113V319.961L645.84 315.812C646.298 315.302 646.652 314.87 646.902 314.516C647.157 314.156 647.334 313.836 647.433 313.555C647.538 313.268 647.59 312.977 647.59 312.68C647.59 312.305 647.512 311.966 647.355 311.664C647.204 311.357 646.98 311.112 646.683 310.93C646.387 310.747 646.027 310.656 645.605 310.656C645.1 310.656 644.678 310.755 644.34 310.953C644.006 311.146 643.756 311.417 643.59 311.766C643.423 312.115 643.34 312.516 643.34 312.969H641.894C641.894 312.328 642.035 311.742 642.316 311.211C642.597 310.68 643.014 310.258 643.566 309.945C644.118 309.628 644.798 309.469 645.605 309.469C646.324 309.469 646.939 309.596 647.449 309.852C647.959 310.102 648.35 310.456 648.621 310.914C648.897 311.367 649.035 311.898 649.035 312.508C649.035 312.841 648.978 313.18 648.863 313.523C648.754 313.862 648.6 314.201 648.402 314.539C648.209 314.878 647.983 315.211 647.722 315.539C647.467 315.867 647.194 316.19 646.902 316.508L643.855 319.812H649.558ZM656.812 309.609H656.937V310.836H656.812C656.047 310.836 655.406 310.961 654.89 311.211C654.375 311.456 653.966 311.786 653.664 312.203C653.362 312.615 653.143 313.078 653.007 313.594C652.877 314.109 652.812 314.633 652.812 315.164V316.836C652.812 317.341 652.872 317.789 652.992 318.18C653.112 318.565 653.276 318.891 653.484 319.156C653.692 319.422 653.927 319.622 654.187 319.758C654.453 319.893 654.729 319.961 655.015 319.961C655.349 319.961 655.646 319.898 655.906 319.773C656.166 319.643 656.385 319.464 656.562 319.234C656.744 319 656.882 318.724 656.976 318.406C657.07 318.089 657.117 317.74 657.117 317.359C657.117 317.021 657.075 316.695 656.992 316.383C656.909 316.065 656.781 315.784 656.609 315.539C656.437 315.289 656.221 315.094 655.961 314.953C655.705 314.807 655.401 314.734 655.047 314.734C654.646 314.734 654.271 314.833 653.922 315.031C653.578 315.224 653.294 315.479 653.07 315.797C652.851 316.109 652.726 316.451 652.695 316.82L651.929 316.812C652.002 316.229 652.138 315.732 652.336 315.32C652.539 314.904 652.789 314.565 653.086 314.305C653.388 314.039 653.724 313.846 654.093 313.727C654.468 313.602 654.864 313.539 655.281 313.539C655.849 313.539 656.338 313.646 656.75 313.859C657.161 314.073 657.5 314.359 657.765 314.719C658.031 315.073 658.226 315.474 658.351 315.922C658.481 316.365 658.547 316.82 658.547 317.289C658.547 317.826 658.471 318.328 658.32 318.797C658.169 319.266 657.942 319.677 657.64 320.031C657.343 320.385 656.976 320.661 656.539 320.859C656.101 321.057 655.593 321.156 655.015 321.156C654.401 321.156 653.864 321.031 653.406 320.781C652.948 320.526 652.567 320.188 652.265 319.766C651.963 319.344 651.737 318.875 651.586 318.359C651.435 317.844 651.359 317.32 651.359 316.789V316.109C651.359 315.307 651.44 314.521 651.601 313.75C651.763 312.979 652.041 312.281 652.437 311.656C652.838 311.031 653.393 310.534 654.101 310.164C654.81 309.794 655.713 309.609 656.812 309.609Z" fill="black"/>
<rect x="542" y="290" width="208" height="458" stroke="black" stroke-width="6"/>
<rect x="806.5" y="71.5" width="505" height="676" stroke="black" stroke-width="7"/>
<path d="M1045.7 92.5625V104H1044.25V94.3672L1041.34 95.4297V94.125L1045.47 92.5625H1045.7ZM1052.21 97.6016H1053.25C1053.75 97.6016 1054.17 97.5182 1054.5 97.3516C1054.83 97.1797 1055.08 96.9479 1055.24 96.6562C1055.4 96.3594 1055.49 96.026 1055.49 95.6562C1055.49 95.2188 1055.42 94.8516 1055.27 94.5547C1055.12 94.2578 1054.9 94.0339 1054.61 93.8828C1054.32 93.7318 1053.95 93.6562 1053.5 93.6562C1053.1 93.6562 1052.74 93.737 1052.43 93.8984C1052.12 94.0547 1051.88 94.2786 1051.7 94.5703C1051.53 94.862 1051.44 95.2057 1051.44 95.6016H1050C1050 95.0234 1050.14 94.4974 1050.43 94.0234C1050.73 93.5495 1051.13 93.1719 1051.66 92.8906C1052.19 92.6094 1052.81 92.4688 1053.5 92.4688C1054.19 92.4688 1054.79 92.5911 1055.31 92.8359C1055.82 93.0755 1056.23 93.4349 1056.51 93.9141C1056.8 94.388 1056.94 94.9792 1056.94 95.6875C1056.94 95.974 1056.87 96.2812 1056.74 96.6094C1056.61 96.9323 1056.4 97.2344 1056.12 97.5156C1055.84 97.7969 1055.49 98.0286 1055.04 98.2109C1054.6 98.388 1054.07 98.4766 1053.45 98.4766H1052.21V97.6016ZM1052.21 98.7891V97.9219H1053.45C1054.17 97.9219 1054.77 98.0078 1055.25 98.1797C1055.72 98.3516 1056.09 98.5807 1056.36 98.8672C1056.64 99.1536 1056.83 99.4688 1056.94 99.8125C1057.06 100.151 1057.11 100.49 1057.11 100.828C1057.11 101.359 1057.02 101.831 1056.84 102.242C1056.66 102.654 1056.41 103.003 1056.08 103.289C1055.76 103.576 1055.38 103.792 1054.94 103.938C1054.5 104.083 1054.03 104.156 1053.51 104.156C1053.02 104.156 1052.55 104.086 1052.11 103.945C1051.68 103.805 1051.3 103.602 1050.96 103.336C1050.63 103.065 1050.37 102.734 1050.18 102.344C1050 101.948 1049.9 101.497 1049.9 100.992H1051.35C1051.35 101.388 1051.43 101.734 1051.61 102.031C1051.78 102.328 1052.03 102.56 1052.36 102.727C1052.68 102.888 1053.07 102.969 1053.51 102.969C1053.95 102.969 1054.33 102.893 1054.65 102.742C1054.98 102.586 1055.22 102.352 1055.39 102.039C1055.57 101.727 1055.66 101.333 1055.66 100.859C1055.66 100.385 1055.56 99.9974 1055.36 99.6953C1055.17 99.388 1054.88 99.1615 1054.52 99.0156C1054.16 98.8646 1053.74 98.7891 1053.25 98.7891H1052.21ZM1064.81 92.6094H1064.94V93.8359H1064.81C1064.05 93.8359 1063.41 93.9609 1062.89 94.2109C1062.37 94.4557 1061.97 94.7865 1061.66 95.2031C1061.36 95.6146 1061.14 96.0781 1061.01 96.5938C1060.88 97.1094 1060.81 97.6328 1060.81 98.1641V99.8359C1060.81 100.341 1060.87 100.789 1060.99 101.18C1061.11 101.565 1061.28 101.891 1061.48 102.156C1061.69 102.422 1061.93 102.622 1062.19 102.758C1062.45 102.893 1062.73 102.961 1063.02 102.961C1063.35 102.961 1063.65 102.898 1063.91 102.773C1064.17 102.643 1064.39 102.464 1064.56 102.234C1064.74 102 1064.88 101.724 1064.98 101.406C1065.07 101.089 1065.12 100.74 1065.12 100.359C1065.12 100.021 1065.08 99.6953 1064.99 99.3828C1064.91 99.0651 1064.78 98.7839 1064.61 98.5391C1064.44 98.2891 1064.22 98.0938 1063.96 97.9531C1063.71 97.8073 1063.4 97.7344 1063.05 97.7344C1062.65 97.7344 1062.27 97.8333 1061.92 98.0312C1061.58 98.224 1061.29 98.4792 1061.07 98.7969C1060.85 99.1094 1060.73 99.4505 1060.69 99.8203L1059.93 99.8125C1060 99.2292 1060.14 98.7318 1060.34 98.3203C1060.54 97.9036 1060.79 97.5651 1061.09 97.3047C1061.39 97.0391 1061.72 96.8464 1062.09 96.7266C1062.47 96.6016 1062.86 96.5391 1063.28 96.5391C1063.85 96.5391 1064.34 96.6458 1064.75 96.8594C1065.16 97.0729 1065.5 97.3594 1065.77 97.7188C1066.03 98.0729 1066.23 98.474 1066.35 98.9219C1066.48 99.3646 1066.55 99.8203 1066.55 100.289C1066.55 100.826 1066.47 101.328 1066.32 101.797C1066.17 102.266 1065.94 102.677 1065.64 103.031C1065.34 103.385 1064.98 103.661 1064.54 103.859C1064.1 104.057 1063.59 104.156 1063.02 104.156C1062.4 104.156 1061.86 104.031 1061.41 103.781C1060.95 103.526 1060.57 103.188 1060.27 102.766C1059.96 102.344 1059.74 101.875 1059.59 101.359C1059.43 100.844 1059.36 100.32 1059.36 99.7891V99.1094C1059.36 98.3073 1059.44 97.5208 1059.6 96.75C1059.76 95.9792 1060.04 95.2812 1060.44 94.6562C1060.84 94.0312 1061.39 93.5339 1062.1 93.1641C1062.81 92.7943 1063.71 92.6094 1064.81 92.6094ZM1073.97 92.6094H1074.1V93.8359H1073.97C1073.21 93.8359 1072.57 93.9609 1072.05 94.2109C1071.53 94.4557 1071.13 94.7865 1070.82 95.2031C1070.52 95.6146 1070.3 96.0781 1070.17 96.5938C1070.04 97.1094 1069.97 97.6328 1069.97 98.1641V99.8359C1069.97 100.341 1070.03 100.789 1070.15 101.18C1070.27 101.565 1070.44 101.891 1070.64 102.156C1070.85 102.422 1071.09 102.622 1071.35 102.758C1071.61 102.893 1071.89 102.961 1072.18 102.961C1072.51 102.961 1072.81 102.898 1073.07 102.773C1073.33 102.643 1073.55 102.464 1073.72 102.234C1073.9 102 1074.04 101.724 1074.14 101.406C1074.23 101.089 1074.28 100.74 1074.28 100.359C1074.28 100.021 1074.24 99.6953 1074.15 99.3828C1074.07 99.0651 1073.94 98.7839 1073.77 98.5391C1073.6 98.2891 1073.38 98.0938 1073.12 97.9531C1072.87 97.8073 1072.56 97.7344 1072.21 97.7344C1071.81 97.7344 1071.43 97.8333 1071.08 98.0312C1070.74 98.224 1070.45 98.4792 1070.23 98.7969C1070.01 99.1094 1069.89 99.4505 1069.85 99.8203L1069.09 99.8125C1069.16 99.2292 1069.3 98.7318 1069.5 98.3203C1069.7 97.9036 1069.95 97.5651 1070.25 97.3047C1070.55 97.0391 1070.88 96.8464 1071.25 96.7266C1071.63 96.6016 1072.02 96.5391 1072.44 96.5391C1073.01 96.5391 1073.5 96.6458 1073.91 96.8594C1074.32 97.0729 1074.66 97.3594 1074.93 97.7188C1075.19 98.0729 1075.39 98.474 1075.51 98.9219C1075.64 99.3646 1075.71 99.8203 1075.71 100.289C1075.71 100.826 1075.63 101.328 1075.48 101.797C1075.33 102.266 1075.1 102.677 1074.8 103.031C1074.5 103.385 1074.14 103.661 1073.7 103.859C1073.26 104.057 1072.75 104.156 1072.18 104.156C1071.56 104.156 1071.02 104.031 1070.57 103.781C1070.11 103.526 1069.73 103.188 1069.43 102.766C1069.12 102.344 1068.9 101.875 1068.75 101.359C1068.59 100.844 1068.52 100.32 1068.52 99.7891V99.1094C1068.52 98.3073 1068.6 97.5208 1068.76 96.75C1068.92 95.9792 1069.2 95.2812 1069.6 94.6562C1070 94.0312 1070.55 93.5339 1071.26 93.1641C1071.97 92.7943 1072.87 92.6094 1073.97 92.6094Z" fill="black"/>
<path d="M825.695 403.562V415H824.25V405.367L821.336 406.43V405.125L825.469 403.562H825.695ZM837.246 408.406V410.141C837.246 411.073 837.163 411.859 836.996 412.5C836.829 413.141 836.59 413.656 836.277 414.047C835.965 414.438 835.587 414.721 835.144 414.898C834.707 415.07 834.212 415.156 833.66 415.156C833.222 415.156 832.819 415.102 832.449 414.992C832.079 414.883 831.746 414.708 831.449 414.469C831.157 414.224 830.907 413.906 830.699 413.516C830.491 413.125 830.332 412.651 830.222 412.094C830.113 411.536 830.058 410.885 830.058 410.141V408.406C830.058 407.474 830.142 406.693 830.308 406.062C830.48 405.432 830.722 404.927 831.035 404.547C831.347 404.161 831.722 403.885 832.16 403.719C832.603 403.552 833.097 403.469 833.644 403.469C834.087 403.469 834.493 403.523 834.863 403.633C835.238 403.737 835.571 403.906 835.863 404.141C836.155 404.37 836.402 404.677 836.605 405.062C836.814 405.443 836.972 405.909 837.082 406.461C837.191 407.013 837.246 407.661 837.246 408.406ZM835.793 410.375V408.164C835.793 407.654 835.762 407.206 835.699 406.82C835.642 406.43 835.556 406.096 835.441 405.82C835.327 405.544 835.181 405.32 835.004 405.148C834.832 404.977 834.631 404.852 834.402 404.773C834.178 404.69 833.926 404.648 833.644 404.648C833.301 404.648 832.996 404.714 832.73 404.844C832.465 404.969 832.241 405.169 832.058 405.445C831.881 405.721 831.746 406.083 831.652 406.531C831.558 406.979 831.512 407.523 831.512 408.164V410.375C831.512 410.885 831.54 411.336 831.597 411.727C831.66 412.117 831.751 412.456 831.871 412.742C831.991 413.023 832.137 413.255 832.308 413.438C832.48 413.62 832.678 413.755 832.902 413.844C833.131 413.927 833.384 413.969 833.66 413.969C834.014 413.969 834.324 413.901 834.59 413.766C834.855 413.63 835.077 413.419 835.254 413.133C835.436 412.841 835.571 412.469 835.66 412.016C835.749 411.557 835.793 411.01 835.793 410.375ZM846.718 413.812V415H839.273V413.961L843 409.812C843.458 409.302 843.812 408.87 844.062 408.516C844.317 408.156 844.494 407.836 844.593 407.555C844.698 407.268 844.75 406.977 844.75 406.68C844.75 406.305 844.672 405.966 844.515 405.664C844.364 405.357 844.14 405.112 843.843 404.93C843.547 404.747 843.187 404.656 842.765 404.656C842.26 404.656 841.838 404.755 841.5 404.953C841.166 405.146 840.916 405.417 840.75 405.766C840.583 406.115 840.5 406.516 840.5 406.969H839.054C839.054 406.328 839.195 405.742 839.476 405.211C839.757 404.68 840.174 404.258 840.726 403.945C841.278 403.628 841.958 403.469 842.765 403.469C843.484 403.469 844.099 403.596 844.609 403.852C845.119 404.102 845.51 404.456 845.781 404.914C846.057 405.367 846.195 405.898 846.195 406.508C846.195 406.841 846.138 407.18 846.023 407.523C845.914 407.862 845.76 408.201 845.562 408.539C845.369 408.878 845.143 409.211 844.882 409.539C844.627 409.867 844.354 410.19 844.062 410.508L841.015 413.812H846.718ZM856.113 411.172V412.359H847.894V411.508L852.988 403.625H854.167L852.902 405.906L849.535 411.172H856.113ZM854.527 403.625V415H853.082V403.625H854.527Z" fill="black"/>
</svg>
