<svg width="1440" height="1024" viewBox="0 0 1440 1024" fill="none" xmlns="http://www.w3.org/2000/svg">
<rect width="1440" height="1024" fill="white"/>
<g filter="url(#filter0_i_896_252)">
<path d="M371.172 310H429.51C438.299 310 446.209 309.011 453.24 307.034C460.271 305.056 466.241 302.09 471.148 298.135C476.055 294.18 479.827 289.272 482.464 283.413C485.101 277.554 486.419 270.779 486.419 263.088C486.419 259.06 485.87 255.178 484.771 251.443C483.746 247.634 482.134 244.119 479.937 240.896C477.813 237.893 475.176 235.256 472.027 232.986C468.951 230.715 464.776 228.848 459.502 227.383V227.273C462.212 226.248 464.666 225.002 466.863 223.538C469.134 222.073 471.148 220.461 472.906 218.704C476.128 215.481 478.545 211.746 480.157 207.498C481.841 203.176 482.72 198.599 482.793 193.765C482.793 186.294 481.402 179.812 478.619 174.319C475.909 168.826 472.027 164.285 466.973 160.696C461.919 157.107 455.804 154.434 448.626 152.676C441.521 150.918 433.611 150.039 424.896 150.039H371.172V310ZM402.154 239.468H430.938C435.259 239.541 438.995 240.127 442.144 241.226C445.293 242.324 447.857 243.899 449.834 245.95C451.812 247.927 453.24 250.344 454.119 253.201C455.071 256.057 455.547 259.28 455.547 262.869C455.547 266.311 454.925 269.424 453.68 272.207C452.508 274.99 450.75 277.371 448.406 279.348C446.282 281.106 443.609 282.498 440.386 283.523C437.237 284.548 433.648 285.061 429.62 285.061H402.154V239.468ZM402.154 217.166V175.198H425.005C429.986 175.271 434.307 175.82 437.969 176.846C441.705 177.871 444.671 179.519 446.868 181.79C448.553 183.401 449.798 185.415 450.604 187.832C451.482 190.249 451.922 193.069 451.922 196.292C451.922 199.368 451.409 202.114 450.384 204.531C449.432 206.948 448.04 208.999 446.209 210.684C444.012 212.808 441.119 214.419 437.53 215.518C433.941 216.543 429.803 217.092 425.115 217.166H402.154ZM646.841 150.039H616.189L616.08 256.057C616.006 261.257 615.457 265.835 614.432 269.79C613.406 273.745 611.868 277.041 609.817 279.678C607.913 282.241 605.496 284.182 602.566 285.5C599.71 286.746 596.414 287.368 592.679 287.368C589.236 287.368 586.197 286.782 583.56 285.61C580.923 284.365 578.689 282.534 576.858 280.117C574.881 277.48 573.379 274.148 572.354 270.12C571.402 266.091 570.889 261.404 570.816 256.057L570.706 150.039H539.834L539.725 256.057C539.725 264.993 540.97 272.976 543.46 280.007C546.023 286.965 549.612 292.825 554.227 297.585C558.841 302.346 564.371 305.972 570.816 308.462C577.334 310.952 584.622 312.197 592.679 312.197C601.248 312.197 608.865 310.952 615.53 308.462C622.269 305.972 627.981 302.31 632.669 297.476C637.283 292.715 640.799 286.855 643.216 279.897C645.706 272.939 646.951 264.993 646.951 256.057L646.841 150.039ZM820.228 259.902H789.356C789.063 264.736 788.257 268.875 786.939 272.317C785.621 275.759 783.826 278.579 781.556 280.776C779.285 282.974 776.539 284.585 773.316 285.61C770.093 286.636 766.468 287.148 762.439 287.148C759.437 287.148 756.69 286.819 754.2 286.16C751.783 285.427 749.585 284.329 747.608 282.864C745.777 281.545 744.129 279.897 742.664 277.92C741.272 275.942 740.064 273.672 739.039 271.108C737.574 267.373 736.475 263.015 735.743 258.035C735.083 252.981 734.754 247.268 734.754 240.896V219.143C734.754 214.456 734.974 210.098 735.413 206.069C735.853 201.968 736.548 198.232 737.5 194.863C738.746 190.542 740.394 186.77 742.444 183.547C744.568 180.251 747.132 177.725 750.135 175.967C751.893 174.941 753.797 174.172 755.848 173.66C757.972 173.147 760.242 172.891 762.659 172.891C767.2 172.891 771.082 173.513 774.305 174.758C777.601 175.93 780.347 177.688 782.544 180.032C784.668 182.449 786.28 185.452 787.378 189.041C788.55 192.629 789.283 196.804 789.576 201.565H820.337C819.605 193.215 817.847 185.708 815.064 179.043C812.281 172.378 808.472 166.738 803.638 162.124C798.804 157.51 792.945 153.958 786.06 151.467C779.249 148.977 771.448 147.732 762.659 147.732C756.727 147.732 751.16 148.501 745.96 150.039C740.833 151.504 736.109 153.628 731.788 156.411C726.954 159.707 722.632 163.735 718.824 168.496C715.015 173.257 711.939 178.677 709.595 184.756C707.544 189.736 706.006 195.156 704.981 201.016C703.956 206.802 703.443 212.917 703.443 219.363V240.896C703.443 247.781 703.992 254.299 705.091 260.452C706.263 266.604 707.911 272.244 710.035 277.371C712.232 282.498 714.905 287.185 718.055 291.433C721.277 295.681 724.939 299.307 729.041 302.31C733.509 305.532 738.526 308.022 744.092 309.78C749.732 311.465 755.848 312.307 762.439 312.307C770.789 312.307 778.406 311.099 785.291 308.682C792.176 306.191 798.108 302.676 803.089 298.135C808.069 293.594 812.024 288.101 814.954 281.655C817.957 275.21 819.715 267.959 820.228 259.902ZM983.616 310V150.039H953.074V215.627H907.811V150.039H877.159V310H907.811V240.676H953.074V310H983.616Z" fill="#DBE2E6"/>
</g>
<path d="M141.756 180H144.867C145.336 180 145.758 179.947 146.133 179.842C146.508 179.736 146.826 179.578 147.088 179.367C147.35 179.156 147.551 178.895 147.691 178.582C147.832 178.27 147.902 177.908 147.902 177.498C147.902 177.283 147.873 177.076 147.814 176.877C147.76 176.674 147.674 176.486 147.557 176.314C147.443 176.154 147.303 176.014 147.135 175.893C146.971 175.771 146.748 175.672 146.467 175.594V175.588C146.611 175.533 146.742 175.467 146.859 175.389C146.98 175.311 147.088 175.225 147.182 175.131C147.354 174.959 147.482 174.76 147.568 174.533C147.658 174.303 147.705 174.059 147.709 173.801C147.709 173.402 147.635 173.057 147.486 172.764C147.342 172.471 147.135 172.229 146.865 172.037C146.596 171.846 146.27 171.703 145.887 171.609C145.508 171.516 145.086 171.469 144.621 171.469H141.756V180ZM143.408 176.238H144.943C145.174 176.242 145.373 176.273 145.541 176.332C145.709 176.391 145.846 176.475 145.951 176.584C146.057 176.689 146.133 176.818 146.18 176.971C146.23 177.123 146.256 177.295 146.256 177.486C146.256 177.67 146.223 177.836 146.156 177.984C146.094 178.133 146 178.26 145.875 178.365C145.762 178.459 145.619 178.533 145.447 178.588C145.279 178.643 145.088 178.67 144.873 178.67H143.408V176.238ZM143.408 175.049V172.811H144.627C144.893 172.814 145.123 172.844 145.318 172.898C145.518 172.953 145.676 173.041 145.793 173.162C145.883 173.248 145.949 173.355 145.992 173.484C146.039 173.613 146.062 173.764 146.062 173.936C146.062 174.1 146.035 174.246 145.98 174.375C145.93 174.504 145.855 174.613 145.758 174.703C145.641 174.816 145.486 174.902 145.295 174.961C145.104 175.016 144.883 175.045 144.633 175.049H143.408ZM154.97 180H156.446V173.66H154.812V178.107C154.761 178.209 154.7 178.301 154.63 178.383C154.56 178.465 154.48 178.535 154.39 178.594C154.284 178.66 154.161 178.711 154.021 178.746C153.884 178.781 153.73 178.799 153.558 178.799C153.366 178.799 153.204 178.775 153.071 178.729C152.939 178.682 152.831 178.604 152.749 178.494C152.667 178.389 152.607 178.248 152.568 178.072C152.532 177.896 152.515 177.68 152.515 177.422V173.66H150.886V177.41C150.886 177.891 150.939 178.303 151.044 178.646C151.154 178.986 151.306 179.266 151.501 179.484C151.696 179.707 151.931 179.869 152.204 179.971C152.478 180.072 152.779 180.123 153.107 180.123C153.466 180.123 153.796 180.033 154.097 179.854C154.402 179.674 154.661 179.426 154.876 179.109L154.97 180ZM162.647 178.816C162.385 178.816 162.168 178.764 161.996 178.658C161.829 178.553 161.696 178.412 161.598 178.236C161.496 178.064 161.426 177.865 161.387 177.639C161.348 177.408 161.329 177.17 161.329 176.924V176.748C161.329 176.506 161.348 176.271 161.387 176.045C161.43 175.818 161.502 175.617 161.604 175.441C161.702 175.266 161.834 175.125 162.002 175.02C162.17 174.914 162.383 174.861 162.641 174.861C162.817 174.861 162.979 174.893 163.127 174.955C163.276 175.014 163.403 175.094 163.508 175.195C163.614 175.297 163.694 175.418 163.748 175.559C163.803 175.699 163.827 175.848 163.819 176.004H165.354C165.362 175.629 165.299 175.291 165.166 174.99C165.034 174.686 164.848 174.426 164.61 174.211C164.368 174 164.08 173.836 163.748 173.719C163.416 173.602 163.055 173.543 162.664 173.543C162.176 173.543 161.746 173.627 161.375 173.795C161.008 173.963 160.7 174.191 160.45 174.48C160.2 174.77 160.012 175.109 159.887 175.5C159.762 175.887 159.7 176.303 159.7 176.748V176.924C159.7 177.369 159.762 177.787 159.887 178.178C160.016 178.564 160.205 178.902 160.455 179.191C160.702 179.48 161.01 179.709 161.381 179.877C161.752 180.041 162.184 180.123 162.676 180.123C163.039 180.123 163.383 180.066 163.707 179.953C164.036 179.836 164.323 179.676 164.569 179.473C164.815 179.27 165.008 179.027 165.149 178.746C165.293 178.465 165.362 178.16 165.354 177.832H163.819C163.827 177.98 163.799 178.115 163.737 178.236C163.678 178.357 163.594 178.461 163.485 178.547C163.375 178.633 163.248 178.699 163.104 178.746C162.959 178.793 162.807 178.816 162.647 178.816ZM170.476 174.533V171H168.847V180H170.476V175.424C170.539 175.342 170.607 175.268 170.681 175.201C170.759 175.135 170.845 175.078 170.939 175.031C171.041 174.977 171.154 174.936 171.279 174.908C171.404 174.881 171.539 174.867 171.683 174.867C171.871 174.867 172.039 174.893 172.187 174.943C172.336 174.99 172.462 175.064 172.568 175.166C172.673 175.268 172.754 175.4 172.808 175.564C172.867 175.729 172.896 175.924 172.896 176.15V180H174.525V176.162C174.525 175.697 174.468 175.301 174.355 174.973C174.246 174.641 174.091 174.369 173.892 174.158C173.693 173.947 173.455 173.793 173.177 173.695C172.9 173.594 172.595 173.543 172.263 173.543C172.037 173.543 171.822 173.576 171.619 173.643C171.416 173.709 171.23 173.803 171.062 173.924C170.953 174.002 170.847 174.094 170.746 174.199C170.648 174.301 170.558 174.412 170.476 174.533ZM180.843 172.107H179.214V173.66H177.766V174.861H179.214V177.744C179.214 178.162 179.268 178.521 179.378 178.822C179.487 179.119 179.643 179.363 179.846 179.555C180.046 179.75 180.286 179.895 180.567 179.988C180.852 180.078 181.169 180.123 181.516 180.123C181.696 180.123 181.878 180.113 182.061 180.094C182.249 180.078 182.429 180.055 182.6 180.023C182.772 179.992 182.934 179.953 183.087 179.906C183.239 179.855 183.372 179.797 183.485 179.73L183.327 178.611C183.253 178.631 183.163 178.65 183.057 178.67C182.956 178.689 182.846 178.707 182.729 178.723C182.608 178.742 182.481 178.758 182.348 178.77C182.22 178.781 182.093 178.787 181.968 178.787C181.796 178.787 181.639 178.768 181.499 178.729C181.362 178.689 181.245 178.623 181.147 178.529C181.05 178.439 180.973 178.318 180.919 178.166C180.868 178.01 180.843 177.816 180.843 177.586V174.861H183.21V173.66H180.843V172.107ZM188.49 174.533V171H186.861V180H188.49V175.424C188.553 175.342 188.621 175.268 188.695 175.201C188.773 175.135 188.859 175.078 188.953 175.031C189.055 174.977 189.168 174.936 189.293 174.908C189.418 174.881 189.553 174.867 189.697 174.867C189.885 174.867 190.053 174.893 190.201 174.943C190.35 174.99 190.477 175.064 190.582 175.166C190.688 175.268 190.768 175.4 190.822 175.564C190.881 175.729 190.91 175.924 190.91 176.15V180H192.539V176.162C192.539 175.697 192.482 175.301 192.369 174.973C192.26 174.641 192.105 174.369 191.906 174.158C191.707 173.947 191.469 173.793 191.191 173.695C190.914 173.594 190.609 173.543 190.277 173.543C190.051 173.543 189.836 173.576 189.633 173.643C189.43 173.709 189.244 173.803 189.076 173.924C188.967 174.002 188.861 174.094 188.76 174.199C188.662 174.301 188.572 174.412 188.49 174.533ZM198.945 180.117C199.558 180.117 200.089 179.998 200.538 179.76C200.987 179.521 201.316 179.256 201.523 178.963L200.708 178.084C200.521 178.326 200.277 178.508 199.976 178.629C199.675 178.75 199.364 178.811 199.044 178.811C198.818 178.811 198.609 178.775 198.417 178.705C198.226 178.635 198.056 178.535 197.907 178.406C197.763 178.281 197.648 178.143 197.562 177.99C197.476 177.834 197.405 177.629 197.351 177.375V177.357H201.652V176.666C201.652 176.201 201.587 175.777 201.458 175.395C201.329 175.008 201.142 174.678 200.896 174.404C200.646 174.131 200.341 173.92 199.982 173.771C199.626 173.619 199.22 173.543 198.763 173.543C198.321 173.543 197.913 173.623 197.538 173.783C197.163 173.943 196.839 174.168 196.566 174.457C196.292 174.746 196.079 175.092 195.927 175.494C195.775 175.893 195.698 176.334 195.698 176.818V177.053C195.698 177.479 195.775 177.879 195.927 178.254C196.083 178.625 196.304 178.947 196.589 179.221C196.874 179.498 197.216 179.717 197.614 179.877C198.013 180.037 198.456 180.117 198.945 180.117ZM198.751 174.861C198.958 174.861 199.14 174.895 199.296 174.961C199.456 175.023 199.591 175.109 199.7 175.219C199.81 175.332 199.896 175.465 199.958 175.617C200.021 175.77 200.052 175.932 200.052 176.104V176.232H197.38C197.419 176.025 197.478 175.838 197.556 175.67C197.634 175.502 197.732 175.357 197.849 175.236C197.962 175.115 198.095 175.023 198.247 174.961C198.4 174.895 198.568 174.861 198.751 174.861ZM205.889 173.66H204.489V180H205.971V175.254C205.991 175.203 206.012 175.156 206.036 175.113C206.059 175.07 206.086 175.033 206.118 175.002C206.161 174.959 206.209 174.926 206.264 174.902C206.319 174.879 206.381 174.867 206.452 174.867C206.514 174.867 206.573 174.877 206.627 174.896C206.682 174.912 206.731 174.941 206.774 174.984C206.813 175.027 206.844 175.088 206.868 175.166C206.891 175.244 206.903 175.344 206.903 175.465V180H208.338V175.324C208.338 175.277 208.338 175.24 208.338 175.213C208.338 175.186 208.338 175.168 208.338 175.16C208.358 175.117 208.381 175.08 208.409 175.049C208.436 175.014 208.467 174.982 208.502 174.955C208.545 174.928 208.59 174.906 208.637 174.891C208.688 174.875 208.745 174.867 208.807 174.867C208.866 174.867 208.922 174.877 208.977 174.896C209.036 174.912 209.086 174.941 209.129 174.984C209.172 175.031 209.205 175.094 209.229 175.172C209.256 175.25 209.27 175.35 209.27 175.471V180H210.752V175.477C210.752 175.125 210.717 174.828 210.647 174.586C210.58 174.34 210.487 174.139 210.366 173.982C210.241 173.83 210.094 173.719 209.926 173.648C209.762 173.578 209.584 173.543 209.393 173.543C209.241 173.543 209.1 173.562 208.971 173.602C208.842 173.641 208.727 173.695 208.625 173.766C208.543 173.82 208.467 173.887 208.397 173.965C208.33 174.039 208.27 174.123 208.215 174.217C208.18 174.119 208.137 174.033 208.086 173.959C208.039 173.881 207.983 173.814 207.916 173.76C207.83 173.686 207.729 173.631 207.612 173.596C207.495 173.561 207.362 173.543 207.213 173.543C206.909 173.543 206.649 173.623 206.434 173.783C206.223 173.939 206.057 174.154 205.936 174.428L205.889 173.66ZM216.959 180.117C217.572 180.117 218.103 179.998 218.552 179.76C219.002 179.521 219.33 179.256 219.537 178.963L218.722 178.084C218.535 178.326 218.291 178.508 217.99 178.629C217.689 178.75 217.379 178.811 217.058 178.811C216.832 178.811 216.623 178.775 216.431 178.705C216.24 178.635 216.07 178.535 215.921 178.406C215.777 178.281 215.662 178.143 215.576 177.99C215.49 177.834 215.42 177.629 215.365 177.375V177.357H219.666V176.666C219.666 176.201 219.601 175.777 219.472 175.395C219.343 175.008 219.156 174.678 218.91 174.404C218.66 174.131 218.355 173.92 217.996 173.771C217.64 173.619 217.234 173.543 216.777 173.543C216.336 173.543 215.927 173.623 215.552 173.783C215.177 173.943 214.853 174.168 214.58 174.457C214.306 174.746 214.093 175.092 213.941 175.494C213.789 175.893 213.713 176.334 213.713 176.818V177.053C213.713 177.479 213.789 177.879 213.941 178.254C214.097 178.625 214.318 178.947 214.603 179.221C214.888 179.498 215.23 179.717 215.629 179.877C216.027 180.037 216.47 180.117 216.959 180.117ZM216.765 174.861C216.972 174.861 217.154 174.895 217.31 174.961C217.47 175.023 217.605 175.109 217.714 175.219C217.824 175.332 217.91 175.465 217.972 175.617C218.035 175.77 218.066 175.932 218.066 176.104V176.232H215.394C215.433 176.025 215.492 175.838 215.57 175.67C215.648 175.502 215.746 175.357 215.863 175.236C215.976 175.115 216.109 175.023 216.261 174.961C216.414 174.895 216.582 174.861 216.765 174.861ZM222.889 180H224.524V175.494C224.579 175.408 224.639 175.33 224.706 175.26C224.772 175.189 224.846 175.129 224.929 175.078C225.03 175.008 225.145 174.955 225.274 174.92C225.407 174.885 225.552 174.867 225.708 174.867C225.895 174.867 226.063 174.887 226.212 174.926C226.36 174.961 226.487 175.025 226.593 175.119C226.698 175.213 226.778 175.342 226.833 175.506C226.891 175.666 226.921 175.871 226.921 176.121V180H228.55V176.098C228.55 175.637 228.495 175.246 228.386 174.926C228.28 174.602 228.132 174.336 227.94 174.129C227.745 173.926 227.514 173.777 227.249 173.684C226.983 173.59 226.69 173.543 226.37 173.543C226.12 173.543 225.884 173.578 225.661 173.648C225.438 173.719 225.233 173.82 225.046 173.953C224.936 174.031 224.833 174.119 224.735 174.217C224.637 174.314 224.548 174.422 224.466 174.539L224.366 173.66H222.889V180ZM235.986 178.26C235.986 178.357 235.961 178.447 235.91 178.529C235.863 178.611 235.791 178.684 235.693 178.746C235.592 178.809 235.461 178.859 235.301 178.898C235.145 178.934 234.961 178.951 234.75 178.951C234.574 178.951 234.402 178.934 234.234 178.898C234.07 178.863 233.924 178.807 233.795 178.729C233.666 178.654 233.561 178.557 233.479 178.436C233.396 178.311 233.35 178.162 233.338 177.99H231.785C231.785 178.248 231.848 178.506 231.973 178.764C232.102 179.018 232.289 179.244 232.535 179.443C232.781 179.646 233.086 179.811 233.449 179.936C233.816 180.061 234.238 180.123 234.715 180.123C235.148 180.123 235.541 180.076 235.893 179.982C236.244 179.885 236.545 179.75 236.795 179.578C237.041 179.406 237.23 179.203 237.363 178.969C237.5 178.73 237.568 178.471 237.568 178.189C237.568 177.885 237.5 177.623 237.363 177.404C237.23 177.182 237.045 176.992 236.807 176.836C236.568 176.684 236.285 176.559 235.957 176.461C235.629 176.363 235.273 176.283 234.891 176.221C234.625 176.182 234.406 176.137 234.234 176.086C234.062 176.031 233.928 175.971 233.83 175.904C233.729 175.842 233.658 175.771 233.619 175.693C233.58 175.611 233.561 175.523 233.561 175.43C233.561 175.336 233.582 175.248 233.625 175.166C233.672 175.08 233.738 175.006 233.824 174.943C233.918 174.873 234.039 174.818 234.188 174.779C234.336 174.74 234.51 174.721 234.709 174.721C234.943 174.721 235.143 174.75 235.307 174.809C235.475 174.867 235.607 174.945 235.705 175.043C235.775 175.117 235.828 175.201 235.863 175.295C235.898 175.385 235.916 175.482 235.916 175.588H237.545C237.545 175.295 237.48 175.023 237.352 174.773C237.223 174.523 237.037 174.307 236.795 174.123C236.549 173.943 236.25 173.803 235.898 173.701C235.547 173.596 235.15 173.543 234.709 173.543C234.287 173.543 233.908 173.596 233.572 173.701C233.236 173.807 232.951 173.949 232.717 174.129C232.482 174.309 232.303 174.518 232.178 174.756C232.053 174.994 231.99 175.244 231.99 175.506C231.99 175.775 232.051 176.014 232.172 176.221C232.297 176.428 232.469 176.609 232.688 176.766C232.906 176.926 233.168 177.062 233.473 177.176C233.781 177.285 234.121 177.377 234.492 177.451C234.785 177.506 235.027 177.561 235.219 177.615C235.41 177.67 235.564 177.729 235.682 177.791C235.795 177.857 235.873 177.928 235.916 178.002C235.963 178.076 235.986 178.162 235.986 178.26ZM243.71 178.816C243.448 178.816 243.232 178.764 243.06 178.658C242.892 178.553 242.759 178.412 242.661 178.236C242.56 178.064 242.489 177.865 242.45 177.639C242.411 177.408 242.392 177.17 242.392 176.924V176.748C242.392 176.506 242.411 176.271 242.45 176.045C242.493 175.818 242.566 175.617 242.667 175.441C242.765 175.266 242.898 175.125 243.066 175.02C243.234 174.914 243.446 174.861 243.704 174.861C243.88 174.861 244.042 174.893 244.191 174.955C244.339 175.014 244.466 175.094 244.571 175.195C244.677 175.297 244.757 175.418 244.812 175.559C244.866 175.699 244.89 175.848 244.882 176.004H246.417C246.425 175.629 246.363 175.291 246.23 174.99C246.097 174.686 245.911 174.426 245.673 174.211C245.431 174 245.144 173.836 244.812 173.719C244.48 173.602 244.118 173.543 243.728 173.543C243.239 173.543 242.81 173.627 242.439 173.795C242.071 173.963 241.763 174.191 241.513 174.48C241.263 174.77 241.075 175.109 240.95 175.5C240.825 175.887 240.763 176.303 240.763 176.748V176.924C240.763 177.369 240.825 177.787 240.95 178.178C241.079 178.564 241.269 178.902 241.519 179.191C241.765 179.48 242.073 179.709 242.445 179.877C242.816 180.041 243.247 180.123 243.739 180.123C244.103 180.123 244.446 180.066 244.771 179.953C245.099 179.836 245.386 179.676 245.632 179.473C245.878 179.27 246.071 179.027 246.212 178.746C246.357 178.465 246.425 178.16 246.417 177.832H244.882C244.89 177.98 244.863 178.115 244.8 178.236C244.741 178.357 244.657 178.461 244.548 178.547C244.439 178.633 244.312 178.699 244.167 178.746C244.023 178.793 243.87 178.816 243.71 178.816ZM251.539 174.533V171H249.911V180H251.539V175.424C251.602 175.342 251.67 175.268 251.745 175.201C251.823 175.135 251.909 175.078 252.002 175.031C252.104 174.977 252.217 174.936 252.342 174.908C252.467 174.881 252.602 174.867 252.746 174.867C252.934 174.867 253.102 174.893 253.25 174.943C253.399 174.99 253.526 175.064 253.631 175.166C253.737 175.268 253.817 175.4 253.871 175.564C253.93 175.729 253.959 175.924 253.959 176.15V180H255.588V176.162C255.588 175.697 255.532 175.301 255.418 174.973C255.309 174.641 255.155 174.369 254.955 174.158C254.756 173.947 254.518 173.793 254.241 173.695C253.963 173.594 253.659 173.543 253.327 173.543C253.1 173.543 252.885 173.576 252.682 173.643C252.479 173.709 252.293 173.803 252.125 173.924C252.016 174.002 251.911 174.094 251.809 174.199C251.711 174.301 251.621 174.412 251.539 174.533ZM263.47 173.543C263.045 173.543 262.652 173.646 262.293 173.854C261.933 174.057 261.625 174.338 261.367 174.697L261.355 174.557L261.291 173.66H259.773V180H261.402V176.191C261.476 176.012 261.57 175.855 261.683 175.723C261.796 175.59 261.933 175.48 262.093 175.395C262.226 175.32 262.377 175.266 262.545 175.23C262.716 175.191 262.908 175.172 263.119 175.172C263.322 175.172 263.535 175.186 263.757 175.213C263.984 175.236 264.205 175.273 264.42 175.324L264.66 173.701C264.531 173.662 264.361 173.627 264.15 173.596C263.943 173.561 263.716 173.543 263.47 173.543ZM268.358 173.66V174.99H270.163V178.676H268.358V180H273.526V178.676H271.809V173.66H268.358ZM270.046 172.037C270.046 172.162 270.067 172.279 270.11 172.389C270.157 172.494 270.221 172.584 270.304 172.658C270.386 172.736 270.483 172.797 270.596 172.84C270.714 172.883 270.843 172.904 270.983 172.904C271.272 172.904 271.501 172.824 271.669 172.664C271.841 172.5 271.927 172.291 271.927 172.037C271.927 171.783 271.841 171.576 271.669 171.416C271.501 171.252 271.272 171.17 270.983 171.17C270.843 171.17 270.714 171.191 270.596 171.234C270.483 171.277 270.386 171.336 270.304 171.41C270.221 171.488 270.157 171.582 270.11 171.691C270.067 171.797 270.046 171.912 270.046 172.037ZM278.508 180H280.143V174.861H282.428V173.66H280.143V173.314C280.143 173.127 280.166 172.959 280.213 172.811C280.264 172.662 280.34 172.537 280.441 172.436C280.555 172.314 280.707 172.223 280.898 172.16C281.09 172.098 281.322 172.066 281.596 172.066C281.85 172.066 282.07 172.078 282.258 172.102C282.445 172.125 282.613 172.152 282.762 172.184L282.867 170.906C282.734 170.883 282.605 170.861 282.48 170.842C282.359 170.822 282.238 170.805 282.117 170.789C281.996 170.773 281.871 170.762 281.742 170.754C281.617 170.742 281.486 170.736 281.35 170.736C280.916 170.736 280.523 170.793 280.172 170.906C279.82 171.016 279.521 171.18 279.275 171.398C279.029 171.617 278.84 171.887 278.707 172.207C278.574 172.527 278.508 172.896 278.508 173.314V173.66H276.844V174.861H278.508V180ZM288.927 172.107H287.298V173.66H285.851V174.861H287.298V177.744C287.298 178.162 287.353 178.521 287.462 178.822C287.571 179.119 287.728 179.363 287.931 179.555C288.13 179.75 288.37 179.895 288.652 179.988C288.937 180.078 289.253 180.123 289.601 180.123C289.78 180.123 289.962 180.113 290.146 180.094C290.333 180.078 290.513 180.055 290.685 180.023C290.857 179.992 291.019 179.953 291.171 179.906C291.323 179.855 291.456 179.797 291.57 179.73L291.411 178.611C291.337 178.631 291.247 178.65 291.142 178.67C291.04 178.689 290.931 178.707 290.814 178.723C290.693 178.742 290.566 178.758 290.433 178.77C290.304 178.781 290.177 178.787 290.052 178.787C289.88 178.787 289.724 178.768 289.583 178.729C289.446 178.689 289.329 178.623 289.232 178.529C289.134 178.439 289.058 178.318 289.003 178.166C288.952 178.01 288.927 177.816 288.927 177.586V174.861H291.294V173.66H288.927V172.107ZM143.402 234H145.037V228.861H147.322V227.66H145.037V227.314C145.037 227.127 145.061 226.959 145.107 226.811C145.158 226.662 145.234 226.537 145.336 226.436C145.449 226.314 145.602 226.223 145.793 226.16C145.984 226.098 146.217 226.066 146.49 226.066C146.744 226.066 146.965 226.078 147.152 226.102C147.34 226.125 147.508 226.152 147.656 226.184L147.762 224.906C147.629 224.883 147.5 224.861 147.375 224.842C147.254 224.822 147.133 224.805 147.012 224.789C146.891 224.773 146.766 224.762 146.637 224.754C146.512 224.742 146.381 224.736 146.244 224.736C145.811 224.736 145.418 224.793 145.066 224.906C144.715 225.016 144.416 225.18 144.17 225.398C143.924 225.617 143.734 225.887 143.602 226.207C143.469 226.527 143.402 226.896 143.402 227.314V227.66H141.738V228.861H143.402V234ZM151.302 234H152.732L153.405 230.613L153.534 229.969L153.669 230.613L154.366 234H155.796L156.933 227.66H155.439L154.97 231.398L154.888 232.014L154.777 231.41L154.091 227.66H153.001L152.316 231.428L152.204 232.031L152.128 231.428L151.654 227.66H150.165L151.302 234ZM174.56 230.895V230.771C174.56 230.389 174.525 230.029 174.455 229.693C174.388 229.357 174.285 229.055 174.144 228.785C174.054 228.617 173.951 228.463 173.834 228.322C173.716 228.178 173.586 228.055 173.441 227.953C173.261 227.82 173.056 227.719 172.826 227.648C172.599 227.578 172.349 227.543 172.076 227.543C171.877 227.543 171.691 227.564 171.519 227.607C171.351 227.646 171.195 227.707 171.05 227.789C170.949 227.844 170.853 227.91 170.763 227.988C170.673 228.062 170.589 228.145 170.511 228.234V225H168.882V234H170.347L170.423 233.326C170.49 233.412 170.56 233.492 170.634 233.566C170.709 233.637 170.789 233.701 170.875 233.76C171.035 233.877 171.214 233.965 171.414 234.023C171.617 234.086 171.841 234.117 172.087 234.117C172.357 234.117 172.603 234.082 172.826 234.012C173.052 233.945 173.255 233.848 173.435 233.719C173.634 233.582 173.806 233.41 173.951 233.203C174.099 232.996 174.218 232.766 174.308 232.512C174.39 232.281 174.453 232.031 174.496 231.762C174.539 231.488 174.56 231.199 174.56 230.895ZM172.931 230.771V230.895C172.931 231.059 172.923 231.217 172.908 231.369C172.896 231.521 172.875 231.662 172.843 231.791C172.804 231.967 172.746 232.125 172.668 232.266C172.593 232.402 172.496 232.514 172.375 232.6C172.289 232.662 172.187 232.711 172.07 232.746C171.953 232.781 171.822 232.799 171.677 232.799C171.509 232.799 171.359 232.779 171.226 232.74C171.097 232.701 170.984 232.645 170.886 232.57C170.804 232.512 170.732 232.443 170.67 232.365C170.611 232.283 170.558 232.193 170.511 232.096V229.57C170.546 229.496 170.586 229.428 170.629 229.365C170.671 229.299 170.718 229.24 170.769 229.189C170.875 229.084 171.002 229.004 171.15 228.949C171.298 228.895 171.47 228.867 171.666 228.867C171.81 228.867 171.939 228.885 172.052 228.92C172.166 228.951 172.267 229 172.357 229.066C172.494 229.172 172.595 229.289 172.662 229.418C172.732 229.543 172.789 229.686 172.832 229.846C172.867 229.982 172.892 230.129 172.908 230.285C172.923 230.441 172.931 230.604 172.931 230.771ZM177.632 230.771V230.895C177.632 231.359 177.698 231.789 177.831 232.184C177.964 232.574 178.159 232.914 178.417 233.203C178.671 233.492 178.983 233.719 179.354 233.883C179.729 234.043 180.155 234.123 180.632 234.123C181.104 234.123 181.526 234.043 181.897 233.883C182.268 233.719 182.581 233.492 182.835 233.203C183.089 232.914 183.282 232.574 183.415 232.184C183.548 231.789 183.614 231.359 183.614 230.895V230.771C183.614 230.311 183.548 229.885 183.415 229.494C183.282 229.1 183.089 228.758 182.835 228.469C182.577 228.18 182.263 227.953 181.891 227.789C181.52 227.625 181.096 227.543 180.62 227.543C180.143 227.543 179.72 227.625 179.348 227.789C178.981 227.953 178.671 228.18 178.417 228.469C178.159 228.758 177.964 229.1 177.831 229.494C177.698 229.885 177.632 230.311 177.632 230.771ZM179.261 230.895V230.771C179.261 230.514 179.286 230.27 179.337 230.039C179.388 229.809 179.468 229.605 179.577 229.43C179.686 229.254 179.827 229.115 179.999 229.014C180.171 228.912 180.378 228.861 180.62 228.861C180.866 228.861 181.075 228.912 181.247 229.014C181.419 229.115 181.559 229.254 181.669 229.43C181.774 229.605 181.852 229.809 181.903 230.039C181.954 230.27 181.979 230.514 181.979 230.771V230.895C181.979 231.16 181.954 231.41 181.903 231.645C181.852 231.875 181.774 232.076 181.669 232.248C181.559 232.424 181.419 232.562 181.247 232.664C181.075 232.766 180.87 232.816 180.632 232.816C180.386 232.816 180.175 232.766 179.999 232.664C179.827 232.562 179.686 232.424 179.577 232.248C179.468 232.076 179.388 231.875 179.337 231.645C179.286 231.41 179.261 231.16 179.261 230.895ZM187.201 225V226.33H189.1V232.676H187.201V234H192.562V232.676H190.746V225H187.201ZM195.698 230.783V230.906C195.698 231.367 195.755 231.795 195.868 232.189C195.982 232.58 196.146 232.918 196.361 233.203C196.571 233.488 196.829 233.713 197.134 233.877C197.443 234.037 197.79 234.117 198.177 234.117C198.532 234.117 198.845 234.049 199.114 233.912C199.384 233.775 199.618 233.584 199.818 233.338L199.9 234H201.37V225H199.736V228.229C199.54 228.01 199.316 227.842 199.062 227.725C198.812 227.604 198.521 227.543 198.189 227.543C197.794 227.543 197.443 227.621 197.134 227.777C196.829 227.934 196.57 228.154 196.355 228.439C196.14 228.725 195.976 229.066 195.862 229.465C195.753 229.863 195.698 230.303 195.698 230.783ZM197.327 230.906V230.783C197.327 230.518 197.351 230.27 197.398 230.039C197.445 229.805 197.519 229.6 197.62 229.424C197.722 229.252 197.853 229.117 198.013 229.02C198.177 228.918 198.374 228.867 198.605 228.867C198.882 228.867 199.112 228.928 199.296 229.049C199.48 229.166 199.626 229.332 199.736 229.547V232.113C199.626 232.324 199.478 232.49 199.29 232.611C199.107 232.732 198.874 232.793 198.593 232.793C198.362 232.793 198.167 232.744 198.007 232.646C197.847 232.549 197.716 232.414 197.614 232.242C197.513 232.074 197.439 231.877 197.392 231.65C197.349 231.42 197.327 231.172 197.327 230.906ZM147.404 288V286.693H143.66L145.266 284.994C145.543 284.709 145.795 284.438 146.021 284.18C146.248 283.918 146.443 283.662 146.607 283.412C146.768 283.162 146.891 282.91 146.977 282.656C147.066 282.398 147.111 282.129 147.111 281.848C147.111 281.477 147.053 281.139 146.936 280.834C146.818 280.525 146.648 280.262 146.426 280.043C146.199 279.824 145.918 279.654 145.582 279.533C145.25 279.412 144.867 279.352 144.434 279.352C143.98 279.352 143.566 279.426 143.191 279.574C142.82 279.719 142.504 279.918 142.242 280.172C141.977 280.426 141.771 280.723 141.627 281.062C141.482 281.398 141.41 281.756 141.41 282.135H143.045C143.045 281.904 143.074 281.699 143.133 281.52C143.191 281.34 143.277 281.189 143.391 281.068C143.5 280.951 143.637 280.863 143.801 280.805C143.969 280.742 144.162 280.711 144.381 280.711C144.549 280.711 144.701 280.738 144.838 280.793C144.979 280.848 145.1 280.926 145.201 281.027C145.299 281.133 145.375 281.26 145.43 281.408C145.484 281.557 145.512 281.727 145.512 281.918C145.512 282.047 145.49 282.18 145.447 282.316C145.408 282.453 145.344 282.6 145.254 282.756C145.16 282.916 145.039 283.092 144.891 283.283C144.742 283.475 144.561 283.688 144.346 283.922L141.586 286.887V288H147.404ZM156.411 288V286.693H152.667L154.273 284.994C154.55 284.709 154.802 284.438 155.029 284.18C155.255 283.918 155.45 283.662 155.614 283.412C155.775 283.162 155.898 282.91 155.984 282.656C156.073 282.398 156.118 282.129 156.118 281.848C156.118 281.477 156.06 281.139 155.943 280.834C155.825 280.525 155.655 280.262 155.433 280.043C155.206 279.824 154.925 279.654 154.589 279.533C154.257 279.412 153.874 279.352 153.441 279.352C152.988 279.352 152.573 279.426 152.198 279.574C151.827 279.719 151.511 279.918 151.249 280.172C150.984 280.426 150.779 280.723 150.634 281.062C150.489 281.398 150.417 281.756 150.417 282.135H152.052C152.052 281.904 152.081 281.699 152.14 281.52C152.198 281.34 152.284 281.189 152.398 281.068C152.507 280.951 152.644 280.863 152.808 280.805C152.976 280.742 153.169 280.711 153.388 280.711C153.556 280.711 153.708 280.738 153.845 280.793C153.986 280.848 154.107 280.926 154.208 281.027C154.306 281.133 154.382 281.26 154.437 281.408C154.491 281.557 154.519 281.727 154.519 281.918C154.519 282.047 154.497 282.18 154.454 282.316C154.415 282.453 154.351 282.6 154.261 282.756C154.167 282.916 154.046 283.092 153.898 283.283C153.749 283.475 153.568 283.688 153.353 283.922L150.593 286.887V288H156.411ZM159.922 283.799L161.223 284.121C161.286 284.059 161.352 284 161.422 283.945C161.493 283.887 161.573 283.836 161.663 283.793C161.752 283.75 161.856 283.715 161.973 283.688C162.09 283.66 162.229 283.646 162.389 283.646C162.627 283.646 162.834 283.684 163.01 283.758C163.186 283.832 163.332 283.938 163.45 284.074C163.567 284.211 163.653 284.375 163.707 284.566C163.766 284.754 163.795 284.961 163.795 285.188C163.795 285.418 163.772 285.633 163.725 285.832C163.682 286.031 163.614 286.203 163.52 286.348C163.422 286.492 163.295 286.605 163.139 286.688C162.987 286.77 162.801 286.811 162.582 286.811C162.227 286.811 161.934 286.709 161.704 286.506C161.477 286.303 161.344 286.016 161.305 285.645H159.7C159.711 286.039 159.799 286.391 159.963 286.699C160.131 287.004 160.348 287.262 160.614 287.473C160.879 287.684 161.182 287.844 161.522 287.953C161.866 288.062 162.221 288.117 162.588 288.117C163.073 288.117 163.493 288.041 163.848 287.889C164.204 287.736 164.498 287.529 164.733 287.268C164.967 287.006 165.141 286.703 165.254 286.359C165.368 286.016 165.424 285.652 165.424 285.27C165.424 284.82 165.366 284.418 165.248 284.062C165.131 283.707 164.963 283.406 164.745 283.16C164.522 282.914 164.248 282.727 163.924 282.598C163.604 282.465 163.239 282.398 162.829 282.398C162.539 282.398 162.284 282.436 162.061 282.51C161.838 282.584 161.666 282.656 161.545 282.727L161.75 280.852H165.143V279.469H160.409L159.922 283.799Z" fill="black"/>
<path d="M141.756 505H144.867C145.336 505 145.758 504.947 146.133 504.842C146.508 504.736 146.826 504.578 147.088 504.367C147.35 504.156 147.551 503.895 147.691 503.582C147.832 503.27 147.902 502.908 147.902 502.498C147.902 502.283 147.873 502.076 147.814 501.877C147.76 501.674 147.674 501.486 147.557 501.314C147.443 501.154 147.303 501.014 147.135 500.893C146.971 500.771 146.748 500.672 146.467 500.594V500.588C146.611 500.533 146.742 500.467 146.859 500.389C146.98 500.311 147.088 500.225 147.182 500.131C147.354 499.959 147.482 499.76 147.568 499.533C147.658 499.303 147.705 499.059 147.709 498.801C147.709 498.402 147.635 498.057 147.486 497.764C147.342 497.471 147.135 497.229 146.865 497.037C146.596 496.846 146.27 496.703 145.887 496.609C145.508 496.516 145.086 496.469 144.621 496.469H141.756V505ZM143.408 501.238H144.943C145.174 501.242 145.373 501.273 145.541 501.332C145.709 501.391 145.846 501.475 145.951 501.584C146.057 501.689 146.133 501.818 146.18 501.971C146.23 502.123 146.256 502.295 146.256 502.486C146.256 502.67 146.223 502.836 146.156 502.984C146.094 503.133 146 503.26 145.875 503.365C145.762 503.459 145.619 503.533 145.447 503.588C145.279 503.643 145.088 503.67 144.873 503.67H143.408V501.238ZM143.408 500.049V497.811H144.627C144.893 497.814 145.123 497.844 145.318 497.898C145.518 497.953 145.676 498.041 145.793 498.162C145.883 498.248 145.949 498.355 145.992 498.484C146.039 498.613 146.062 498.764 146.062 498.936C146.062 499.1 146.035 499.246 145.98 499.375C145.93 499.504 145.855 499.613 145.758 499.703C145.641 499.816 145.486 499.902 145.295 499.961C145.104 500.016 144.883 500.045 144.633 500.049H143.408ZM154.97 505H156.446V498.66H154.812V503.107C154.761 503.209 154.7 503.301 154.63 503.383C154.56 503.465 154.48 503.535 154.39 503.594C154.284 503.66 154.161 503.711 154.021 503.746C153.884 503.781 153.73 503.799 153.558 503.799C153.366 503.799 153.204 503.775 153.071 503.729C152.939 503.682 152.831 503.604 152.749 503.494C152.667 503.389 152.607 503.248 152.568 503.072C152.532 502.896 152.515 502.68 152.515 502.422V498.66H150.886V502.41C150.886 502.891 150.939 503.303 151.044 503.646C151.154 503.986 151.306 504.266 151.501 504.484C151.696 504.707 151.931 504.869 152.204 504.971C152.478 505.072 152.779 505.123 153.107 505.123C153.466 505.123 153.796 505.033 154.097 504.854C154.402 504.674 154.661 504.426 154.876 504.109L154.97 505ZM162.647 503.816C162.385 503.816 162.168 503.764 161.996 503.658C161.829 503.553 161.696 503.412 161.598 503.236C161.496 503.064 161.426 502.865 161.387 502.639C161.348 502.408 161.329 502.17 161.329 501.924V501.748C161.329 501.506 161.348 501.271 161.387 501.045C161.43 500.818 161.502 500.617 161.604 500.441C161.702 500.266 161.834 500.125 162.002 500.02C162.17 499.914 162.383 499.861 162.641 499.861C162.817 499.861 162.979 499.893 163.127 499.955C163.276 500.014 163.403 500.094 163.508 500.195C163.614 500.297 163.694 500.418 163.748 500.559C163.803 500.699 163.827 500.848 163.819 501.004H165.354C165.362 500.629 165.299 500.291 165.166 499.99C165.034 499.686 164.848 499.426 164.61 499.211C164.368 499 164.08 498.836 163.748 498.719C163.416 498.602 163.055 498.543 162.664 498.543C162.176 498.543 161.746 498.627 161.375 498.795C161.008 498.963 160.7 499.191 160.45 499.48C160.2 499.77 160.012 500.109 159.887 500.5C159.762 500.887 159.7 501.303 159.7 501.748V501.924C159.7 502.369 159.762 502.787 159.887 503.178C160.016 503.564 160.205 503.902 160.455 504.191C160.702 504.48 161.01 504.709 161.381 504.877C161.752 505.041 162.184 505.123 162.676 505.123C163.039 505.123 163.383 505.066 163.707 504.953C164.036 504.836 164.323 504.676 164.569 504.473C164.815 504.27 165.008 504.027 165.149 503.746C165.293 503.465 165.362 503.16 165.354 502.832H163.819C163.827 502.98 163.799 503.115 163.737 503.236C163.678 503.357 163.594 503.461 163.485 503.547C163.375 503.633 163.248 503.699 163.104 503.746C162.959 503.793 162.807 503.816 162.647 503.816ZM170.476 499.533V496H168.847V505H170.476V500.424C170.539 500.342 170.607 500.268 170.681 500.201C170.759 500.135 170.845 500.078 170.939 500.031C171.041 499.977 171.154 499.936 171.279 499.908C171.404 499.881 171.539 499.867 171.683 499.867C171.871 499.867 172.039 499.893 172.187 499.943C172.336 499.99 172.462 500.064 172.568 500.166C172.673 500.268 172.754 500.4 172.808 500.564C172.867 500.729 172.896 500.924 172.896 501.15V505H174.525V501.162C174.525 500.697 174.468 500.301 174.355 499.973C174.246 499.641 174.091 499.369 173.892 499.158C173.693 498.947 173.455 498.793 173.177 498.695C172.9 498.594 172.595 498.543 172.263 498.543C172.037 498.543 171.822 498.576 171.619 498.643C171.416 498.709 171.23 498.803 171.062 498.924C170.953 499.002 170.847 499.094 170.746 499.199C170.648 499.301 170.558 499.412 170.476 499.533ZM180.843 497.107H179.214V498.66H177.766V499.861H179.214V502.744C179.214 503.162 179.268 503.521 179.378 503.822C179.487 504.119 179.643 504.363 179.846 504.555C180.046 504.75 180.286 504.895 180.567 504.988C180.852 505.078 181.169 505.123 181.516 505.123C181.696 505.123 181.878 505.113 182.061 505.094C182.249 505.078 182.429 505.055 182.6 505.023C182.772 504.992 182.934 504.953 183.087 504.906C183.239 504.855 183.372 504.797 183.485 504.73L183.327 503.611C183.253 503.631 183.163 503.65 183.057 503.67C182.956 503.689 182.846 503.707 182.729 503.723C182.608 503.742 182.481 503.758 182.348 503.77C182.22 503.781 182.093 503.787 181.968 503.787C181.796 503.787 181.639 503.768 181.499 503.729C181.362 503.689 181.245 503.623 181.147 503.529C181.05 503.439 180.973 503.318 180.919 503.166C180.868 503.01 180.843 502.816 180.843 502.586V499.861H183.21V498.66H180.843V497.107ZM188.49 499.533V496H186.861V505H188.49V500.424C188.553 500.342 188.621 500.268 188.695 500.201C188.773 500.135 188.859 500.078 188.953 500.031C189.055 499.977 189.168 499.936 189.293 499.908C189.418 499.881 189.553 499.867 189.697 499.867C189.885 499.867 190.053 499.893 190.201 499.943C190.35 499.99 190.477 500.064 190.582 500.166C190.688 500.268 190.768 500.4 190.822 500.564C190.881 500.729 190.91 500.924 190.91 501.15V505H192.539V501.162C192.539 500.697 192.482 500.301 192.369 499.973C192.26 499.641 192.105 499.369 191.906 499.158C191.707 498.947 191.469 498.793 191.191 498.695C190.914 498.594 190.609 498.543 190.277 498.543C190.051 498.543 189.836 498.576 189.633 498.643C189.43 498.709 189.244 498.803 189.076 498.924C188.967 499.002 188.861 499.094 188.76 499.199C188.662 499.301 188.572 499.412 188.49 499.533ZM198.945 505.117C199.558 505.117 200.089 504.998 200.538 504.76C200.987 504.521 201.316 504.256 201.523 503.963L200.708 503.084C200.521 503.326 200.277 503.508 199.976 503.629C199.675 503.75 199.364 503.811 199.044 503.811C198.818 503.811 198.609 503.775 198.417 503.705C198.226 503.635 198.056 503.535 197.907 503.406C197.763 503.281 197.648 503.143 197.562 502.99C197.476 502.834 197.405 502.629 197.351 502.375V502.357H201.652V501.666C201.652 501.201 201.587 500.777 201.458 500.395C201.329 500.008 201.142 499.678 200.896 499.404C200.646 499.131 200.341 498.92 199.982 498.771C199.626 498.619 199.22 498.543 198.763 498.543C198.321 498.543 197.913 498.623 197.538 498.783C197.163 498.943 196.839 499.168 196.566 499.457C196.292 499.746 196.079 500.092 195.927 500.494C195.775 500.893 195.698 501.334 195.698 501.818V502.053C195.698 502.479 195.775 502.879 195.927 503.254C196.083 503.625 196.304 503.947 196.589 504.221C196.874 504.498 197.216 504.717 197.614 504.877C198.013 505.037 198.456 505.117 198.945 505.117ZM198.751 499.861C198.958 499.861 199.14 499.895 199.296 499.961C199.456 500.023 199.591 500.109 199.7 500.219C199.81 500.332 199.896 500.465 199.958 500.617C200.021 500.77 200.052 500.932 200.052 501.104V501.232H197.38C197.419 501.025 197.478 500.838 197.556 500.67C197.634 500.502 197.732 500.357 197.849 500.236C197.962 500.115 198.095 500.023 198.247 499.961C198.4 499.895 198.568 499.861 198.751 499.861ZM205.889 498.66H204.489V505H205.971V500.254C205.991 500.203 206.012 500.156 206.036 500.113C206.059 500.07 206.086 500.033 206.118 500.002C206.161 499.959 206.209 499.926 206.264 499.902C206.319 499.879 206.381 499.867 206.452 499.867C206.514 499.867 206.573 499.877 206.627 499.896C206.682 499.912 206.731 499.941 206.774 499.984C206.813 500.027 206.844 500.088 206.868 500.166C206.891 500.244 206.903 500.344 206.903 500.465V505H208.338V500.324C208.338 500.277 208.338 500.24 208.338 500.213C208.338 500.186 208.338 500.168 208.338 500.16C208.358 500.117 208.381 500.08 208.409 500.049C208.436 500.014 208.467 499.982 208.502 499.955C208.545 499.928 208.59 499.906 208.637 499.891C208.688 499.875 208.745 499.867 208.807 499.867C208.866 499.867 208.922 499.877 208.977 499.896C209.036 499.912 209.086 499.941 209.129 499.984C209.172 500.031 209.205 500.094 209.229 500.172C209.256 500.25 209.27 500.35 209.27 500.471V505H210.752V500.477C210.752 500.125 210.717 499.828 210.647 499.586C210.58 499.34 210.487 499.139 210.366 498.982C210.241 498.83 210.094 498.719 209.926 498.648C209.762 498.578 209.584 498.543 209.393 498.543C209.241 498.543 209.1 498.562 208.971 498.602C208.842 498.641 208.727 498.695 208.625 498.766C208.543 498.82 208.467 498.887 208.397 498.965C208.33 499.039 208.27 499.123 208.215 499.217C208.18 499.119 208.137 499.033 208.086 498.959C208.039 498.881 207.983 498.814 207.916 498.76C207.83 498.686 207.729 498.631 207.612 498.596C207.495 498.561 207.362 498.543 207.213 498.543C206.909 498.543 206.649 498.623 206.434 498.783C206.223 498.939 206.057 499.154 205.936 499.428L205.889 498.66ZM216.959 505.117C217.572 505.117 218.103 504.998 218.552 504.76C219.002 504.521 219.33 504.256 219.537 503.963L218.722 503.084C218.535 503.326 218.291 503.508 217.99 503.629C217.689 503.75 217.379 503.811 217.058 503.811C216.832 503.811 216.623 503.775 216.431 503.705C216.24 503.635 216.07 503.535 215.921 503.406C215.777 503.281 215.662 503.143 215.576 502.99C215.49 502.834 215.42 502.629 215.365 502.375V502.357H219.666V501.666C219.666 501.201 219.601 500.777 219.472 500.395C219.343 500.008 219.156 499.678 218.91 499.404C218.66 499.131 218.355 498.92 217.996 498.771C217.64 498.619 217.234 498.543 216.777 498.543C216.336 498.543 215.927 498.623 215.552 498.783C215.177 498.943 214.853 499.168 214.58 499.457C214.306 499.746 214.093 500.092 213.941 500.494C213.789 500.893 213.713 501.334 213.713 501.818V502.053C213.713 502.479 213.789 502.879 213.941 503.254C214.097 503.625 214.318 503.947 214.603 504.221C214.888 504.498 215.23 504.717 215.629 504.877C216.027 505.037 216.47 505.117 216.959 505.117ZM216.765 499.861C216.972 499.861 217.154 499.895 217.31 499.961C217.47 500.023 217.605 500.109 217.714 500.219C217.824 500.332 217.91 500.465 217.972 500.617C218.035 500.77 218.066 500.932 218.066 501.104V501.232H215.394C215.433 501.025 215.492 500.838 215.57 500.67C215.648 500.502 215.746 500.357 215.863 500.236C215.976 500.115 216.109 500.023 216.261 499.961C216.414 499.895 216.582 499.861 216.765 499.861ZM222.889 505H224.524V500.494C224.579 500.408 224.639 500.33 224.706 500.26C224.772 500.189 224.846 500.129 224.929 500.078C225.03 500.008 225.145 499.955 225.274 499.92C225.407 499.885 225.552 499.867 225.708 499.867C225.895 499.867 226.063 499.887 226.212 499.926C226.36 499.961 226.487 500.025 226.593 500.119C226.698 500.213 226.778 500.342 226.833 500.506C226.891 500.666 226.921 500.871 226.921 501.121V505H228.55V501.098C228.55 500.637 228.495 500.246 228.386 499.926C228.28 499.602 228.132 499.336 227.94 499.129C227.745 498.926 227.514 498.777 227.249 498.684C226.983 498.59 226.69 498.543 226.37 498.543C226.12 498.543 225.884 498.578 225.661 498.648C225.438 498.719 225.233 498.82 225.046 498.953C224.936 499.031 224.833 499.119 224.735 499.217C224.637 499.314 224.548 499.422 224.466 499.539L224.366 498.66H222.889V505ZM235.986 503.26C235.986 503.357 235.961 503.447 235.91 503.529C235.863 503.611 235.791 503.684 235.693 503.746C235.592 503.809 235.461 503.859 235.301 503.898C235.145 503.934 234.961 503.951 234.75 503.951C234.574 503.951 234.402 503.934 234.234 503.898C234.07 503.863 233.924 503.807 233.795 503.729C233.666 503.654 233.561 503.557 233.479 503.436C233.396 503.311 233.35 503.162 233.338 502.99H231.785C231.785 503.248 231.848 503.506 231.973 503.764C232.102 504.018 232.289 504.244 232.535 504.443C232.781 504.646 233.086 504.811 233.449 504.936C233.816 505.061 234.238 505.123 234.715 505.123C235.148 505.123 235.541 505.076 235.893 504.982C236.244 504.885 236.545 504.75 236.795 504.578C237.041 504.406 237.23 504.203 237.363 503.969C237.5 503.73 237.568 503.471 237.568 503.189C237.568 502.885 237.5 502.623 237.363 502.404C237.23 502.182 237.045 501.992 236.807 501.836C236.568 501.684 236.285 501.559 235.957 501.461C235.629 501.363 235.273 501.283 234.891 501.221C234.625 501.182 234.406 501.137 234.234 501.086C234.062 501.031 233.928 500.971 233.83 500.904C233.729 500.842 233.658 500.771 233.619 500.693C233.58 500.611 233.561 500.523 233.561 500.43C233.561 500.336 233.582 500.248 233.625 500.166C233.672 500.08 233.738 500.006 233.824 499.943C233.918 499.873 234.039 499.818 234.188 499.779C234.336 499.74 234.51 499.721 234.709 499.721C234.943 499.721 235.143 499.75 235.307 499.809C235.475 499.867 235.607 499.945 235.705 500.043C235.775 500.117 235.828 500.201 235.863 500.295C235.898 500.385 235.916 500.482 235.916 500.588H237.545C237.545 500.295 237.48 500.023 237.352 499.773C237.223 499.523 237.037 499.307 236.795 499.123C236.549 498.943 236.25 498.803 235.898 498.701C235.547 498.596 235.15 498.543 234.709 498.543C234.287 498.543 233.908 498.596 233.572 498.701C233.236 498.807 232.951 498.949 232.717 499.129C232.482 499.309 232.303 499.518 232.178 499.756C232.053 499.994 231.99 500.244 231.99 500.506C231.99 500.775 232.051 501.014 232.172 501.221C232.297 501.428 232.469 501.609 232.688 501.766C232.906 501.926 233.168 502.062 233.473 502.176C233.781 502.285 234.121 502.377 234.492 502.451C234.785 502.506 235.027 502.561 235.219 502.615C235.41 502.67 235.564 502.729 235.682 502.791C235.795 502.857 235.873 502.928 235.916 503.002C235.963 503.076 235.986 503.162 235.986 503.26ZM243.71 503.816C243.448 503.816 243.232 503.764 243.06 503.658C242.892 503.553 242.759 503.412 242.661 503.236C242.56 503.064 242.489 502.865 242.45 502.639C242.411 502.408 242.392 502.17 242.392 501.924V501.748C242.392 501.506 242.411 501.271 242.45 501.045C242.493 500.818 242.566 500.617 242.667 500.441C242.765 500.266 242.898 500.125 243.066 500.02C243.234 499.914 243.446 499.861 243.704 499.861C243.88 499.861 244.042 499.893 244.191 499.955C244.339 500.014 244.466 500.094 244.571 500.195C244.677 500.297 244.757 500.418 244.812 500.559C244.866 500.699 244.89 500.848 244.882 501.004H246.417C246.425 500.629 246.363 500.291 246.23 499.99C246.097 499.686 245.911 499.426 245.673 499.211C245.431 499 245.144 498.836 244.812 498.719C244.48 498.602 244.118 498.543 243.728 498.543C243.239 498.543 242.81 498.627 242.439 498.795C242.071 498.963 241.763 499.191 241.513 499.48C241.263 499.77 241.075 500.109 240.95 500.5C240.825 500.887 240.763 501.303 240.763 501.748V501.924C240.763 502.369 240.825 502.787 240.95 503.178C241.079 503.564 241.269 503.902 241.519 504.191C241.765 504.48 242.073 504.709 242.445 504.877C242.816 505.041 243.247 505.123 243.739 505.123C244.103 505.123 244.446 505.066 244.771 504.953C245.099 504.836 245.386 504.676 245.632 504.473C245.878 504.27 246.071 504.027 246.212 503.746C246.357 503.465 246.425 503.16 246.417 502.832H244.882C244.89 502.98 244.863 503.115 244.8 503.236C244.741 503.357 244.657 503.461 244.548 503.547C244.439 503.633 244.312 503.699 244.167 503.746C244.023 503.793 243.87 503.816 243.71 503.816ZM251.539 499.533V496H249.911V505H251.539V500.424C251.602 500.342 251.67 500.268 251.745 500.201C251.823 500.135 251.909 500.078 252.002 500.031C252.104 499.977 252.217 499.936 252.342 499.908C252.467 499.881 252.602 499.867 252.746 499.867C252.934 499.867 253.102 499.893 253.25 499.943C253.399 499.99 253.526 500.064 253.631 500.166C253.737 500.268 253.817 500.4 253.871 500.564C253.93 500.729 253.959 500.924 253.959 501.15V505H255.588V501.162C255.588 500.697 255.532 500.301 255.418 499.973C255.309 499.641 255.155 499.369 254.955 499.158C254.756 498.947 254.518 498.793 254.241 498.695C253.963 498.594 253.659 498.543 253.327 498.543C253.1 498.543 252.885 498.576 252.682 498.643C252.479 498.709 252.293 498.803 252.125 498.924C252.016 499.002 251.911 499.094 251.809 499.199C251.711 499.301 251.621 499.412 251.539 499.533ZM263.47 498.543C263.045 498.543 262.652 498.646 262.293 498.854C261.933 499.057 261.625 499.338 261.367 499.697L261.355 499.557L261.291 498.66H259.773V505H261.402V501.191C261.476 501.012 261.57 500.855 261.683 500.723C261.796 500.59 261.933 500.48 262.093 500.395C262.226 500.32 262.377 500.266 262.545 500.23C262.716 500.191 262.908 500.172 263.119 500.172C263.322 500.172 263.535 500.186 263.757 500.213C263.984 500.236 264.205 500.273 264.42 500.324L264.66 498.701C264.531 498.662 264.361 498.627 264.15 498.596C263.943 498.561 263.716 498.543 263.47 498.543ZM268.358 498.66V499.99H270.163V503.676H268.358V505H273.526V503.676H271.809V498.66H268.358ZM270.046 497.037C270.046 497.162 270.067 497.279 270.11 497.389C270.157 497.494 270.221 497.584 270.304 497.658C270.386 497.736 270.483 497.797 270.596 497.84C270.714 497.883 270.843 497.904 270.983 497.904C271.272 497.904 271.501 497.824 271.669 497.664C271.841 497.5 271.927 497.291 271.927 497.037C271.927 496.783 271.841 496.576 271.669 496.416C271.501 496.252 271.272 496.17 270.983 496.17C270.843 496.17 270.714 496.191 270.596 496.234C270.483 496.277 270.386 496.336 270.304 496.41C270.221 496.488 270.157 496.582 270.11 496.691C270.067 496.797 270.046 496.912 270.046 497.037ZM278.508 505H280.143V499.861H282.428V498.66H280.143V498.314C280.143 498.127 280.166 497.959 280.213 497.811C280.264 497.662 280.34 497.537 280.441 497.436C280.555 497.314 280.707 497.223 280.898 497.16C281.09 497.098 281.322 497.066 281.596 497.066C281.85 497.066 282.07 497.078 282.258 497.102C282.445 497.125 282.613 497.152 282.762 497.184L282.867 495.906C282.734 495.883 282.605 495.861 282.48 495.842C282.359 495.822 282.238 495.805 282.117 495.789C281.996 495.773 281.871 495.762 281.742 495.754C281.617 495.742 281.486 495.736 281.35 495.736C280.916 495.736 280.523 495.793 280.172 495.906C279.82 496.016 279.521 496.18 279.275 496.398C279.029 496.617 278.84 496.887 278.707 497.207C278.574 497.527 278.508 497.896 278.508 498.314V498.66H276.844V499.861H278.508V505ZM288.927 497.107H287.298V498.66H285.851V499.861H287.298V502.744C287.298 503.162 287.353 503.521 287.462 503.822C287.571 504.119 287.728 504.363 287.931 504.555C288.13 504.75 288.37 504.895 288.652 504.988C288.937 505.078 289.253 505.123 289.601 505.123C289.78 505.123 289.962 505.113 290.146 505.094C290.333 505.078 290.513 505.055 290.685 505.023C290.857 504.992 291.019 504.953 291.171 504.906C291.323 504.855 291.456 504.797 291.57 504.73L291.411 503.611C291.337 503.631 291.247 503.65 291.142 503.67C291.04 503.689 290.931 503.707 290.814 503.723C290.693 503.742 290.566 503.758 290.433 503.77C290.304 503.781 290.177 503.787 290.052 503.787C289.88 503.787 289.724 503.768 289.583 503.729C289.446 503.689 289.329 503.623 289.232 503.529C289.134 503.439 289.058 503.318 289.003 503.166C288.952 503.01 288.927 502.816 288.927 502.586V499.861H291.294V498.66H288.927V497.107ZM143.402 559H145.037V553.861H147.322V552.66H145.037V552.314C145.037 552.127 145.061 551.959 145.107 551.811C145.158 551.662 145.234 551.537 145.336 551.436C145.449 551.314 145.602 551.223 145.793 551.16C145.984 551.098 146.217 551.066 146.49 551.066C146.744 551.066 146.965 551.078 147.152 551.102C147.34 551.125 147.508 551.152 147.656 551.184L147.762 549.906C147.629 549.883 147.5 549.861 147.375 549.842C147.254 549.822 147.133 549.805 147.012 549.789C146.891 549.773 146.766 549.762 146.637 549.754C146.512 549.742 146.381 549.736 146.244 549.736C145.811 549.736 145.418 549.793 145.066 549.906C144.715 550.016 144.416 550.18 144.17 550.398C143.924 550.617 143.734 550.887 143.602 551.207C143.469 551.527 143.402 551.896 143.402 552.314V552.66H141.738V553.861H143.402V559ZM151.302 559H152.732L153.405 555.613L153.534 554.969L153.669 555.613L154.366 559H155.796L156.933 552.66H155.439L154.97 556.398L154.888 557.014L154.777 556.41L154.091 552.66H153.001L152.316 556.428L152.204 557.031L152.128 556.428L151.654 552.66H150.165L151.302 559ZM174.56 555.895V555.771C174.56 555.389 174.525 555.029 174.455 554.693C174.388 554.357 174.285 554.055 174.144 553.785C174.054 553.617 173.951 553.463 173.834 553.322C173.716 553.178 173.586 553.055 173.441 552.953C173.261 552.82 173.056 552.719 172.826 552.648C172.599 552.578 172.349 552.543 172.076 552.543C171.877 552.543 171.691 552.564 171.519 552.607C171.351 552.646 171.195 552.707 171.05 552.789C170.949 552.844 170.853 552.91 170.763 552.988C170.673 553.062 170.589 553.145 170.511 553.234V550H168.882V559H170.347L170.423 558.326C170.49 558.412 170.56 558.492 170.634 558.566C170.709 558.637 170.789 558.701 170.875 558.76C171.035 558.877 171.214 558.965 171.414 559.023C171.617 559.086 171.841 559.117 172.087 559.117C172.357 559.117 172.603 559.082 172.826 559.012C173.052 558.945 173.255 558.848 173.435 558.719C173.634 558.582 173.806 558.41 173.951 558.203C174.099 557.996 174.218 557.766 174.308 557.512C174.39 557.281 174.453 557.031 174.496 556.762C174.539 556.488 174.56 556.199 174.56 555.895ZM172.931 555.771V555.895C172.931 556.059 172.923 556.217 172.908 556.369C172.896 556.521 172.875 556.662 172.843 556.791C172.804 556.967 172.746 557.125 172.668 557.266C172.593 557.402 172.496 557.514 172.375 557.6C172.289 557.662 172.187 557.711 172.07 557.746C171.953 557.781 171.822 557.799 171.677 557.799C171.509 557.799 171.359 557.779 171.226 557.74C171.097 557.701 170.984 557.645 170.886 557.57C170.804 557.512 170.732 557.443 170.67 557.365C170.611 557.283 170.558 557.193 170.511 557.096V554.57C170.546 554.496 170.586 554.428 170.629 554.365C170.671 554.299 170.718 554.24 170.769 554.189C170.875 554.084 171.002 554.004 171.15 553.949C171.298 553.895 171.47 553.867 171.666 553.867C171.81 553.867 171.939 553.885 172.052 553.92C172.166 553.951 172.267 554 172.357 554.066C172.494 554.172 172.595 554.289 172.662 554.418C172.732 554.543 172.789 554.686 172.832 554.846C172.867 554.982 172.892 555.129 172.908 555.285C172.923 555.441 172.931 555.604 172.931 555.771ZM177.632 555.771V555.895C177.632 556.359 177.698 556.789 177.831 557.184C177.964 557.574 178.159 557.914 178.417 558.203C178.671 558.492 178.983 558.719 179.354 558.883C179.729 559.043 180.155 559.123 180.632 559.123C181.104 559.123 181.526 559.043 181.897 558.883C182.268 558.719 182.581 558.492 182.835 558.203C183.089 557.914 183.282 557.574 183.415 557.184C183.548 556.789 183.614 556.359 183.614 555.895V555.771C183.614 555.311 183.548 554.885 183.415 554.494C183.282 554.1 183.089 553.758 182.835 553.469C182.577 553.18 182.263 552.953 181.891 552.789C181.52 552.625 181.096 552.543 180.62 552.543C180.143 552.543 179.72 552.625 179.348 552.789C178.981 552.953 178.671 553.18 178.417 553.469C178.159 553.758 177.964 554.1 177.831 554.494C177.698 554.885 177.632 555.311 177.632 555.771ZM179.261 555.895V555.771C179.261 555.514 179.286 555.27 179.337 555.039C179.388 554.809 179.468 554.605 179.577 554.43C179.686 554.254 179.827 554.115 179.999 554.014C180.171 553.912 180.378 553.861 180.62 553.861C180.866 553.861 181.075 553.912 181.247 554.014C181.419 554.115 181.559 554.254 181.669 554.43C181.774 554.605 181.852 554.809 181.903 555.039C181.954 555.27 181.979 555.514 181.979 555.771V555.895C181.979 556.16 181.954 556.41 181.903 556.645C181.852 556.875 181.774 557.076 181.669 557.248C181.559 557.424 181.419 557.562 181.247 557.664C181.075 557.766 180.87 557.816 180.632 557.816C180.386 557.816 180.175 557.766 179.999 557.664C179.827 557.562 179.686 557.424 179.577 557.248C179.468 557.076 179.388 556.875 179.337 556.645C179.286 556.41 179.261 556.16 179.261 555.895ZM187.201 550V551.33H189.1V557.676H187.201V559H192.562V557.676H190.746V550H187.201ZM195.698 555.783V555.906C195.698 556.367 195.755 556.795 195.868 557.189C195.982 557.58 196.146 557.918 196.361 558.203C196.571 558.488 196.829 558.713 197.134 558.877C197.443 559.037 197.79 559.117 198.177 559.117C198.532 559.117 198.845 559.049 199.114 558.912C199.384 558.775 199.618 558.584 199.818 558.338L199.9 559H201.37V550H199.736V553.229C199.54 553.01 199.316 552.842 199.062 552.725C198.812 552.604 198.521 552.543 198.189 552.543C197.794 552.543 197.443 552.621 197.134 552.777C196.829 552.934 196.57 553.154 196.355 553.439C196.14 553.725 195.976 554.066 195.862 554.465C195.753 554.863 195.698 555.303 195.698 555.783ZM197.327 555.906V555.783C197.327 555.518 197.351 555.27 197.398 555.039C197.445 554.805 197.519 554.6 197.62 554.424C197.722 554.252 197.853 554.117 198.013 554.02C198.177 553.918 198.374 553.867 198.605 553.867C198.882 553.867 199.112 553.928 199.296 554.049C199.48 554.166 199.626 554.332 199.736 554.547V557.113C199.626 557.324 199.478 557.49 199.29 557.611C199.107 557.732 198.874 557.793 198.593 557.793C198.362 557.793 198.167 557.744 198.007 557.646C197.847 557.549 197.716 557.414 197.614 557.242C197.513 557.074 197.439 556.877 197.392 556.65C197.349 556.42 197.327 556.172 197.327 555.906ZM147.404 613V611.693H143.66L145.266 609.994C145.543 609.709 145.795 609.438 146.021 609.18C146.248 608.918 146.443 608.662 146.607 608.412C146.768 608.162 146.891 607.91 146.977 607.656C147.066 607.398 147.111 607.129 147.111 606.848C147.111 606.477 147.053 606.139 146.936 605.834C146.818 605.525 146.648 605.262 146.426 605.043C146.199 604.824 145.918 604.654 145.582 604.533C145.25 604.412 144.867 604.352 144.434 604.352C143.98 604.352 143.566 604.426 143.191 604.574C142.82 604.719 142.504 604.918 142.242 605.172C141.977 605.426 141.771 605.723 141.627 606.062C141.482 606.398 141.41 606.756 141.41 607.135H143.045C143.045 606.904 143.074 606.699 143.133 606.52C143.191 606.34 143.277 606.189 143.391 606.068C143.5 605.951 143.637 605.863 143.801 605.805C143.969 605.742 144.162 605.711 144.381 605.711C144.549 605.711 144.701 605.738 144.838 605.793C144.979 605.848 145.1 605.926 145.201 606.027C145.299 606.133 145.375 606.26 145.43 606.408C145.484 606.557 145.512 606.727 145.512 606.918C145.512 607.047 145.49 607.18 145.447 607.316C145.408 607.453 145.344 607.6 145.254 607.756C145.16 607.916 145.039 608.092 144.891 608.283C144.742 608.475 144.561 608.688 144.346 608.922L141.586 611.887V613H147.404ZM156.411 613V611.693H152.667L154.273 609.994C154.55 609.709 154.802 609.438 155.029 609.18C155.255 608.918 155.45 608.662 155.614 608.412C155.775 608.162 155.898 607.91 155.984 607.656C156.073 607.398 156.118 607.129 156.118 606.848C156.118 606.477 156.06 606.139 155.943 605.834C155.825 605.525 155.655 605.262 155.433 605.043C155.206 604.824 154.925 604.654 154.589 604.533C154.257 604.412 153.874 604.352 153.441 604.352C152.988 604.352 152.573 604.426 152.198 604.574C151.827 604.719 151.511 604.918 151.249 605.172C150.984 605.426 150.779 605.723 150.634 606.062C150.489 606.398 150.417 606.756 150.417 607.135H152.052C152.052 606.904 152.081 606.699 152.14 606.52C152.198 606.34 152.284 606.189 152.398 606.068C152.507 605.951 152.644 605.863 152.808 605.805C152.976 605.742 153.169 605.711 153.388 605.711C153.556 605.711 153.708 605.738 153.845 605.793C153.986 605.848 154.107 605.926 154.208 606.027C154.306 606.133 154.382 606.26 154.437 606.408C154.491 606.557 154.519 606.727 154.519 606.918C154.519 607.047 154.497 607.18 154.454 607.316C154.415 607.453 154.351 607.6 154.261 607.756C154.167 607.916 154.046 608.092 153.898 608.283C153.749 608.475 153.568 608.688 153.353 608.922L150.593 611.887V613H156.411ZM159.922 608.799L161.223 609.121C161.286 609.059 161.352 609 161.422 608.945C161.493 608.887 161.573 608.836 161.663 608.793C161.752 608.75 161.856 608.715 161.973 608.688C162.09 608.66 162.229 608.646 162.389 608.646C162.627 608.646 162.834 608.684 163.01 608.758C163.186 608.832 163.332 608.938 163.45 609.074C163.567 609.211 163.653 609.375 163.707 609.566C163.766 609.754 163.795 609.961 163.795 610.188C163.795 610.418 163.772 610.633 163.725 610.832C163.682 611.031 163.614 611.203 163.52 611.348C163.422 611.492 163.295 611.605 163.139 611.688C162.987 611.77 162.801 611.811 162.582 611.811C162.227 611.811 161.934 611.709 161.704 611.506C161.477 611.303 161.344 611.016 161.305 610.645H159.7C159.711 611.039 159.799 611.391 159.963 611.699C160.131 612.004 160.348 612.262 160.614 612.473C160.879 612.684 161.182 612.844 161.522 612.953C161.866 613.062 162.221 613.117 162.588 613.117C163.073 613.117 163.493 613.041 163.848 612.889C164.204 612.736 164.498 612.529 164.733 612.268C164.967 612.006 165.141 611.703 165.254 611.359C165.368 611.016 165.424 610.652 165.424 610.27C165.424 609.82 165.366 609.418 165.248 609.062C165.131 608.707 164.963 608.406 164.745 608.16C164.522 607.914 164.248 607.727 163.924 607.598C163.604 607.465 163.239 607.398 162.829 607.398C162.539 607.398 162.284 607.436 162.061 607.51C161.838 607.584 161.666 607.656 161.545 607.727L161.75 605.852H165.143V604.469H160.409L159.922 608.799Z" fill="black"/>
<g filter="url(#filter1_i_896_252)">
<path d="M369.464 525H383.725C385.873 525 387.807 524.758 389.525 524.275C391.244 523.792 392.703 523.066 393.903 522.1C395.102 521.133 396.024 519.933 396.669 518.501C397.313 517.069 397.636 515.413 397.636 513.533C397.636 512.548 397.501 511.599 397.233 510.686C396.982 509.755 396.588 508.896 396.051 508.108C395.532 507.374 394.888 506.729 394.118 506.174C393.366 505.619 392.345 505.163 391.056 504.805V504.778C391.719 504.527 392.318 504.223 392.855 503.865C393.41 503.507 393.903 503.113 394.333 502.683C395.12 501.895 395.711 500.982 396.105 499.944C396.517 498.888 396.732 497.769 396.75 496.587C396.75 494.761 396.409 493.176 395.729 491.833C395.067 490.491 394.118 489.381 392.882 488.503C391.647 487.626 390.152 486.973 388.397 486.543C386.661 486.113 384.727 485.898 382.597 485.898H369.464V525ZM377.038 507.759H384.074C385.13 507.777 386.043 507.92 386.813 508.188C387.583 508.457 388.209 508.842 388.693 509.343C389.176 509.827 389.525 510.417 389.74 511.116C389.973 511.814 390.089 512.602 390.089 513.479C390.089 514.32 389.937 515.081 389.633 515.762C389.346 516.442 388.917 517.024 388.344 517.507C387.825 517.937 387.171 518.277 386.383 518.528C385.613 518.778 384.736 518.904 383.751 518.904H377.038V507.759ZM377.038 502.307V492.048H382.624C383.841 492.066 384.897 492.201 385.792 492.451C386.706 492.702 387.431 493.105 387.968 493.66C388.38 494.054 388.684 494.546 388.881 495.137C389.096 495.728 389.203 496.417 389.203 497.205C389.203 497.957 389.078 498.628 388.827 499.219C388.594 499.81 388.254 500.311 387.807 500.723C387.27 501.242 386.562 501.636 385.685 501.904C384.808 502.155 383.796 502.289 382.65 502.307H377.038ZM436.85 485.898H429.357L429.331 511.814C429.313 513.085 429.178 514.204 428.928 515.171C428.677 516.138 428.301 516.943 427.8 517.588C427.334 518.215 426.743 518.689 426.027 519.011C425.329 519.316 424.523 519.468 423.61 519.468C422.769 519.468 422.026 519.325 421.381 519.038C420.737 518.734 420.191 518.286 419.743 517.695C419.26 517.051 418.893 516.236 418.642 515.251C418.409 514.267 418.284 513.121 418.266 511.814L418.239 485.898H410.693L410.666 511.814C410.666 513.998 410.97 515.95 411.579 517.668C412.206 519.369 413.083 520.802 414.211 521.965C415.339 523.129 416.691 524.015 418.266 524.624C419.86 525.233 421.641 525.537 423.61 525.537C425.705 525.537 427.567 525.233 429.196 524.624C430.843 524.015 432.24 523.12 433.386 521.938C434.514 520.775 435.373 519.342 435.964 517.642C436.573 515.941 436.877 513.998 436.877 511.814L436.85 485.898ZM479.233 512.754H471.687C471.615 513.936 471.418 514.947 471.096 515.789C470.774 516.63 470.335 517.319 469.78 517.856C469.225 518.394 468.554 518.787 467.766 519.038C466.978 519.289 466.092 519.414 465.107 519.414C464.373 519.414 463.702 519.333 463.093 519.172C462.502 518.993 461.965 518.725 461.482 518.367C461.034 518.044 460.632 517.642 460.273 517.158C459.933 516.675 459.638 516.12 459.387 515.493C459.029 514.58 458.761 513.515 458.582 512.297C458.42 511.062 458.34 509.666 458.34 508.108V502.791C458.34 501.645 458.394 500.579 458.501 499.595C458.608 498.592 458.778 497.679 459.011 496.855C459.316 495.799 459.718 494.877 460.22 494.089C460.739 493.284 461.366 492.666 462.1 492.236C462.529 491.986 462.995 491.798 463.496 491.672C464.015 491.547 464.57 491.484 465.161 491.484C466.271 491.484 467.22 491.637 468.008 491.941C468.813 492.227 469.485 492.657 470.022 493.23C470.541 493.821 470.935 494.555 471.204 495.432C471.49 496.309 471.669 497.33 471.741 498.494H479.26C479.081 496.453 478.652 494.618 477.971 492.988C477.291 491.359 476.36 489.98 475.178 488.853C473.997 487.725 472.564 486.856 470.881 486.248C469.216 485.639 467.31 485.334 465.161 485.334C463.711 485.334 462.35 485.522 461.079 485.898C459.826 486.257 458.671 486.776 457.615 487.456C456.433 488.262 455.377 489.246 454.446 490.41C453.515 491.574 452.763 492.899 452.19 494.385C451.689 495.602 451.313 496.927 451.062 498.359C450.811 499.774 450.686 501.269 450.686 502.844V508.108C450.686 509.791 450.82 511.384 451.089 512.888C451.375 514.392 451.778 515.771 452.297 517.024C452.834 518.277 453.488 519.423 454.258 520.461C455.046 521.5 455.941 522.386 456.943 523.12C458.035 523.908 459.262 524.517 460.623 524.946C462.001 525.358 463.496 525.564 465.107 525.564C467.148 525.564 469.01 525.269 470.693 524.678C472.376 524.069 473.826 523.21 475.044 522.1C476.261 520.99 477.228 519.647 477.944 518.071C478.678 516.496 479.108 514.723 479.233 512.754ZM519.173 525V485.898H511.707V501.931H500.643V485.898H493.15V525H500.643V508.054H511.707V525H519.173ZM563.382 492.048V485.898H531.854V492.048H543.751V525H551.324V492.048H563.382ZM601.737 525V485.898H594.271V501.931H583.207V485.898H575.714V525H583.207V508.054H594.271V525H601.737ZM641.274 507.866V501.904H625.214V492.048H643.906V485.898H617.641V525H643.986V518.904H625.214V507.866H641.274ZM667.759 485.898H658.386V525H665.315V513.425L664.993 495.862L669.585 512.109H673.318L678.447 495.137L678.125 513.425V525H685.054V485.898H675.681L671.465 500.588L667.759 485.898ZM723.838 507.866V501.904H707.779V492.048H726.47V485.898H700.206V525H726.551V518.904H707.779V507.866H723.838ZM766.839 525V485.898H759.266L759.239 511.008L748.443 485.898H740.843V525H748.443V499.783L759.32 525H766.839Z" fill="#DBE2E6"/>
</g>
<defs>
<filter id="filter0_i_896_252" x="371.172" y="147.732" width="614.444" height="167.575" filterUnits="userSpaceOnUse" color-interpolation-filters="sRGB">
<feFlood flood-opacity="0" result="BackgroundImageFix"/>
<feBlend mode="normal" in="SourceGraphic" in2="BackgroundImageFix" result="shape"/>
<feColorMatrix in="SourceAlpha" type="matrix" values="0 0 0 0 0 0 0 0 0 0 0 0 0 0 0 0 0 0 127 0" result="hardAlpha"/>
<feOffset dx="2" dy="3"/>
<feGaussianBlur stdDeviation="5.5"/>
<feComposite in2="hardAlpha" operator="arithmetic" k2="-1" k3="1"/>
<feColorMatrix type="matrix" values="0 0 0 0 0.723333 0 0 0 0 0.755625 0 0 0 0 0.775 0 0 0 1 0"/>
<feBlend mode="normal" in2="shape" result="effect1_innerShadow_896_252"/>
</filter>
<filter id="filter1_i_896_252" x="369.464" y="485.334" width="399.375" height="43.2295" filterUnits="userSpaceOnUse" color-interpolation-filters="sRGB">
<feFlood flood-opacity="0" result="BackgroundImageFix"/>
<feBlend mode="normal" in="SourceGraphic" in2="BackgroundImageFix" result="shape"/>
<feColorMatrix in="SourceAlpha" type="matrix" values="0 0 0 0 0 0 0 0 0 0 0 0 0 0 0 0 0 0 127 0" result="hardAlpha"/>
<feOffset dx="2" dy="3"/>
<feGaussianBlur stdDeviation="5.5"/>
<feComposite in2="hardAlpha" operator="arithmetic" k2="-1" k3="1"/>
<feColorMatrix type="matrix" values="0 0 0 0 0.723333 0 0 0 0 0.755625 0 0 0 0 0.775 0 0 0 1 0"/>
<feBlend mode="normal" in2="shape" result="effect1_innerShadow_896_252"/>
</filter>
</defs>
</svg>
