<svg width="1440" height="1024" viewBox="0 0 1440 1024" fill="none" xmlns="http://www.w3.org/2000/svg">
<rect width="1440" height="1024" fill="white"/>
<mask id="mask0_2_587" style="mask-type:alpha" maskUnits="userSpaceOnUse" x="377" y="791" width="14" height="14">
<rect x="377" y="791" width="14" height="14" fill="#C4C4C4"/>
</mask>
<g mask="url(#mask0_2_587)">
<rect x="377" y="791" width="69.1026" height="64.4359" fill="#0094FF" fill-opacity="0.2"/>
</g>
<mask id="mask1_2_587" style="mask-type:alpha" maskUnits="userSpaceOnUse" x="377" y="592" width="45" height="45">
<rect x="377" y="592" width="45" height="45" fill="#C4C4C4"/>
</mask>
<g mask="url(#mask1_2_587)">
<rect x="377" y="592" width="222.115" height="207.115" fill="#0094FF" fill-opacity="0.2"/>
</g>
<mask id="mask2_2_587" style="mask-type:alpha" maskUnits="userSpaceOnUse" x="377" y="657" width="30" height="30">
<rect x="377" y="657" width="30" height="30" fill="#C4C4C4"/>
</mask>
<g mask="url(#mask2_2_587)">
<rect x="377" y="657" width="148.077" height="138.077" fill="#0094FF" fill-opacity="0.2"/>
</g>
<mask id="mask3_2_587" style="mask-type:alpha" maskUnits="userSpaceOnUse" x="377" y="751" width="20" height="20">
<rect x="377" y="751" width="20" height="20" fill="#C4C4C4"/>
</mask>
<g mask="url(#mask3_2_587)">
<rect x="377" y="751" width="98.7179" height="92.0513" fill="#0094FF" fill-opacity="0.2"/>
</g>
<mask id="mask4_2_587" style="mask-type:alpha" maskUnits="userSpaceOnUse" x="377" y="707" width="24" height="24">
<rect x="377" y="707" width="24" height="24" fill="#C4C4C4"/>
</mask>
<g mask="url(#mask4_2_587)">
<rect x="377" y="707" width="118.462" height="110.462" fill="#0094FF" fill-opacity="0.2"/>
</g>
<path d="M329.818 796.604L331.438 799.297L333.079 796.604H334.562L332.143 800.254L334.638 804H333.175L331.466 801.225L329.757 804H328.287L330.775 800.254L328.362 796.604H329.818ZM340.356 802.038C340.356 801.856 340.315 801.687 340.233 801.532C340.155 801.373 339.994 801.229 339.747 801.102C339.506 800.969 339.141 800.855 338.654 800.76C338.244 800.673 337.872 800.571 337.539 800.452C337.211 800.334 336.931 800.19 336.699 800.021C336.471 799.853 336.295 799.655 336.172 799.427C336.049 799.199 335.988 798.932 335.988 798.627C335.988 798.335 336.051 798.06 336.179 797.8C336.311 797.54 336.496 797.31 336.733 797.109C336.974 796.909 337.264 796.752 337.601 796.638C337.938 796.524 338.314 796.467 338.729 796.467C339.321 796.467 339.827 796.572 340.246 796.781C340.666 796.991 340.987 797.271 341.21 797.622C341.434 797.968 341.545 798.354 341.545 798.777H340.281C340.281 798.572 340.219 798.374 340.096 798.183C339.978 797.987 339.802 797.825 339.57 797.697C339.342 797.57 339.062 797.506 338.729 797.506C338.378 797.506 338.093 797.561 337.874 797.67C337.66 797.775 337.503 797.909 337.403 798.073C337.307 798.237 337.259 798.41 337.259 798.593C337.259 798.729 337.282 798.853 337.327 798.962C337.378 799.067 337.464 799.165 337.587 799.256C337.71 799.342 337.883 799.424 338.107 799.502C338.33 799.579 338.615 799.657 338.961 799.734C339.567 799.871 340.066 800.035 340.458 800.227C340.85 800.418 341.142 800.653 341.333 800.931C341.525 801.209 341.62 801.546 341.62 801.942C341.62 802.266 341.552 802.562 341.415 802.831C341.283 803.1 341.09 803.332 340.834 803.528C340.584 803.72 340.283 803.87 339.932 803.979C339.586 804.084 339.196 804.137 338.763 804.137C338.111 804.137 337.56 804.021 337.109 803.788C336.658 803.556 336.316 803.255 336.083 802.886C335.851 802.517 335.735 802.127 335.735 801.717H337.006C337.024 802.063 337.125 802.339 337.307 802.544C337.489 802.744 337.713 802.888 337.977 802.975C338.241 803.057 338.503 803.098 338.763 803.098C339.109 803.098 339.399 803.052 339.631 802.961C339.868 802.87 340.048 802.744 340.171 802.585C340.294 802.425 340.356 802.243 340.356 802.038ZM351.054 793.992V804H349.789V795.571L347.239 796.501V795.359L350.856 793.992H351.054ZM361.639 800.65V801.689H354.448V800.944L358.905 794.047H359.937L358.83 796.043L355.883 800.65H361.639ZM360.251 794.047V804H358.987V794.047H360.251Z" fill="black"/>
<path d="M330.529 768.197C330.529 767.937 330.471 767.696 330.354 767.475C330.243 767.247 330.012 767.042 329.66 766.859C329.315 766.671 328.794 766.508 328.098 766.371C327.512 766.247 326.981 766.101 326.506 765.932C326.037 765.762 325.637 765.557 325.305 765.316C324.979 765.076 324.729 764.792 324.553 764.467C324.377 764.141 324.289 763.76 324.289 763.324C324.289 762.908 324.38 762.514 324.562 762.143C324.751 761.771 325.015 761.443 325.354 761.156C325.699 760.87 326.112 760.645 326.594 760.482C327.076 760.32 327.613 760.238 328.205 760.238C329.051 760.238 329.774 760.388 330.373 760.688C330.972 760.987 331.431 761.387 331.75 761.889C332.069 762.383 332.229 762.934 332.229 763.539H330.422C330.422 763.246 330.334 762.963 330.158 762.689C329.989 762.41 329.738 762.178 329.406 761.996C329.081 761.814 328.68 761.723 328.205 761.723C327.704 761.723 327.297 761.801 326.984 761.957C326.678 762.107 326.454 762.299 326.311 762.533C326.174 762.768 326.105 763.015 326.105 763.275C326.105 763.471 326.138 763.646 326.203 763.803C326.275 763.952 326.398 764.092 326.574 764.223C326.75 764.346 326.997 764.464 327.316 764.574C327.635 764.685 328.042 764.796 328.537 764.906C329.403 765.102 330.116 765.336 330.676 765.609C331.236 765.883 331.652 766.218 331.926 766.615C332.199 767.012 332.336 767.494 332.336 768.061C332.336 768.523 332.238 768.946 332.043 769.33C331.854 769.714 331.577 770.046 331.213 770.326C330.855 770.6 330.425 770.814 329.924 770.971C329.429 771.12 328.872 771.195 328.254 771.195C327.323 771.195 326.535 771.029 325.891 770.697C325.246 770.365 324.758 769.936 324.426 769.408C324.094 768.881 323.928 768.324 323.928 767.738H325.744C325.77 768.233 325.913 768.627 326.174 768.92C326.434 769.206 326.753 769.411 327.131 769.535C327.508 769.652 327.883 769.711 328.254 769.711C328.749 769.711 329.162 769.646 329.494 769.516C329.833 769.385 330.09 769.206 330.266 768.979C330.441 768.751 330.529 768.49 330.529 768.197ZM349.191 769.516V771H339.884V769.701L344.543 764.516C345.115 763.878 345.558 763.337 345.871 762.895C346.19 762.445 346.411 762.045 346.535 761.693C346.665 761.335 346.73 760.971 346.73 760.6C346.73 760.131 346.632 759.708 346.437 759.33C346.248 758.946 345.968 758.64 345.597 758.412C345.226 758.184 344.777 758.07 344.25 758.07C343.618 758.07 343.091 758.194 342.668 758.441C342.251 758.682 341.938 759.021 341.73 759.457C341.522 759.893 341.418 760.395 341.418 760.961H339.611C339.611 760.16 339.787 759.428 340.138 758.764C340.49 758.1 341.011 757.572 341.701 757.182C342.391 756.785 343.24 756.586 344.25 756.586C345.148 756.586 345.916 756.745 346.554 757.064C347.192 757.377 347.681 757.82 348.019 758.393C348.364 758.959 348.537 759.623 348.537 760.385C348.537 760.801 348.465 761.225 348.322 761.654C348.185 762.077 347.993 762.501 347.746 762.924C347.505 763.347 347.222 763.764 346.896 764.174C346.577 764.584 346.235 764.988 345.871 765.385L342.062 769.516H349.191ZM360.25 762.758V764.926C360.25 766.091 360.146 767.074 359.938 767.875C359.73 768.676 359.43 769.32 359.039 769.809C358.649 770.297 358.177 770.652 357.623 770.873C357.077 771.088 356.458 771.195 355.768 771.195C355.221 771.195 354.717 771.127 354.254 770.99C353.792 770.854 353.375 770.635 353.004 770.336C352.64 770.03 352.327 769.633 352.067 769.145C351.806 768.656 351.608 768.064 351.471 767.367C351.334 766.671 351.266 765.857 351.266 764.926V762.758C351.266 761.592 351.37 760.616 351.579 759.828C351.793 759.04 352.096 758.409 352.487 757.934C352.877 757.452 353.346 757.107 353.893 756.898C354.446 756.69 355.065 756.586 355.748 756.586C356.302 756.586 356.81 756.654 357.272 756.791C357.741 756.921 358.157 757.133 358.522 757.426C358.886 757.712 359.196 758.096 359.45 758.578C359.71 759.053 359.909 759.636 360.045 760.326C360.182 761.016 360.25 761.827 360.25 762.758ZM358.434 765.219V762.455C358.434 761.817 358.395 761.257 358.317 760.775C358.245 760.287 358.138 759.87 357.995 759.525C357.851 759.18 357.669 758.9 357.448 758.686C357.233 758.471 356.982 758.314 356.696 758.217C356.416 758.113 356.1 758.061 355.748 758.061C355.319 758.061 354.938 758.142 354.606 758.305C354.274 758.461 353.994 758.712 353.766 759.057C353.545 759.402 353.375 759.854 353.258 760.414C353.141 760.974 353.082 761.654 353.082 762.455V765.219C353.082 765.857 353.118 766.42 353.19 766.908C353.268 767.396 353.382 767.82 353.532 768.178C353.681 768.529 353.864 768.819 354.079 769.047C354.293 769.275 354.541 769.444 354.821 769.555C355.107 769.659 355.423 769.711 355.768 769.711C356.211 769.711 356.598 769.626 356.93 769.457C357.262 769.288 357.539 769.024 357.76 768.666C357.988 768.301 358.157 767.836 358.268 767.27C358.379 766.697 358.434 766.013 358.434 765.219Z" fill="black"/>
<path d="M319.174 722.533V731H317.357V720.434H319.076L319.174 722.533ZM318.803 725.316L317.963 725.287C317.969 724.564 318.064 723.897 318.246 723.285C318.428 722.667 318.699 722.13 319.057 721.674C319.415 721.218 319.861 720.867 320.395 720.619C320.928 720.365 321.547 720.238 322.25 720.238C322.745 720.238 323.201 720.31 323.617 720.453C324.034 720.59 324.395 720.808 324.701 721.107C325.007 721.407 325.245 721.791 325.414 722.26C325.583 722.729 325.668 723.295 325.668 723.959V731H323.861V724.047C323.861 723.493 323.767 723.051 323.578 722.719C323.396 722.387 323.135 722.146 322.797 721.996C322.458 721.84 322.061 721.762 321.605 721.762C321.072 721.762 320.626 721.856 320.268 722.045C319.91 722.234 319.623 722.494 319.408 722.826C319.193 723.158 319.037 723.539 318.939 723.969C318.848 724.392 318.803 724.841 318.803 725.316ZM325.648 724.32L324.438 724.691C324.444 724.112 324.538 723.555 324.721 723.021C324.91 722.488 325.18 722.012 325.531 721.596C325.889 721.179 326.329 720.85 326.85 720.609C327.37 720.362 327.966 720.238 328.637 720.238C329.203 720.238 329.704 720.313 330.141 720.463C330.583 720.613 330.954 720.844 331.254 721.156C331.56 721.462 331.791 721.856 331.947 722.338C332.104 722.82 332.182 723.393 332.182 724.057V731H330.365V724.037C330.365 723.445 330.271 722.986 330.082 722.66C329.9 722.328 329.639 722.097 329.301 721.967C328.969 721.83 328.572 721.762 328.109 721.762C327.712 721.762 327.361 721.83 327.055 721.967C326.749 722.104 326.492 722.292 326.283 722.533C326.075 722.768 325.915 723.038 325.805 723.344C325.701 723.65 325.648 723.975 325.648 724.32ZM349.398 729.516V731H340.091V729.701L344.75 724.516C345.323 723.878 345.765 723.337 346.078 722.895C346.397 722.445 346.618 722.045 346.742 721.693C346.872 721.335 346.937 720.971 346.937 720.6C346.937 720.131 346.839 719.708 346.644 719.33C346.455 718.946 346.175 718.64 345.804 718.412C345.433 718.184 344.984 718.07 344.457 718.07C343.825 718.07 343.298 718.194 342.875 718.441C342.458 718.682 342.145 719.021 341.937 719.457C341.729 719.893 341.625 720.395 341.625 720.961H339.818C339.818 720.16 339.994 719.428 340.345 718.764C340.697 718.1 341.218 717.572 341.908 717.182C342.598 716.785 343.448 716.586 344.457 716.586C345.355 716.586 346.123 716.745 346.761 717.064C347.399 717.377 347.888 717.82 348.226 718.393C348.571 718.959 348.744 719.623 348.744 720.385C348.744 720.801 348.672 721.225 348.529 721.654C348.392 722.077 348.2 722.501 347.953 722.924C347.712 723.347 347.429 723.764 347.103 724.174C346.784 724.584 346.442 724.988 346.078 725.385L342.269 729.516H349.398ZM361.141 726.215V727.699H350.868V726.635L357.235 716.781H358.709L357.127 719.633L352.918 726.215H361.141ZM359.159 716.781V731H357.352V716.781H359.159Z" fill="black"/>
<path d="M318.01 664.5V687H315.285V664.5H318.01ZM334.064 675.003H335.997C336.945 675.003 337.726 674.847 338.341 674.534C338.966 674.212 339.43 673.777 339.733 673.23C340.045 672.674 340.202 672.049 340.202 671.355C340.202 670.535 340.065 669.847 339.791 669.29C339.518 668.733 339.108 668.313 338.561 668.03C338.014 667.747 337.321 667.605 336.481 667.605C335.719 667.605 335.045 667.757 334.459 668.06C333.883 668.353 333.429 668.772 333.097 669.319C332.775 669.866 332.614 670.511 332.614 671.253H329.904C329.904 670.169 330.177 669.183 330.724 668.294C331.271 667.405 332.038 666.697 333.024 666.17C334.02 665.643 335.172 665.379 336.481 665.379C337.77 665.379 338.898 665.608 339.865 666.067C340.831 666.517 341.583 667.19 342.121 668.089C342.658 668.978 342.926 670.086 342.926 671.414C342.926 671.951 342.799 672.527 342.545 673.143C342.301 673.748 341.915 674.314 341.388 674.842C340.871 675.369 340.197 675.804 339.367 676.146C338.537 676.478 337.54 676.644 336.378 676.644H334.064V675.003ZM334.064 677.229V675.604H336.378C337.736 675.604 338.859 675.765 339.747 676.087C340.636 676.409 341.334 676.839 341.842 677.376C342.36 677.913 342.721 678.504 342.926 679.148C343.141 679.783 343.248 680.418 343.248 681.053C343.248 682.049 343.078 682.933 342.736 683.704C342.404 684.476 341.93 685.13 341.315 685.667C340.709 686.204 339.996 686.609 339.176 686.883C338.356 687.156 337.462 687.293 336.496 687.293C335.568 687.293 334.694 687.161 333.873 686.897C333.063 686.634 332.345 686.253 331.72 685.755C331.095 685.247 330.607 684.627 330.255 683.895C329.904 683.152 329.728 682.308 329.728 681.36H332.438C332.438 682.103 332.599 682.752 332.921 683.309C333.253 683.865 333.722 684.3 334.328 684.612C334.943 684.915 335.665 685.066 336.496 685.066C337.326 685.066 338.038 684.925 338.634 684.642C339.24 684.349 339.704 683.909 340.026 683.323C340.358 682.737 340.524 682 340.524 681.111C340.524 680.223 340.338 679.495 339.967 678.929C339.596 678.353 339.069 677.928 338.385 677.654C337.711 677.371 336.915 677.229 335.997 677.229H334.064ZM360.672 674.637V677.889C360.672 679.637 360.516 681.111 360.204 682.312C359.891 683.514 359.442 684.48 358.856 685.213C358.27 685.945 357.562 686.478 356.732 686.81C355.912 687.132 354.984 687.293 353.949 687.293C353.129 687.293 352.372 687.19 351.678 686.985C350.985 686.78 350.36 686.453 349.803 686.004C349.256 685.545 348.788 684.949 348.397 684.217C348.006 683.484 347.709 682.596 347.504 681.551C347.298 680.506 347.196 679.285 347.196 677.889V674.637C347.196 672.889 347.352 671.424 347.665 670.242C347.987 669.061 348.441 668.113 349.027 667.4C349.613 666.678 350.316 666.16 351.136 665.848C351.966 665.535 352.894 665.379 353.92 665.379C354.75 665.379 355.511 665.481 356.205 665.687C356.908 665.882 357.533 666.199 358.08 666.639C358.627 667.068 359.09 667.645 359.471 668.367C359.862 669.08 360.16 669.954 360.365 670.989C360.57 672.024 360.672 673.24 360.672 674.637ZM357.948 678.328V674.183C357.948 673.226 357.889 672.386 357.772 671.663C357.665 670.931 357.504 670.306 357.289 669.788C357.074 669.271 356.8 668.851 356.468 668.528C356.146 668.206 355.77 667.972 355.34 667.825C354.921 667.669 354.447 667.591 353.92 667.591C353.275 667.591 352.704 667.713 352.206 667.957C351.708 668.191 351.288 668.567 350.946 669.085C350.614 669.603 350.36 670.281 350.184 671.121C350.008 671.961 349.921 672.981 349.921 674.183V678.328C349.921 679.285 349.974 680.13 350.082 680.862C350.199 681.595 350.37 682.229 350.594 682.767C350.819 683.294 351.092 683.729 351.415 684.07C351.737 684.412 352.108 684.666 352.528 684.832C352.958 684.988 353.431 685.066 353.949 685.066C354.613 685.066 355.194 684.939 355.692 684.686C356.19 684.432 356.605 684.036 356.937 683.499C357.279 682.952 357.533 682.254 357.699 681.404C357.865 680.545 357.948 679.52 357.948 678.328Z" fill="black"/>
<path d="M300.896 621.15L304.368 626.922L307.884 621.15H311.062L305.877 628.973L311.224 637H308.089L304.427 631.053L300.765 637H297.615L302.947 628.973L297.776 621.15H300.896ZM317.193 614.5V637H314.468V614.5H317.193ZM343.706 629.822V632.049H328.296V630.452L337.846 615.672H340.058L337.685 619.949L331.372 629.822H343.706ZM340.732 615.672V637H338.022V615.672H340.732ZM349.894 626.849L347.726 626.292L348.796 615.672H359.738V618.177H351.096L350.451 623.978C350.842 623.753 351.335 623.543 351.93 623.348C352.536 623.152 353.229 623.055 354.011 623.055C354.997 623.055 355.881 623.226 356.662 623.567C357.443 623.899 358.107 624.378 358.654 625.003C359.211 625.628 359.636 626.38 359.929 627.259C360.221 628.138 360.368 629.119 360.368 630.203C360.368 631.229 360.226 632.171 359.943 633.03C359.67 633.89 359.255 634.642 358.698 635.286C358.141 635.921 357.438 636.414 356.589 636.766C355.749 637.117 354.758 637.293 353.615 637.293C352.756 637.293 351.94 637.176 351.169 636.941C350.407 636.697 349.723 636.331 349.118 635.843C348.522 635.345 348.034 634.729 347.653 633.997C347.282 633.255 347.048 632.386 346.95 631.39H349.528C349.645 632.19 349.88 632.864 350.231 633.411C350.583 633.958 351.042 634.373 351.608 634.656C352.184 634.93 352.853 635.066 353.615 635.066C354.26 635.066 354.831 634.954 355.329 634.729C355.827 634.505 356.247 634.183 356.589 633.763C356.93 633.343 357.189 632.835 357.365 632.239C357.551 631.644 357.643 630.975 357.643 630.232C357.643 629.559 357.551 628.934 357.365 628.357C357.179 627.781 356.901 627.278 356.53 626.849C356.169 626.419 355.724 626.087 355.197 625.853C354.67 625.608 354.064 625.486 353.381 625.486C352.472 625.486 351.784 625.608 351.315 625.853C350.856 626.097 350.383 626.429 349.894 626.849Z" fill="black"/>
<mask id="mask5_2_587" style="mask-type:alpha" maskUnits="userSpaceOnUse" x="381" y="383" width="45" height="45">
<rect x="381" y="383" width="45" height="45" fill="#C4C4C4"/>
</mask>
<g mask="url(#mask5_2_587)">
<rect x="381" y="383" width="222.115" height="207.115" fill="#0094FF" fill-opacity="0.2"/>
</g>
<path d="M312.294 423.796C312.294 423.405 312.206 423.044 312.03 422.712C311.864 422.37 311.518 422.062 310.99 421.789C310.473 421.506 309.691 421.262 308.646 421.057C307.768 420.871 306.972 420.651 306.259 420.397C305.556 420.144 304.955 419.836 304.457 419.475C303.969 419.113 303.593 418.688 303.329 418.2C303.065 417.712 302.934 417.141 302.934 416.486C302.934 415.861 303.07 415.271 303.344 414.714C303.627 414.157 304.022 413.664 304.53 413.234C305.048 412.805 305.668 412.468 306.391 412.224C307.113 411.979 307.919 411.857 308.808 411.857C310.077 411.857 311.161 412.082 312.06 412.531C312.958 412.98 313.646 413.581 314.125 414.333C314.604 415.075 314.843 415.9 314.843 416.809H312.133C312.133 416.369 312.001 415.944 311.737 415.534C311.483 415.114 311.107 414.768 310.609 414.494C310.121 414.221 309.521 414.084 308.808 414.084C308.056 414.084 307.445 414.201 306.977 414.436C306.518 414.66 306.181 414.948 305.966 415.3C305.761 415.651 305.658 416.022 305.658 416.413C305.658 416.706 305.707 416.97 305.805 417.204C305.912 417.429 306.098 417.639 306.361 417.834C306.625 418.02 306.996 418.195 307.475 418.361C307.953 418.527 308.563 418.693 309.306 418.859C310.604 419.152 311.674 419.504 312.514 419.914C313.354 420.324 313.979 420.827 314.389 421.423C314.799 422.019 315.004 422.741 315.004 423.591C315.004 424.284 314.857 424.919 314.564 425.495C314.281 426.071 313.866 426.569 313.319 426.989C312.782 427.399 312.138 427.722 311.386 427.956C310.644 428.181 309.809 428.293 308.881 428.293C307.484 428.293 306.303 428.044 305.336 427.546C304.369 427.048 303.637 426.403 303.139 425.612C302.641 424.821 302.392 423.986 302.392 423.107H305.116C305.155 423.85 305.37 424.44 305.761 424.88C306.151 425.31 306.63 425.617 307.196 425.803C307.763 425.979 308.324 426.066 308.881 426.066C309.623 426.066 310.243 425.969 310.741 425.773C311.249 425.578 311.635 425.31 311.898 424.968C312.162 424.626 312.294 424.235 312.294 423.796ZM340.726 420.822V423.049H325.316V421.452L334.867 406.672H337.079L334.705 410.949L328.392 420.822H340.726ZM337.752 406.672V428H335.042V406.672H337.752ZM346.915 417.849L344.747 417.292L345.816 406.672H356.758V409.177H348.116L347.471 414.978C347.862 414.753 348.355 414.543 348.951 414.348C349.556 414.152 350.25 414.055 351.031 414.055C352.017 414.055 352.901 414.226 353.682 414.567C354.463 414.899 355.128 415.378 355.674 416.003C356.231 416.628 356.656 417.38 356.949 418.259C357.242 419.138 357.388 420.119 357.388 421.203C357.388 422.229 357.247 423.171 356.963 424.03C356.69 424.89 356.275 425.642 355.718 426.286C355.162 426.921 354.459 427.414 353.609 427.766C352.769 428.117 351.778 428.293 350.635 428.293C349.776 428.293 348.961 428.176 348.189 427.941C347.427 427.697 346.744 427.331 346.138 426.843C345.543 426.345 345.054 425.729 344.673 424.997C344.302 424.255 344.068 423.386 343.97 422.39H346.548C346.666 423.19 346.9 423.864 347.252 424.411C347.603 424.958 348.062 425.373 348.629 425.656C349.205 425.93 349.874 426.066 350.635 426.066C351.28 426.066 351.851 425.954 352.349 425.729C352.847 425.505 353.267 425.183 353.609 424.763C353.951 424.343 354.21 423.835 354.385 423.239C354.571 422.644 354.664 421.975 354.664 421.232C354.664 420.559 354.571 419.934 354.385 419.357C354.2 418.781 353.921 418.278 353.55 417.849C353.189 417.419 352.745 417.087 352.217 416.853C351.69 416.608 351.085 416.486 350.401 416.486C349.493 416.486 348.804 416.608 348.336 416.853C347.877 417.097 347.403 417.429 346.915 417.849Z" fill="black"/>
<path d="M297.761 335.3V348H295.036V332.15H297.614L297.761 335.3ZM297.204 339.475L295.944 339.431C295.954 338.347 296.096 337.346 296.369 336.428C296.643 335.5 297.048 334.694 297.585 334.011C298.122 333.327 298.791 332.8 299.592 332.429C300.393 332.048 301.32 331.857 302.375 331.857C303.117 331.857 303.801 331.965 304.426 332.18C305.051 332.385 305.593 332.712 306.052 333.161C306.511 333.61 306.867 334.187 307.121 334.89C307.375 335.593 307.502 336.442 307.502 337.438V348H304.792V337.57C304.792 336.74 304.65 336.076 304.367 335.578C304.094 335.08 303.703 334.719 303.195 334.494C302.688 334.26 302.092 334.143 301.408 334.143C300.607 334.143 299.938 334.284 299.401 334.567C298.864 334.851 298.435 335.241 298.112 335.739C297.79 336.237 297.556 336.809 297.409 337.453C297.272 338.088 297.204 338.762 297.204 339.475ZM307.473 337.98L305.656 338.537C305.666 337.668 305.808 336.833 306.081 336.032C306.364 335.231 306.77 334.519 307.297 333.894C307.834 333.269 308.493 332.775 309.274 332.414C310.056 332.043 310.949 331.857 311.955 331.857C312.805 331.857 313.557 331.97 314.211 332.194C314.875 332.419 315.432 332.766 315.881 333.234C316.34 333.693 316.687 334.284 316.921 335.007C317.155 335.729 317.272 336.589 317.272 337.585V348H314.548V337.556C314.548 336.667 314.406 335.979 314.123 335.49C313.85 334.992 313.459 334.646 312.951 334.45C312.453 334.245 311.857 334.143 311.164 334.143C310.568 334.143 310.041 334.245 309.582 334.45C309.123 334.655 308.737 334.938 308.425 335.3C308.112 335.651 307.873 336.057 307.707 336.516C307.551 336.975 307.473 337.463 307.473 337.98ZM332.55 337.849L330.382 337.292L331.452 326.672H342.394V329.177H333.751L333.107 334.978C333.497 334.753 333.991 334.543 334.586 334.348C335.192 334.152 335.885 334.055 336.666 334.055C337.653 334.055 338.537 334.226 339.318 334.567C340.099 334.899 340.763 335.378 341.31 336.003C341.867 336.628 342.291 337.38 342.584 338.259C342.877 339.138 343.024 340.119 343.024 341.203C343.024 342.229 342.882 343.171 342.599 344.03C342.326 344.89 341.911 345.642 341.354 346.286C340.797 346.921 340.094 347.414 339.245 347.766C338.405 348.117 337.413 348.293 336.271 348.293C335.412 348.293 334.596 348.176 333.825 347.941C333.063 347.697 332.379 347.331 331.774 346.843C331.178 346.345 330.69 345.729 330.309 344.997C329.938 344.255 329.704 343.386 329.606 342.39H332.184C332.301 343.19 332.536 343.864 332.887 344.411C333.239 344.958 333.698 345.373 334.264 345.656C334.84 345.93 335.509 346.066 336.271 346.066C336.915 346.066 337.487 345.954 337.985 345.729C338.483 345.505 338.903 345.183 339.245 344.763C339.586 344.343 339.845 343.835 340.021 343.239C340.206 342.644 340.299 341.975 340.299 341.232C340.299 340.559 340.206 339.934 340.021 339.357C339.835 338.781 339.557 338.278 339.186 337.849C338.825 337.419 338.38 337.087 337.853 336.853C337.326 336.608 336.72 336.486 336.037 336.486C335.128 336.486 334.44 336.608 333.971 336.853C333.512 337.097 333.038 337.429 332.55 337.849ZM349.725 337.849L347.557 337.292L348.627 326.672H359.569V329.177H350.926L350.282 334.978C350.672 334.753 351.166 334.543 351.761 334.348C352.367 334.152 353.06 334.055 353.841 334.055C354.828 334.055 355.712 334.226 356.493 334.567C357.274 334.899 357.938 335.378 358.485 336.003C359.042 336.628 359.466 337.38 359.759 338.259C360.052 339.138 360.199 340.119 360.199 341.203C360.199 342.229 360.057 343.171 359.774 344.03C359.501 344.89 359.086 345.642 358.529 346.286C357.972 346.921 357.269 347.414 356.42 347.766C355.58 348.117 354.588 348.293 353.446 348.293C352.587 348.293 351.771 348.176 351 347.941C350.238 347.697 349.554 347.331 348.949 346.843C348.353 346.345 347.865 345.729 347.484 344.997C347.113 344.255 346.879 343.386 346.781 342.39H349.359C349.476 343.19 349.711 343.864 350.062 344.411C350.414 344.958 350.873 345.373 351.439 345.656C352.015 345.93 352.684 346.066 353.446 346.066C354.09 346.066 354.662 345.954 355.16 345.729C355.658 345.505 356.078 345.183 356.42 344.763C356.761 344.343 357.02 343.835 357.196 343.239C357.381 342.644 357.474 341.975 357.474 341.232C357.474 340.559 357.381 339.934 357.196 339.357C357.01 338.781 356.732 338.278 356.361 337.849C356 337.419 355.555 337.087 355.028 336.853C354.501 336.608 353.895 336.486 353.212 336.486C352.303 336.486 351.615 336.608 351.146 336.853C350.687 337.097 350.213 337.429 349.725 337.849Z" fill="black"/>
<path d="M128.703 165V249H118.531V165H128.703ZM226.045 240.688V249H173.928V241.727L200.013 212.688C203.222 209.115 205.701 206.089 207.451 203.609C209.237 201.094 210.477 198.852 211.17 196.883C211.899 194.878 212.263 192.836 212.263 190.758C212.263 188.133 211.717 185.763 210.623 183.648C209.566 181.497 207.998 179.784 205.92 178.508C203.842 177.232 201.326 176.594 198.373 176.594C194.836 176.594 191.883 177.286 189.513 178.672C187.18 180.021 185.43 181.917 184.263 184.359C183.097 186.802 182.513 189.609 182.513 192.781H172.396C172.396 188.297 173.381 184.195 175.349 180.477C177.318 176.758 180.235 173.805 184.099 171.617C187.964 169.393 192.722 168.281 198.373 168.281C203.404 168.281 207.706 169.174 211.279 170.961C214.852 172.711 217.586 175.19 219.482 178.398C221.414 181.57 222.381 185.289 222.381 189.555C222.381 191.888 221.98 194.258 221.178 196.664C220.412 199.034 219.336 201.404 217.951 203.773C216.602 206.143 215.016 208.477 213.193 210.773C211.407 213.07 209.493 215.331 207.451 217.555L186.123 240.688H226.045ZM290.165 240.688V249H238.048V241.727L264.133 212.688C267.342 209.115 269.821 206.089 271.571 203.609C273.357 201.094 274.597 198.852 275.29 196.883C276.019 194.878 276.383 192.836 276.383 190.758C276.383 188.133 275.837 185.763 274.743 183.648C273.686 181.497 272.118 179.784 270.04 178.508C267.962 177.232 265.446 176.594 262.493 176.594C258.956 176.594 256.003 177.286 253.633 178.672C251.3 180.021 249.55 181.917 248.383 184.359C247.217 186.802 246.633 189.609 246.633 192.781H236.516C236.516 188.297 237.501 184.195 239.469 180.477C241.438 176.758 244.355 173.805 248.219 171.617C252.084 169.393 256.842 168.281 262.493 168.281C267.524 168.281 271.826 169.174 275.399 170.961C278.972 172.711 281.706 175.19 283.602 178.398C285.534 181.57 286.501 185.289 286.501 189.555C286.501 191.888 286.1 194.258 285.298 196.664C284.532 199.034 283.456 201.404 282.071 203.773C280.722 206.143 279.136 208.477 277.313 210.773C275.527 213.07 273.613 215.331 271.571 217.555L250.243 240.688H290.165ZM314.91 211.102L306.816 209.023L310.808 169.375H351.66V178.727H319.394L316.988 200.383C318.446 199.544 320.287 198.76 322.511 198.031C324.772 197.302 327.36 196.938 330.277 196.938C333.959 196.938 337.259 197.576 340.175 198.852C343.092 200.091 345.571 201.878 347.613 204.211C349.691 206.544 351.277 209.352 352.371 212.633C353.464 215.914 354.011 219.578 354.011 223.625C354.011 227.453 353.483 230.971 352.425 234.18C351.404 237.388 349.855 240.195 347.777 242.602C345.699 244.971 343.074 246.812 339.902 248.125C336.766 249.438 333.066 250.094 328.8 250.094C325.592 250.094 322.548 249.656 319.667 248.781C316.824 247.87 314.272 246.503 312.011 244.68C309.787 242.82 307.964 240.523 306.542 237.789C305.157 235.018 304.282 231.773 303.917 228.055H313.542C313.98 231.044 314.855 233.56 316.167 235.602C317.48 237.643 319.194 239.193 321.308 240.25C323.459 241.271 325.957 241.781 328.8 241.781C331.207 241.781 333.339 241.362 335.199 240.523C337.058 239.685 338.626 238.482 339.902 236.914C341.178 235.346 342.144 233.451 342.8 231.227C343.493 229.003 343.839 226.505 343.839 223.734C343.839 221.219 343.493 218.885 342.8 216.734C342.108 214.583 341.069 212.706 339.683 211.102C338.334 209.497 336.675 208.258 334.707 207.383C332.738 206.471 330.477 206.016 327.925 206.016C324.535 206.016 321.964 206.471 320.214 207.383C318.501 208.294 316.733 209.534 314.91 211.102Z" fill="black"/>
<path d="M46.3887 599.203H49.9658C50.7979 599.203 51.4951 599.35 52.0576 599.643C52.626 599.936 53.0537 600.369 53.3408 600.943C53.6338 601.512 53.7803 602.212 53.7803 603.044C53.7803 603.63 53.6836 604.166 53.4902 604.652C53.2969 605.133 53.0156 605.543 52.6465 605.883C52.2773 606.217 51.8291 606.466 51.3018 606.63L50.8623 606.814H47.6719L47.6543 605.435H49.9482C50.4404 605.435 50.8506 605.329 51.1787 605.118C51.5068 604.901 51.7529 604.611 51.917 604.248C52.0811 603.885 52.1631 603.483 52.1631 603.044C52.1631 602.552 52.0898 602.121 51.9434 601.752C51.7969 601.383 51.5625 601.099 51.2402 600.899C50.9238 600.694 50.499 600.592 49.9658 600.592H48.0059V612H46.3887V599.203ZM52.5322 612L49.9834 606.199L51.6621 606.19L54.2637 611.895V612H52.5322ZM55.5863 607.702V606.797C55.5863 606.059 55.68 605.411 55.8675 604.854C56.055 604.292 56.3157 603.823 56.6497 603.448C56.9837 603.073 57.3734 602.792 57.8187 602.604C58.264 602.411 58.7415 602.314 59.2513 602.314C59.7728 602.314 60.2562 602.411 60.7015 602.604C61.1468 602.792 61.5364 603.073 61.8704 603.448C62.2103 603.823 62.4739 604.292 62.6614 604.854C62.8489 605.411 62.9427 606.059 62.9427 606.797V607.702C62.9427 608.44 62.8489 609.091 62.6614 609.653C62.4739 610.21 62.2132 610.676 61.8792 611.051C61.5452 611.426 61.1556 611.707 60.7103 611.895C60.265 612.082 59.7845 612.176 59.2689 612.176C58.7532 612.176 58.2728 612.082 57.8275 611.895C57.3821 611.707 56.9896 611.426 56.6497 611.051C56.3157 610.676 56.055 610.21 55.8675 609.653C55.68 609.091 55.5863 608.44 55.5863 607.702ZM57.1419 606.797V607.702C57.1419 608.224 57.1946 608.681 57.3001 609.073C57.4056 609.466 57.555 609.794 57.7484 610.058C57.9417 610.321 58.1673 610.521 58.4251 610.655C58.6829 610.784 58.9642 610.849 59.2689 610.849C59.6204 610.849 59.928 610.784 60.1917 610.655C60.4613 610.521 60.6839 610.321 60.8597 610.058C61.0355 609.794 61.1673 609.466 61.2552 609.073C61.3431 608.681 61.387 608.224 61.387 607.702V606.797C61.387 606.275 61.3343 605.821 61.2288 605.435C61.1234 605.042 60.9739 604.714 60.7806 604.45C60.5872 604.181 60.3587 603.981 60.095 603.853C59.8372 603.718 59.556 603.65 59.2513 603.65C58.9525 603.65 58.6741 603.718 58.4163 603.853C58.1585 603.981 57.9329 604.181 57.7396 604.45C57.5521 604.714 57.4056 605.042 57.3001 605.435C57.1946 605.821 57.1419 606.275 57.1419 606.797ZM65.1266 598.5H66.6823V610.154L66.5504 612H65.1266V598.5ZM72.0172 606.814V607.702C72.0172 608.452 71.9469 609.108 71.8063 609.671C71.6715 610.228 71.4694 610.693 71.1998 611.068C70.9303 611.438 70.6022 611.716 70.2155 611.903C69.8288 612.085 69.3864 612.176 68.8883 612.176C68.3961 612.176 67.9713 612.076 67.6139 611.877C67.2565 611.678 66.9577 611.391 66.7174 611.016C66.4772 610.641 66.2868 610.187 66.1461 609.653C66.0114 609.12 65.9176 608.52 65.8649 607.852V606.665C65.9176 605.991 66.0114 605.388 66.1461 604.854C66.2809 604.315 66.4684 603.858 66.7086 603.483C66.9489 603.103 67.2477 602.812 67.6051 602.613C67.9625 602.414 68.3873 602.314 68.8795 602.314C69.3834 602.314 69.8288 602.402 70.2155 602.578C70.608 602.754 70.9362 603.026 71.1998 603.396C71.4694 603.759 71.6715 604.225 71.8063 604.793C71.9469 605.355 72.0172 606.029 72.0172 606.814ZM70.4616 607.702V606.814C70.4616 606.287 70.4264 605.827 70.3561 605.435C70.2916 605.042 70.1832 604.717 70.0309 604.459C69.8786 604.201 69.6735 604.008 69.4157 603.879C69.1637 603.75 68.8502 603.686 68.4752 603.686C68.1588 603.686 67.8805 603.75 67.6403 603.879C67.4059 604.008 67.2038 604.184 67.0338 604.406C66.8639 604.623 66.7233 604.872 66.612 605.153C66.5006 605.429 66.4186 605.716 66.3659 606.015V608.511C66.442 608.892 66.5621 609.258 66.7262 609.609C66.8961 609.955 67.1246 610.239 67.4118 610.462C67.6989 610.685 68.0563 610.796 68.484 610.796C68.8414 610.796 69.1432 610.734 69.3893 610.611C69.6413 610.488 69.8463 610.301 70.0045 610.049C70.1627 609.791 70.277 609.469 70.3473 609.082C70.4235 608.689 70.4616 608.229 70.4616 607.702ZM73.8584 607.702V606.797C73.8584 606.059 73.9521 605.411 74.1396 604.854C74.3271 604.292 74.5879 603.823 74.9218 603.448C75.2558 603.073 75.6455 602.792 76.0908 602.604C76.5361 602.411 77.0136 602.314 77.5234 602.314C78.0449 602.314 78.5283 602.411 78.9736 602.604C79.4189 602.792 79.8086 603.073 80.1425 603.448C80.4824 603.823 80.7461 604.292 80.9336 604.854C81.1211 605.411 81.2148 606.059 81.2148 606.797V607.702C81.2148 608.44 81.1211 609.091 80.9336 609.653C80.7461 610.21 80.4853 610.676 80.1513 611.051C79.8173 611.426 79.4277 611.707 78.9824 611.895C78.5371 612.082 78.0566 612.176 77.541 612.176C77.0254 612.176 76.5449 612.082 76.0996 611.895C75.6543 611.707 75.2617 611.426 74.9218 611.051C74.5879 610.676 74.3271 610.21 74.1396 609.653C73.9521 609.091 73.8584 608.44 73.8584 607.702ZM75.414 606.797V607.702C75.414 608.224 75.4668 608.681 75.5722 609.073C75.6777 609.466 75.8271 609.794 76.0205 610.058C76.2138 610.321 76.4394 610.521 76.6972 610.655C76.955 610.784 77.2363 610.849 77.541 610.849C77.8925 610.849 78.2002 610.784 78.4638 610.655C78.7334 610.521 78.956 610.321 79.1318 610.058C79.3076 609.794 79.4394 609.466 79.5273 609.073C79.6152 608.681 79.6591 608.224 79.6591 607.702V606.797C79.6591 606.275 79.6064 605.821 79.5009 605.435C79.3955 605.042 79.2461 604.714 79.0527 604.45C78.8593 604.181 78.6308 603.981 78.3671 603.853C78.1093 603.718 77.8281 603.65 77.5234 603.65C77.2246 603.65 76.9463 603.718 76.6884 603.853C76.4306 603.981 76.205 604.181 76.0117 604.45C75.8242 604.714 75.6777 605.042 75.5722 605.435C75.4668 605.821 75.414 606.275 75.414 606.797ZM86.8704 602.49V603.738H82.4319V602.49H86.8704ZM83.8821 600.179H85.4378V609.645C85.4378 609.967 85.4759 610.21 85.552 610.374C85.6341 610.538 85.7366 610.646 85.8596 610.699C85.9827 610.752 86.1145 610.778 86.2552 610.778C86.3606 610.778 86.4778 610.767 86.6067 610.743C86.7356 610.714 86.8235 610.69 86.8704 610.673L86.8616 612C86.7561 612.041 86.6155 612.079 86.4397 612.114C86.2639 612.155 86.0413 612.176 85.7718 612.176C85.4378 612.176 85.1272 612.097 84.8401 611.938C84.553 611.78 84.3216 611.517 84.1458 611.147C83.97 610.772 83.8821 610.269 83.8821 609.636V600.179ZM88.4039 607.702V606.797C88.4039 606.059 88.4977 605.411 88.6852 604.854C88.8727 604.292 89.1334 603.823 89.4674 603.448C89.8014 603.073 90.191 602.792 90.6363 602.604C91.0816 602.411 91.5592 602.314 92.0689 602.314C92.5904 602.314 93.0738 602.411 93.5191 602.604C93.9645 602.792 94.3541 603.073 94.6881 603.448C95.0279 603.823 95.2916 604.292 95.4791 604.854C95.6666 605.411 95.7604 606.059 95.7604 606.797V607.702C95.7604 608.44 95.6666 609.091 95.4791 609.653C95.2916 610.21 95.0309 610.676 94.6969 611.051C94.3629 611.426 93.9732 611.707 93.5279 611.895C93.0826 612.082 92.6021 612.176 92.0865 612.176C91.5709 612.176 91.0904 612.082 90.6451 611.895C90.1998 611.707 89.8072 611.426 89.4674 611.051C89.1334 610.676 88.8727 610.21 88.6852 609.653C88.4977 609.091 88.4039 608.44 88.4039 607.702ZM89.9596 606.797V607.702C89.9596 608.224 90.0123 608.681 90.1178 609.073C90.2232 609.466 90.3727 609.794 90.566 610.058C90.7594 610.321 90.985 610.521 91.2428 610.655C91.5006 610.784 91.7818 610.849 92.0865 610.849C92.4381 610.849 92.7457 610.784 93.0094 610.655C93.2789 610.521 93.5016 610.321 93.6773 610.058C93.8531 609.794 93.985 609.466 94.0729 609.073C94.1607 608.681 94.2047 608.224 94.2047 607.702V606.797C94.2047 606.275 94.152 605.821 94.0465 605.435C93.941 605.042 93.7916 604.714 93.5982 604.45C93.4049 604.181 93.1764 603.981 92.9127 603.853C92.6549 603.718 92.3736 603.65 92.0689 603.65C91.7701 603.65 91.4918 603.718 91.234 603.853C90.9762 603.981 90.7506 604.181 90.5572 604.45C90.3697 604.714 90.2232 605.042 90.1178 605.435C90.0123 605.821 89.9596 606.275 89.9596 606.797ZM108.873 607.931H110.49C110.449 608.81 110.271 609.568 109.954 610.207C109.644 610.84 109.19 611.326 108.592 611.666C108 612.006 107.259 612.176 106.368 612.176C105.73 612.176 105.153 612.05 104.637 611.798C104.121 611.546 103.679 611.186 103.31 610.717C102.947 610.242 102.668 609.674 102.475 609.012C102.281 608.35 102.185 607.605 102.185 606.779V604.415C102.185 603.595 102.281 602.854 102.475 602.191C102.674 601.529 102.958 600.964 103.327 600.495C103.702 600.021 104.156 599.657 104.69 599.405C105.229 599.153 105.838 599.027 106.518 599.027C107.35 599.027 108.053 599.194 108.627 599.528C109.207 599.856 109.653 600.34 109.963 600.979C110.28 601.611 110.455 602.388 110.49 603.308H108.873C108.832 602.634 108.727 602.086 108.557 601.664C108.387 601.236 108.135 600.923 107.801 600.724C107.473 600.519 107.045 600.416 106.518 600.416C106.049 600.416 105.642 600.51 105.296 600.697C104.956 600.885 104.675 601.154 104.452 601.506C104.236 601.852 104.072 602.271 103.96 602.763C103.855 603.249 103.802 603.794 103.802 604.397V606.779C103.802 607.342 103.846 607.866 103.934 608.353C104.028 608.839 104.174 609.267 104.373 609.636C104.578 609.999 104.845 610.283 105.173 610.488C105.501 610.693 105.9 610.796 106.368 610.796C106.96 610.796 107.429 610.699 107.775 610.506C108.12 610.312 108.375 610.005 108.539 609.583C108.709 609.161 108.821 608.61 108.873 607.931ZM112.323 607.702V606.797C112.323 606.059 112.417 605.411 112.604 604.854C112.792 604.292 113.052 603.823 113.386 603.448C113.72 603.073 114.11 602.792 114.555 602.604C115.001 602.411 115.478 602.314 115.988 602.314C116.509 602.314 116.993 602.411 117.438 602.604C117.883 602.792 118.273 603.073 118.607 603.448C118.947 603.823 119.211 604.292 119.398 604.854C119.586 605.411 119.679 606.059 119.679 606.797V607.702C119.679 608.44 119.586 609.091 119.398 609.653C119.211 610.21 118.95 610.676 118.616 611.051C118.282 611.426 117.892 611.707 117.447 611.895C117.002 612.082 116.521 612.176 116.005 612.176C115.49 612.176 115.009 612.082 114.564 611.895C114.119 611.707 113.726 611.426 113.386 611.051C113.052 610.676 112.792 610.21 112.604 609.653C112.417 609.091 112.323 608.44 112.323 607.702ZM113.878 606.797V607.702C113.878 608.224 113.931 608.681 114.037 609.073C114.142 609.466 114.292 609.794 114.485 610.058C114.678 610.321 114.904 610.521 115.162 610.655C115.419 610.784 115.701 610.849 116.005 610.849C116.357 610.849 116.665 610.784 116.928 610.655C117.198 610.521 117.42 610.321 117.596 610.058C117.772 609.794 117.904 609.466 117.992 609.073C118.08 608.681 118.124 608.224 118.124 607.702V606.797C118.124 606.275 118.071 605.821 117.965 605.435C117.86 605.042 117.711 604.714 117.517 604.45C117.324 604.181 117.095 603.981 116.832 603.853C116.574 603.718 116.293 603.65 115.988 603.65C115.689 603.65 115.411 603.718 115.153 603.853C114.895 603.981 114.669 604.181 114.476 604.45C114.289 604.714 114.142 605.042 114.037 605.435C113.931 605.821 113.878 606.275 113.878 606.797ZM123.419 604.521V612H121.863V602.49H123.331L123.419 604.521ZM123.041 606.885L122.408 606.858C122.402 606.208 122.475 605.607 122.628 605.057C122.786 604.5 123.009 604.017 123.296 603.606C123.589 603.196 123.937 602.88 124.342 602.657C124.746 602.429 125.194 602.314 125.686 602.314C126.073 602.314 126.425 602.379 126.741 602.508C127.058 602.631 127.327 602.83 127.55 603.105C127.772 603.381 127.942 603.738 128.059 604.178C128.183 604.611 128.244 605.142 128.244 605.769V612H126.688V605.751C126.688 605.253 126.633 604.854 126.521 604.556C126.416 604.251 126.252 604.031 126.029 603.896C125.812 603.756 125.537 603.686 125.203 603.686C124.898 603.686 124.614 603.771 124.35 603.94C124.087 604.11 123.855 604.345 123.656 604.644C123.463 604.942 123.31 605.285 123.199 605.672C123.094 606.053 123.041 606.457 123.041 606.885ZM135.745 610.154V598.5H137.292V612H135.877L135.745 610.154ZM130.428 607.702V606.814C130.428 606.029 130.504 605.355 130.656 604.793C130.809 604.225 131.026 603.759 131.307 603.396C131.588 603.026 131.925 602.754 132.318 602.578C132.71 602.402 133.144 602.314 133.618 602.314C134.111 602.314 134.532 602.414 134.884 602.613C135.241 602.812 135.54 603.103 135.78 603.483C136.021 603.858 136.208 604.315 136.343 604.854C136.484 605.388 136.577 605.991 136.624 606.665V607.852C136.571 608.52 136.475 609.12 136.334 609.653C136.199 610.187 136.012 610.641 135.772 611.016C135.531 611.391 135.233 611.678 134.875 611.877C134.518 612.076 134.093 612.176 133.601 612.176C133.132 612.176 132.704 612.085 132.318 611.903C131.931 611.716 131.594 611.438 131.307 611.068C131.026 610.693 130.809 610.228 130.656 609.671C130.504 609.108 130.428 608.452 130.428 607.702ZM131.984 606.814V607.702C131.984 608.229 132.022 608.689 132.098 609.082C132.174 609.469 132.294 609.791 132.458 610.049C132.622 610.301 132.83 610.488 133.082 610.611C133.34 610.734 133.648 610.796 134.005 610.796C134.439 610.796 134.793 610.69 135.069 610.479C135.344 610.269 135.564 609.99 135.728 609.645C135.898 609.293 136.032 608.915 136.132 608.511V606.015C136.073 605.716 135.988 605.429 135.877 605.153C135.766 604.872 135.625 604.623 135.455 604.406C135.291 604.184 135.089 604.008 134.849 603.879C134.614 603.75 134.339 603.686 134.023 603.686C133.665 603.686 133.355 603.75 133.091 603.879C132.833 604.008 132.622 604.201 132.458 604.459C132.3 604.717 132.18 605.042 132.098 605.435C132.022 605.827 131.984 606.287 131.984 606.814ZM143.273 612.176C142.705 612.176 142.192 612.091 141.735 611.921C141.278 611.751 140.888 611.493 140.566 611.147C140.244 610.796 139.998 610.354 139.828 609.82C139.658 609.287 139.573 608.657 139.573 607.931V606.858C139.573 606.021 139.669 605.312 139.863 604.731C140.062 604.151 140.329 603.686 140.663 603.334C140.997 602.977 141.375 602.719 141.796 602.561C142.218 602.396 142.652 602.314 143.097 602.314C143.695 602.314 144.205 602.411 144.626 602.604C145.048 602.798 145.391 603.085 145.655 603.466C145.918 603.847 146.112 604.315 146.235 604.872C146.364 605.429 146.428 606.07 146.428 606.797V607.702H140.487V606.375H144.873V606.155C144.849 605.663 144.782 605.229 144.67 604.854C144.565 604.479 144.389 604.187 144.143 603.976C143.897 603.759 143.548 603.65 143.097 603.65C142.81 603.65 142.543 603.7 142.297 603.8C142.057 603.894 141.849 604.061 141.673 604.301C141.503 604.535 141.369 604.86 141.269 605.276C141.175 605.692 141.128 606.22 141.128 606.858V607.931C141.128 608.44 141.175 608.88 141.269 609.249C141.369 609.612 141.512 609.914 141.7 610.154C141.893 610.389 142.127 610.564 142.403 610.682C142.684 610.793 143.003 610.849 143.361 610.849C143.882 610.849 144.313 610.749 144.653 610.55C144.993 610.345 145.289 610.084 145.541 609.768L146.358 610.743C146.188 610.983 145.965 611.215 145.69 611.438C145.42 611.654 145.086 611.833 144.688 611.974C144.295 612.108 143.824 612.176 143.273 612.176ZM150.045 604.521V612H148.489V602.49H149.957L150.045 604.521ZM149.667 606.885L149.034 606.858C149.028 606.208 149.101 605.607 149.254 605.057C149.412 604.5 149.635 604.017 149.922 603.606C150.215 603.196 150.563 602.88 150.968 602.657C151.372 602.429 151.82 602.314 152.312 602.314C152.699 602.314 153.051 602.379 153.367 602.508C153.683 602.631 153.953 602.83 154.176 603.105C154.398 603.381 154.568 603.738 154.685 604.178C154.808 604.611 154.87 605.142 154.87 605.769V612H153.314V605.751C153.314 605.253 153.259 604.854 153.147 604.556C153.042 604.251 152.878 604.031 152.655 603.896C152.438 603.756 152.163 603.686 151.829 603.686C151.524 603.686 151.24 603.771 150.976 603.94C150.713 604.11 150.481 604.345 150.282 604.644C150.089 604.942 149.936 605.285 149.825 605.672C149.72 606.053 149.667 606.457 149.667 606.885ZM162.002 609.565C162.002 609.325 161.944 609.114 161.826 608.933C161.709 608.751 161.516 608.575 161.246 608.405C160.983 608.235 160.625 608.054 160.174 607.86C159.735 607.679 159.339 607.5 158.987 607.324C158.642 607.143 158.349 606.946 158.109 606.735C157.868 606.524 157.684 606.281 157.555 606.006C157.432 605.725 157.37 605.394 157.37 605.013C157.37 604.632 157.441 604.28 157.581 603.958C157.728 603.63 157.933 603.343 158.196 603.097C158.46 602.851 158.777 602.66 159.146 602.525C159.515 602.385 159.928 602.314 160.385 602.314C161.035 602.314 161.589 602.44 162.046 602.692C162.503 602.944 162.852 603.29 163.092 603.729C163.338 604.163 163.461 604.652 163.461 605.197H161.914C161.914 604.934 161.856 604.685 161.738 604.45C161.621 604.216 161.448 604.025 161.22 603.879C160.991 603.727 160.713 603.65 160.385 603.65C160.039 603.65 159.758 603.712 159.541 603.835C159.324 603.958 159.166 604.119 159.067 604.318C158.973 604.512 158.926 604.726 158.926 604.96C158.926 605.136 158.949 605.288 158.996 605.417C159.049 605.54 159.137 605.657 159.26 605.769C159.383 605.874 159.55 605.985 159.761 606.103C159.978 606.214 160.253 606.343 160.587 606.489C161.232 606.741 161.774 606.996 162.213 607.254C162.652 607.512 162.986 607.813 163.215 608.159C163.444 608.505 163.558 608.933 163.558 609.442C163.558 609.858 163.482 610.236 163.329 610.576C163.183 610.91 162.972 611.197 162.696 611.438C162.421 611.678 162.09 611.862 161.703 611.991C161.322 612.114 160.895 612.176 160.42 612.176C159.705 612.176 159.099 612.035 158.601 611.754C158.109 611.467 157.734 611.095 157.476 610.638C157.224 610.175 157.098 609.68 157.098 609.152H158.653C158.671 609.598 158.771 609.943 158.952 610.189C159.14 610.436 159.365 610.605 159.629 610.699C159.893 610.793 160.156 610.84 160.42 610.84C160.766 610.84 161.056 610.79 161.29 610.69C161.525 610.585 161.7 610.436 161.818 610.242C161.941 610.049 162.002 609.823 162.002 609.565ZM169.178 612.176C168.61 612.176 168.097 612.091 167.64 611.921C167.183 611.751 166.793 611.493 166.471 611.147C166.149 610.796 165.903 610.354 165.733 609.82C165.563 609.287 165.478 608.657 165.478 607.931V606.858C165.478 606.021 165.575 605.312 165.768 604.731C165.967 604.151 166.234 603.686 166.568 603.334C166.902 602.977 167.28 602.719 167.702 602.561C168.124 602.396 168.557 602.314 169.002 602.314C169.6 602.314 170.11 602.411 170.532 602.604C170.954 602.798 171.296 603.085 171.56 603.466C171.824 603.847 172.017 604.315 172.14 604.872C172.269 605.429 172.333 606.07 172.333 606.797V607.702H166.392V606.375H170.778V606.155C170.754 605.663 170.687 605.229 170.576 604.854C170.47 604.479 170.294 604.187 170.048 603.976C169.802 603.759 169.454 603.65 169.002 603.65C168.715 603.65 168.449 603.7 168.203 603.8C167.962 603.894 167.754 604.061 167.579 604.301C167.409 604.535 167.274 604.86 167.174 605.276C167.081 605.692 167.034 606.22 167.034 606.858V607.931C167.034 608.44 167.081 608.88 167.174 609.249C167.274 609.612 167.417 609.914 167.605 610.154C167.798 610.389 168.033 610.564 168.308 610.682C168.589 610.793 168.909 610.849 169.266 610.849C169.788 610.849 170.218 610.749 170.558 610.55C170.898 610.345 171.194 610.084 171.446 609.768L172.263 610.743C172.093 610.983 171.871 611.215 171.595 611.438C171.326 611.654 170.992 611.833 170.593 611.974C170.201 612.108 169.729 612.176 169.178 612.176ZM179.378 610.154V598.5H180.925V612H179.51L179.378 610.154ZM174.06 607.702V606.814C174.06 606.029 174.137 605.355 174.289 604.793C174.441 604.225 174.658 603.759 174.939 603.396C175.221 603.026 175.557 602.754 175.95 602.578C176.343 602.402 176.776 602.314 177.251 602.314C177.743 602.314 178.165 602.414 178.516 602.613C178.874 602.812 179.173 603.103 179.413 603.483C179.653 603.858 179.841 604.315 179.975 604.854C180.116 605.388 180.21 605.991 180.257 606.665V607.852C180.204 608.52 180.107 609.12 179.967 609.653C179.832 610.187 179.644 610.641 179.404 611.016C179.164 611.391 178.865 611.678 178.508 611.877C178.15 612.076 177.725 612.176 177.233 612.176C176.764 612.176 176.337 612.085 175.95 611.903C175.563 611.716 175.226 611.438 174.939 611.068C174.658 610.693 174.441 610.228 174.289 609.671C174.137 609.108 174.06 608.452 174.06 607.702ZM175.616 606.814V607.702C175.616 608.229 175.654 608.689 175.73 609.082C175.806 609.469 175.927 609.791 176.091 610.049C176.255 610.301 176.463 610.488 176.715 610.611C176.972 610.734 177.28 610.796 177.637 610.796C178.071 610.796 178.426 610.69 178.701 610.479C178.976 610.269 179.196 609.99 179.36 609.645C179.53 609.293 179.665 608.915 179.764 608.511V606.015C179.706 605.716 179.621 605.429 179.51 605.153C179.398 604.872 179.258 604.623 179.088 604.406C178.924 604.184 178.721 604.008 178.481 603.879C178.247 603.75 177.971 603.686 177.655 603.686C177.298 603.686 176.987 603.75 176.723 603.879C176.466 604.008 176.255 604.201 176.091 604.459C175.932 604.717 175.812 605.042 175.73 605.435C175.654 605.827 175.616 606.287 175.616 606.814ZM46.3887 626.203H49.9658C50.7979 626.203 51.4951 626.35 52.0576 626.643C52.626 626.936 53.0537 627.369 53.3408 627.943C53.6338 628.512 53.7803 629.212 53.7803 630.044C53.7803 630.63 53.6836 631.166 53.4902 631.652C53.2969 632.133 53.0156 632.543 52.6465 632.883C52.2773 633.217 51.8291 633.466 51.3018 633.63L50.8623 633.814H47.6719L47.6543 632.435H49.9482C50.4404 632.435 50.8506 632.329 51.1787 632.118C51.5068 631.901 51.7529 631.611 51.917 631.248C52.0811 630.885 52.1631 630.483 52.1631 630.044C52.1631 629.552 52.0898 629.121 51.9434 628.752C51.7969 628.383 51.5625 628.099 51.2402 627.899C50.9238 627.694 50.499 627.592 49.9658 627.592H48.0059V639H46.3887V626.203ZM52.5322 639L49.9834 633.199L51.6621 633.19L54.2637 638.895V639H52.5322ZM59.3128 639.176C58.7445 639.176 58.2318 639.091 57.7747 638.921C57.3177 638.751 56.928 638.493 56.6058 638.147C56.2835 637.796 56.0374 637.354 55.8675 636.82C55.6976 636.287 55.6126 635.657 55.6126 634.931V633.858C55.6126 633.021 55.7093 632.312 55.9027 631.731C56.1019 631.151 56.3685 630.686 56.7025 630.334C57.0364 629.977 57.4144 629.719 57.8363 629.561C58.2581 629.396 58.6917 629.314 59.137 629.314C59.7347 629.314 60.2445 629.411 60.6663 629.604C61.0882 629.798 61.431 630.085 61.6946 630.466C61.9583 630.847 62.1517 631.315 62.2747 631.872C62.4036 632.429 62.4681 633.07 62.4681 633.797V634.702H56.5267V633.375H60.9124V633.155C60.889 632.663 60.8216 632.229 60.7103 631.854C60.6048 631.479 60.429 631.187 60.1829 630.976C59.9368 630.759 59.5882 630.65 59.137 630.65C58.8499 630.65 58.5833 630.7 58.3372 630.8C58.097 630.894 57.889 631.061 57.7132 631.301C57.5433 631.535 57.4085 631.86 57.3089 632.276C57.2152 632.692 57.1683 633.22 57.1683 633.858V634.931C57.1683 635.44 57.2152 635.88 57.3089 636.249C57.4085 636.612 57.5521 636.914 57.7396 637.154C57.9329 637.389 58.1673 637.564 58.4427 637.682C58.7239 637.793 59.0433 637.849 59.4007 637.849C59.9222 637.849 60.3529 637.749 60.6927 637.55C61.0325 637.345 61.3284 637.084 61.5804 636.768L62.3978 637.743C62.2279 637.983 62.0052 638.215 61.7298 638.438C61.4603 638.654 61.1263 638.833 60.7279 638.974C60.3353 639.108 59.8636 639.176 59.3128 639.176ZM69.6793 629.49H71.0768V639.079C71.0768 639.917 70.9303 640.608 70.6373 641.153C70.3502 641.698 69.9489 642.1 69.4332 642.357C68.9176 642.621 68.3229 642.753 67.6491 642.753C67.4088 642.753 67.1071 642.709 66.7438 642.621C66.3805 642.533 66.0172 642.398 65.6539 642.217C65.2907 642.041 64.9918 641.818 64.7575 641.549L65.3991 640.468C65.733 640.808 66.0875 641.051 66.4625 641.197C66.8375 641.344 67.195 641.417 67.5348 641.417C67.9391 641.417 68.2907 641.344 68.5895 641.197C68.8883 641.051 69.1198 640.811 69.2838 640.477C69.4479 640.148 69.5299 639.709 69.5299 639.158V631.582L69.6793 629.49ZM64.2125 634.702V633.814C64.2125 633.029 64.2858 632.355 64.4323 631.793C64.5788 631.225 64.7897 630.759 65.0651 630.396C65.3463 630.026 65.6832 629.754 66.0758 629.578C66.4684 629.402 66.9079 629.314 67.3942 629.314C67.8864 629.314 68.3112 629.414 68.6686 629.613C69.026 629.812 69.3219 630.103 69.5563 630.483C69.7965 630.858 69.984 631.315 70.1188 631.854C70.2594 632.388 70.3561 632.991 70.4088 633.665V634.852C70.3561 635.52 70.2594 636.12 70.1188 636.653C69.984 637.187 69.7936 637.641 69.5475 638.016C69.3073 638.391 69.0084 638.678 68.651 638.877C68.2936 639.076 67.8688 639.176 67.3766 639.176C66.8961 639.176 66.4625 639.085 66.0758 638.903C65.6891 638.716 65.3551 638.438 65.0739 638.068C64.7985 637.693 64.5846 637.228 64.4323 636.671C64.2858 636.108 64.2125 635.452 64.2125 634.702ZM65.7682 633.814V634.702C65.7682 635.229 65.8063 635.689 65.8825 636.082C65.9586 636.469 66.0758 636.791 66.234 637.049C66.3981 637.301 66.6061 637.488 66.858 637.611C67.1159 637.734 67.4235 637.796 67.7809 637.796C68.2145 637.796 68.569 637.69 68.8444 637.479C69.1198 637.269 69.3395 636.99 69.5036 636.645C69.6735 636.293 69.8082 635.915 69.9079 635.511V633.015C69.8493 632.716 69.7643 632.429 69.653 632.153C69.5475 631.872 69.4098 631.623 69.2399 631.406C69.07 631.184 68.8649 631.008 68.6246 630.879C68.3903 630.75 68.1149 630.686 67.7985 630.686C67.4411 630.686 67.1334 630.75 66.8756 630.879C66.6178 631.008 66.4069 631.201 66.2428 631.459C66.0788 631.717 65.9586 632.042 65.8825 632.435C65.8063 632.827 65.7682 633.287 65.7682 633.814ZM78.3935 636.803V629.49H79.9492V639H78.4726L78.3935 636.803ZM78.6836 634.799L79.2988 634.781C79.2988 635.414 79.2431 636 79.1318 636.539C79.0263 637.072 78.8505 637.535 78.6045 637.928C78.3642 638.32 78.0449 638.628 77.6464 638.851C77.248 639.067 76.7588 639.176 76.1787 639.176C75.7861 639.176 75.4287 639.108 75.1064 638.974C74.79 638.839 74.5146 638.631 74.2802 638.35C74.0517 638.068 73.873 637.702 73.7441 637.251C73.6211 636.8 73.5595 636.258 73.5595 635.625V629.49H75.1064V635.643C75.1064 636.07 75.1445 636.425 75.2207 636.706C75.2968 636.981 75.3994 637.201 75.5283 637.365C75.6572 637.523 75.8007 637.635 75.9589 637.699C76.1171 637.764 76.2783 637.796 76.4423 637.796C76.9931 637.796 77.4326 637.664 77.7607 637.4C78.0888 637.131 78.3232 636.771 78.4638 636.319C78.6103 635.862 78.6836 635.355 78.6836 634.799ZM84.137 625.5V639H82.5901V625.5H84.137ZM91.4361 637.374V632.215C91.4361 631.84 91.3775 631.538 91.2604 631.31C91.149 631.081 90.9791 630.914 90.7506 630.809C90.5279 630.703 90.2467 630.65 89.9068 630.65C89.5787 630.65 89.2945 630.718 89.0543 630.853C88.8199 630.987 88.6383 631.166 88.5094 631.389C88.3863 631.611 88.3248 631.857 88.3248 632.127H86.7691C86.7691 631.787 86.8424 631.45 86.9889 631.116C87.1412 630.782 87.358 630.48 87.6393 630.211C87.9205 629.936 88.2574 629.719 88.65 629.561C89.0484 629.396 89.4938 629.314 89.9859 629.314C90.5719 629.314 91.0904 629.411 91.5416 629.604C91.9928 629.792 92.3473 630.1 92.6051 630.527C92.8629 630.955 92.9918 631.523 92.9918 632.232V636.926C92.9918 637.242 93.0152 637.579 93.0621 637.937C93.1148 638.294 93.1881 638.602 93.2818 638.859V639H91.6734C91.5973 638.812 91.5387 638.563 91.4977 638.253C91.4566 637.937 91.4361 637.644 91.4361 637.374ZM91.6822 633.234L91.6998 634.377H90.6188C90.2496 634.377 89.9127 634.418 89.608 634.5C89.3092 634.582 89.0514 634.702 88.8346 634.86C88.6178 635.013 88.4508 635.203 88.3336 635.432C88.2223 635.66 88.1666 635.921 88.1666 636.214C88.1666 636.595 88.2193 636.899 88.3248 637.128C88.4303 637.351 88.5885 637.512 88.7994 637.611C89.0104 637.711 89.277 637.761 89.5992 637.761C89.9918 637.761 90.3375 637.67 90.6363 637.488C90.9352 637.307 91.1666 637.087 91.3307 636.829C91.5006 636.571 91.5797 636.331 91.568 636.108L91.9107 636.838C91.8873 637.066 91.8111 637.315 91.6822 637.585C91.5592 637.849 91.3863 638.104 91.1637 638.35C90.941 638.59 90.6773 638.789 90.3727 638.947C90.0738 639.1 89.7369 639.176 89.3619 639.176C88.8111 639.176 88.3277 639.07 87.9117 638.859C87.5016 638.648 87.1822 638.338 86.9537 637.928C86.7252 637.518 86.6109 637.011 86.6109 636.407C86.6109 635.95 86.69 635.528 86.8482 635.142C87.0064 634.755 87.2408 634.421 87.5514 634.14C87.8619 633.853 88.2516 633.63 88.7203 633.472C89.1949 633.313 89.7428 633.234 90.3639 633.234H91.6822ZM97.1445 630.984V639H95.5888V629.49H97.0917L97.1445 630.984ZM99.5087 629.438L99.5175 630.949C99.3886 630.92 99.2714 630.902 99.1659 630.896C99.0663 630.885 98.9491 630.879 98.8144 630.879C98.5214 630.879 98.2636 630.938 98.0409 631.055C97.8241 631.172 97.6366 631.336 97.4784 631.547C97.3202 631.758 97.1943 632.01 97.1005 632.303C97.0068 632.59 96.9423 632.906 96.9072 633.252L96.5029 633.516C96.5029 632.941 96.5468 632.402 96.6347 631.898C96.7284 631.395 96.872 630.949 97.0654 630.562C97.2587 630.17 97.5048 629.865 97.8036 629.648C98.1083 629.426 98.4716 629.314 98.8935 629.314C98.9872 629.314 99.1015 629.329 99.2363 629.358C99.3769 629.382 99.4677 629.408 99.5087 629.438ZM107.647 631.898L109.22 630.536C109.531 630.284 109.762 630.032 109.915 629.78C110.067 629.522 110.143 629.171 110.143 628.726C110.143 628.38 110.035 628.066 109.818 627.785C109.607 627.498 109.305 627.354 108.913 627.354C108.649 627.354 108.426 627.434 108.245 627.592C108.063 627.75 107.925 627.961 107.832 628.225C107.744 628.482 107.7 628.767 107.7 629.077C107.7 629.341 107.755 629.613 107.867 629.895C107.984 630.176 108.139 630.469 108.333 630.773C108.526 631.078 108.746 631.4 108.992 631.74L114.028 639H112.173L108.104 633.059C107.735 632.543 107.401 632.071 107.102 631.644C106.809 631.21 106.575 630.791 106.399 630.387C106.229 629.982 106.144 629.563 106.144 629.13C106.144 628.462 106.258 627.899 106.487 627.442C106.721 626.979 107.046 626.628 107.462 626.388C107.878 626.147 108.365 626.027 108.921 626.027C109.466 626.027 109.935 626.153 110.328 626.405C110.726 626.651 111.034 626.979 111.251 627.39C111.467 627.794 111.576 628.239 111.576 628.726C111.576 629.136 111.517 629.505 111.4 629.833C111.283 630.155 111.113 630.451 110.89 630.721C110.673 630.99 110.413 631.254 110.108 631.512L107.911 633.401C107.583 633.712 107.342 634.008 107.19 634.289C107.044 634.57 106.95 634.819 106.909 635.036C106.874 635.253 106.856 635.426 106.856 635.555C106.856 635.971 106.926 636.352 107.067 636.697C107.213 637.043 107.433 637.321 107.726 637.532C108.019 637.737 108.388 637.84 108.834 637.84C109.226 637.84 109.607 637.729 109.976 637.506C110.351 637.277 110.688 636.955 110.987 636.539C111.286 636.117 111.523 635.616 111.699 635.036C111.88 634.45 111.971 633.803 111.971 633.094H113.36C113.36 633.674 113.313 634.222 113.219 634.737C113.126 635.253 112.976 635.733 112.771 636.179C112.572 636.618 112.314 637.02 111.998 637.383C111.957 637.436 111.921 637.497 111.892 637.567C111.863 637.638 111.828 637.699 111.787 637.752C111.418 638.227 110.961 638.584 110.416 638.824C109.877 639.059 109.349 639.176 108.834 639.176C108.107 639.176 107.48 639.021 106.953 638.71C106.425 638.399 106.018 637.972 105.731 637.427C105.444 636.882 105.3 636.258 105.3 635.555C105.3 635.016 105.4 634.541 105.599 634.131C105.798 633.721 106.074 633.337 106.425 632.979C106.783 632.622 107.19 632.262 107.647 631.898ZM123.933 633.015H121.331L121.314 631.652H123.731C124.094 631.652 124.416 631.57 124.697 631.406C124.979 631.242 125.198 631.008 125.357 630.703C125.521 630.393 125.603 630.023 125.603 629.596C125.603 629.127 125.532 628.746 125.392 628.453C125.257 628.154 125.049 627.938 124.768 627.803C124.492 627.662 124.141 627.592 123.713 627.592H121.674V639H120.057V626.203H123.713C124.264 626.203 124.756 626.271 125.19 626.405C125.623 626.534 125.989 626.739 126.288 627.021C126.593 627.296 126.824 627.647 126.983 628.075C127.141 628.503 127.22 629.016 127.22 629.613C127.22 630.141 127.1 630.618 126.86 631.046C126.625 631.468 126.297 631.813 125.875 632.083C125.453 632.353 124.967 632.525 124.416 632.602L123.933 633.015ZM123.871 639H120.663L121.604 637.62H123.871C124.293 637.62 124.651 637.526 124.944 637.339C125.237 637.151 125.459 636.888 125.612 636.548C125.77 636.202 125.849 635.795 125.849 635.326C125.849 634.852 125.784 634.441 125.655 634.096C125.527 633.75 125.321 633.483 125.04 633.296C124.759 633.108 124.39 633.015 123.933 633.015H121.85L121.867 631.652H124.68L125.04 632.145C125.568 632.197 126.01 632.373 126.367 632.672C126.731 632.965 127.003 633.34 127.185 633.797C127.372 634.254 127.466 634.758 127.466 635.309C127.466 636.105 127.317 636.779 127.018 637.33C126.725 637.875 126.309 638.291 125.77 638.578C125.231 638.859 124.598 639 123.871 639ZM129.527 634.702V633.797C129.527 633.059 129.621 632.411 129.808 631.854C129.996 631.292 130.256 630.823 130.59 630.448C130.924 630.073 131.314 629.792 131.759 629.604C132.205 629.411 132.682 629.314 133.192 629.314C133.713 629.314 134.197 629.411 134.642 629.604C135.087 629.792 135.477 630.073 135.811 630.448C136.151 630.823 136.415 631.292 136.602 631.854C136.79 632.411 136.883 633.059 136.883 633.797V634.702C136.883 635.44 136.79 636.091 136.602 636.653C136.415 637.21 136.154 637.676 135.82 638.051C135.486 638.426 135.096 638.707 134.651 638.895C134.206 639.082 133.725 639.176 133.209 639.176C132.694 639.176 132.213 639.082 131.768 638.895C131.323 638.707 130.93 638.426 130.59 638.051C130.256 637.676 129.996 637.21 129.808 636.653C129.621 636.091 129.527 635.44 129.527 634.702ZM131.083 633.797V634.702C131.083 635.224 131.135 635.681 131.241 636.073C131.346 636.466 131.496 636.794 131.689 637.058C131.882 637.321 132.108 637.521 132.366 637.655C132.624 637.784 132.905 637.849 133.209 637.849C133.561 637.849 133.869 637.784 134.132 637.655C134.402 637.521 134.625 637.321 134.8 637.058C134.976 636.794 135.108 636.466 135.196 636.073C135.284 635.681 135.328 635.224 135.328 634.702V633.797C135.328 633.275 135.275 632.821 135.169 632.435C135.064 632.042 134.915 631.714 134.721 631.45C134.528 631.181 134.299 630.981 134.036 630.853C133.778 630.718 133.497 630.65 133.192 630.65C132.893 630.65 132.615 630.718 132.357 630.853C132.099 630.981 131.874 631.181 131.68 631.45C131.493 631.714 131.346 632.042 131.241 632.435C131.135 632.821 131.083 633.275 131.083 633.797ZM140.737 625.5V639H139.19V625.5H140.737ZM148.361 637.154V625.5H149.908V639H148.493L148.361 637.154ZM143.044 634.702V633.814C143.044 633.029 143.12 632.355 143.273 631.793C143.425 631.225 143.642 630.759 143.923 630.396C144.204 630.026 144.541 629.754 144.934 629.578C145.326 629.402 145.76 629.314 146.235 629.314C146.727 629.314 147.149 629.414 147.5 629.613C147.858 629.812 148.156 630.103 148.397 630.483C148.637 630.858 148.824 631.315 148.959 631.854C149.1 632.388 149.194 632.991 149.24 633.665V634.852C149.188 635.52 149.091 636.12 148.95 636.653C148.816 637.187 148.628 637.641 148.388 638.016C148.148 638.391 147.849 638.678 147.491 638.877C147.134 639.076 146.709 639.176 146.217 639.176C145.748 639.176 145.32 639.085 144.934 638.903C144.547 638.716 144.21 638.438 143.923 638.068C143.642 637.693 143.425 637.228 143.273 636.671C143.12 636.108 143.044 635.452 143.044 634.702ZM144.6 633.814V634.702C144.6 635.229 144.638 635.689 144.714 636.082C144.79 636.469 144.91 636.791 145.074 637.049C145.238 637.301 145.446 637.488 145.698 637.611C145.956 637.734 146.264 637.796 146.621 637.796C147.055 637.796 147.409 637.69 147.685 637.479C147.96 637.269 148.18 636.99 148.344 636.645C148.514 636.293 148.649 635.915 148.748 635.511V633.015C148.69 632.716 148.605 632.429 148.493 632.153C148.382 631.872 148.241 631.623 148.071 631.406C147.907 631.184 147.705 631.008 147.465 630.879C147.231 630.75 146.955 630.686 146.639 630.686C146.281 630.686 145.971 630.75 145.707 630.879C145.449 631.008 145.238 631.201 145.074 631.459C144.916 631.717 144.796 632.042 144.714 632.435C144.638 632.827 144.6 633.287 144.6 633.814Z" fill="black"/>
<path d="M50.7656 47.7793L53.2793 53H54.9932L55.002 52.8945L52.2861 47.4277C52.6377 47.2754 52.96 47.0908 53.2529 46.874C53.5459 46.6572 53.7979 46.4082 54.0088 46.127C54.2197 45.8457 54.3838 45.5322 54.501 45.1865C54.624 44.8408 54.6855 44.46 54.6855 44.0439C54.6855 43.3994 54.5713 42.8398 54.3428 42.3652C54.1201 41.8848 53.8125 41.4863 53.4199 41.1699C53.0215 40.8535 52.5586 40.6162 52.0312 40.458C51.5039 40.2998 50.9414 40.2148 50.3438 40.2031H46.5908V53H48.208V47.7793H50.7656ZM48.208 46.4434V41.5391H50.3438C50.7363 41.5449 51.0967 41.6006 51.4248 41.7061C51.7588 41.8115 52.0459 41.9668 52.2861 42.1719C52.5264 42.3828 52.7139 42.6436 52.8486 42.9541C52.9834 43.2588 53.0508 43.6162 53.0508 44.0264C53.0508 44.4131 52.9805 44.7559 52.8398 45.0547C52.6992 45.3477 52.5088 45.5967 52.2686 45.8018C52.0225 46.0068 51.7383 46.165 51.416 46.2764C51.0938 46.3818 50.751 46.4375 50.3877 46.4434H48.208ZM57.0628 48.1572V48.3506C57.0628 49.0361 57.1624 49.6719 57.3616 50.2578C57.5609 50.8438 57.848 51.3535 58.223 51.7871C58.5921 52.2207 59.0433 52.5605 59.5765 52.8066C60.1155 53.0527 60.722 53.1758 61.3958 53.1758C62.0638 53.1758 62.6644 53.0527 63.1976 52.8066C63.7308 52.5605 64.1849 52.2207 64.5599 51.7871C64.929 51.3535 65.2132 50.8438 65.4124 50.2578C65.6116 49.6719 65.7113 49.0361 65.7113 48.3506V48.1572C65.7113 47.4717 65.6116 46.8359 65.4124 46.25C65.2132 45.6582 64.929 45.1455 64.5599 44.7119C64.1849 44.2783 63.7279 43.9385 63.1888 43.6924C62.6556 43.4404 62.0521 43.3145 61.3782 43.3145C60.7103 43.3145 60.1097 43.4404 59.5765 43.6924C59.0433 43.9385 58.5921 44.2783 58.223 44.7119C57.848 45.1455 57.5609 45.6582 57.3616 46.25C57.1624 46.8359 57.0628 47.4717 57.0628 48.1572ZM58.6888 48.3506V48.1572C58.6888 47.6943 58.7445 47.252 58.8558 46.8301C58.9671 46.4023 59.137 46.0273 59.3655 45.7051C59.5882 45.3828 59.8665 45.1279 60.2005 44.9404C60.5345 44.7471 60.9271 44.6504 61.3782 44.6504C61.8294 44.6504 62.222 44.7471 62.556 44.9404C62.8958 45.1279 63.18 45.3828 63.4085 45.7051C63.6312 46.0273 63.7982 46.4023 63.9095 46.8301C64.0267 47.252 64.0853 47.6943 64.0853 48.1572V48.3506C64.0853 48.8193 64.0296 49.2676 63.9183 49.6953C63.807 50.1172 63.64 50.4893 63.4173 50.8115C63.1888 51.1338 62.9046 51.3887 62.5648 51.5762C62.2308 51.7637 61.8411 51.8574 61.3958 51.8574C60.9446 51.8574 60.5491 51.7637 60.2093 51.5762C59.8695 51.3887 59.5882 51.1338 59.3655 50.8115C59.137 50.4893 58.9671 50.1172 58.8558 49.6953C58.7445 49.2676 58.6888 48.8193 58.6888 48.3506ZM76.57 48.3506V48.166C76.57 47.668 76.5289 47.1963 76.4469 46.751C76.3649 46.2998 76.2448 45.8896 76.0866 45.5205C75.9342 45.1924 75.7584 44.8965 75.5592 44.6328C75.36 44.3633 75.1344 44.1348 74.8825 43.9473C74.6012 43.748 74.2877 43.5928 73.942 43.4814C73.5963 43.3701 73.2184 43.3145 72.8082 43.3145C72.4801 43.3145 72.1754 43.3467 71.8942 43.4111C71.6129 43.4756 71.3551 43.5693 71.1207 43.6924C70.9332 43.792 70.7575 43.9121 70.5934 44.0527C70.4293 44.1875 70.2799 44.3398 70.1452 44.5098V39.5H68.5192V53H70.0133L70.0924 51.9189C70.1979 52.0537 70.3092 52.1768 70.4264 52.2881C70.5436 52.3994 70.6666 52.502 70.7955 52.5957C71.0651 52.7832 71.3668 52.9268 71.7008 53.0264C72.0407 53.126 72.4157 53.1758 72.8258 53.1758C73.1832 53.1758 73.5143 53.1318 73.819 53.0439C74.1295 52.9561 74.4137 52.833 74.6715 52.6748C75.0289 52.4463 75.3336 52.1592 75.5856 51.8135C75.8434 51.4619 76.0514 51.0664 76.2096 50.627C76.3268 50.293 76.4147 49.9355 76.4733 49.5547C76.5377 49.168 76.57 48.7666 76.57 48.3506ZM74.944 48.166V48.3506C74.944 48.6318 74.9264 48.9072 74.8913 49.1768C74.8561 49.4463 74.8004 49.6982 74.7243 49.9326C74.6305 50.2432 74.5045 50.5244 74.3463 50.7764C74.1881 51.0283 73.9918 51.2363 73.7575 51.4004C73.5817 51.5293 73.3825 51.6289 73.1598 51.6992C72.9371 51.7637 72.6911 51.7959 72.4215 51.7959C72.1403 51.7959 71.8825 51.7607 71.6481 51.6904C71.4137 51.6143 71.2028 51.5088 71.0153 51.374C70.8278 51.2393 70.6608 51.084 70.5143 50.9082C70.3737 50.7266 70.2506 50.5303 70.1452 50.3193V46.1621C70.2448 45.9512 70.3649 45.7578 70.5055 45.582C70.652 45.4004 70.819 45.2422 71.0065 45.1074C71.1881 44.9785 71.3961 44.8789 71.6305 44.8086C71.8649 44.7324 72.1227 44.6943 72.4039 44.6943C72.6618 44.6943 72.8961 44.7236 73.1071 44.7822C73.318 44.8408 73.5084 44.9229 73.6784 45.0283C73.9245 45.1748 74.1325 45.377 74.3024 45.6348C74.4723 45.8926 74.61 46.1768 74.7155 46.4873C74.7916 46.7393 74.8473 47.0088 74.8825 47.2959C74.9235 47.5771 74.944 47.8672 74.944 48.166ZM79.0439 48.1572V48.3506C79.0439 49.0361 79.1435 49.6719 79.3427 50.2578C79.542 50.8438 79.8291 51.3535 80.2041 51.7871C80.5732 52.2207 81.0244 52.5605 81.5576 52.8066C82.0966 53.0527 82.7031 53.1758 83.3769 53.1758C84.0449 53.1758 84.6455 53.0527 85.1787 52.8066C85.7119 52.5605 86.166 52.2207 86.541 51.7871C86.9101 51.3535 87.1943 50.8438 87.3935 50.2578C87.5927 49.6719 87.6923 49.0361 87.6923 48.3506V48.1572C87.6923 47.4717 87.5927 46.8359 87.3935 46.25C87.1943 45.6582 86.9101 45.1455 86.541 44.7119C86.166 44.2783 85.7089 43.9385 85.1699 43.6924C84.6367 43.4404 84.0332 43.3145 83.3593 43.3145C82.6914 43.3145 82.0908 43.4404 81.5576 43.6924C81.0244 43.9385 80.5732 44.2783 80.2041 44.7119C79.8291 45.1455 79.542 45.6582 79.3427 46.25C79.1435 46.8359 79.0439 47.4717 79.0439 48.1572ZM80.6699 48.3506V48.1572C80.6699 47.6943 80.7255 47.252 80.8369 46.8301C80.9482 46.4023 81.1181 46.0273 81.3466 45.7051C81.5693 45.3828 81.8476 45.1279 82.1816 44.9404C82.5156 44.7471 82.9082 44.6504 83.3593 44.6504C83.8105 44.6504 84.2031 44.7471 84.5371 44.9404C84.8769 45.1279 85.1611 45.3828 85.3896 45.7051C85.6123 46.0273 85.7793 46.4023 85.8906 46.8301C86.0078 47.252 86.0664 47.6943 86.0664 48.1572V48.3506C86.0664 48.8193 86.0107 49.2676 85.8994 49.6953C85.788 50.1172 85.6211 50.4893 85.3984 50.8115C85.1699 51.1338 84.8857 51.3887 84.5459 51.5762C84.2119 51.7637 83.8222 51.8574 83.3769 51.8574C82.9257 51.8574 82.5302 51.7637 82.1904 51.5762C81.8505 51.3887 81.5693 51.1338 81.3466 50.8115C81.1181 50.4893 80.9482 50.1172 80.8369 49.6953C80.7255 49.2676 80.6699 48.8193 80.6699 48.3506ZM94.3411 41.1875H92.7063V43.4902H90.2102V44.7471H92.7063V49.915C92.7063 50.501 92.7825 51.002 92.9348 51.418C93.093 51.8281 93.3069 52.1621 93.5764 52.4199C93.846 52.6836 94.1624 52.877 94.5257 53C94.8948 53.1172 95.2903 53.1758 95.7122 53.1758C95.9641 53.1758 96.2161 53.1641 96.468 53.1406C96.7259 53.1172 96.969 53.082 97.1975 53.0352C97.4261 52.9941 97.637 52.9443 97.8304 52.8857C98.0237 52.8213 98.1878 52.748 98.3225 52.666L98.094 51.5146C97.9944 51.5381 97.8655 51.5674 97.7073 51.6025C97.555 51.6318 97.3909 51.6611 97.2151 51.6904C97.0335 51.7197 96.8489 51.7461 96.6614 51.7695C96.4739 51.7871 96.2923 51.7959 96.1165 51.7959C95.8763 51.7959 95.6477 51.7666 95.4309 51.708C95.22 51.6494 95.0325 51.5469 94.8684 51.4004C94.7044 51.2598 94.5755 51.0693 94.4817 50.8291C94.388 50.5889 94.3411 50.2842 94.3411 49.915V44.7471H97.9622V43.4902H94.3411V41.1875ZM101.025 48.1572V48.3506C101.025 49.0361 101.125 49.6719 101.324 50.2578C101.523 50.8438 101.81 51.3535 102.185 51.7871C102.554 52.2207 103.005 52.5605 103.539 52.8066C104.078 53.0527 104.684 53.1758 105.358 53.1758C106.026 53.1758 106.627 53.0527 107.16 52.8066C107.693 52.5605 108.147 52.2207 108.522 51.7871C108.891 51.3535 109.175 50.8438 109.375 50.2578C109.574 49.6719 109.673 49.0361 109.673 48.3506V48.1572C109.673 47.4717 109.574 46.8359 109.375 46.25C109.175 45.6582 108.891 45.1455 108.522 44.7119C108.147 44.2783 107.69 43.9385 107.151 43.6924C106.618 43.4404 106.014 43.3145 105.34 43.3145C104.672 43.3145 104.072 43.4404 103.539 43.6924C103.005 43.9385 102.554 44.2783 102.185 44.7119C101.81 45.1455 101.523 45.6582 101.324 46.25C101.125 46.8359 101.025 47.4717 101.025 48.1572ZM102.651 48.3506V48.1572C102.651 47.6943 102.707 47.252 102.818 46.8301C102.929 46.4023 103.099 46.0273 103.328 45.7051C103.55 45.3828 103.829 45.1279 104.163 44.9404C104.497 44.7471 104.889 44.6504 105.34 44.6504C105.792 44.6504 106.184 44.7471 106.518 44.9404C106.858 45.1279 107.142 45.3828 107.371 45.7051C107.593 46.0273 107.76 46.4023 107.872 46.8301C107.989 47.252 108.047 47.6943 108.047 48.1572V48.3506C108.047 48.8193 107.992 49.2676 107.88 49.6953C107.769 50.1172 107.602 50.4893 107.379 50.8115C107.151 51.1338 106.867 51.3887 106.527 51.5762C106.193 51.7637 105.803 51.8574 105.358 51.8574C104.907 51.8574 104.511 51.7637 104.171 51.5762C103.832 51.3887 103.55 51.1338 103.328 50.8115C103.099 50.4893 102.929 50.1172 102.818 49.6953C102.707 49.2676 102.651 48.8193 102.651 48.3506ZM125.247 40.2031H123.235V53H124.817V47.8936L124.685 42.7344L126.856 49.4404H127.787L130.152 42.5498L130.02 47.8936V53H131.602V40.2031H129.58L127.33 46.6016L125.247 40.2031ZM133.997 48.1572V48.3506C133.997 49.0361 134.096 49.6719 134.295 50.2578C134.495 50.8438 134.782 51.3535 135.157 51.7871C135.526 52.2207 135.977 52.5605 136.51 52.8066C137.049 53.0527 137.656 53.1758 138.33 53.1758C138.998 53.1758 139.598 53.0527 140.131 52.8066C140.665 52.5605 141.119 52.2207 141.494 51.7871C141.863 51.3535 142.147 50.8438 142.346 50.2578C142.545 49.6719 142.645 49.0361 142.645 48.3506V48.1572C142.645 47.4717 142.545 46.8359 142.346 46.25C142.147 45.6582 141.863 45.1455 141.494 44.7119C141.119 44.2783 140.662 43.9385 140.123 43.6924C139.589 43.4404 138.986 43.3145 138.312 43.3145C137.644 43.3145 137.044 43.4404 136.51 43.6924C135.977 43.9385 135.526 44.2783 135.157 44.7119C134.782 45.1455 134.495 45.6582 134.295 46.25C134.096 46.8359 133.997 47.4717 133.997 48.1572ZM135.623 48.3506V48.1572C135.623 47.6943 135.678 47.252 135.79 46.8301C135.901 46.4023 136.071 46.0273 136.299 45.7051C136.522 45.3828 136.8 45.1279 137.134 44.9404C137.468 44.7471 137.861 44.6504 138.312 44.6504C138.763 44.6504 139.156 44.7471 139.49 44.9404C139.83 45.1279 140.114 45.3828 140.342 45.7051C140.565 46.0273 140.732 46.4023 140.843 46.8301C140.961 47.252 141.019 47.6943 141.019 48.1572V48.3506C141.019 48.8193 140.963 49.2676 140.852 49.6953C140.741 50.1172 140.574 50.4893 140.351 50.8115C140.123 51.1338 139.838 51.3887 139.499 51.5762C139.165 51.7637 138.775 51.8574 138.33 51.8574C137.878 51.8574 137.483 51.7637 137.143 51.5762C136.803 51.3887 136.522 51.1338 136.299 50.8115C136.071 50.4893 135.901 50.1172 135.79 49.6953C135.678 49.2676 135.623 48.8193 135.623 48.3506ZM145.444 53H147.07V46.1797C147.182 45.9746 147.31 45.7871 147.457 45.6172C147.609 45.4473 147.773 45.2979 147.949 45.1689C148.166 45.0225 148.403 44.9082 148.661 44.8262C148.919 44.7383 149.197 44.6943 149.496 44.6943C149.842 44.6943 150.146 44.7354 150.41 44.8174C150.68 44.8994 150.908 45.0312 151.096 45.2129C151.277 45.3945 151.415 45.6318 151.509 45.9248C151.602 46.2178 151.649 46.5752 151.649 46.9971V53H153.275V46.9619C153.275 46.3291 153.196 45.7842 153.038 45.3271C152.886 44.8643 152.666 44.4834 152.379 44.1846C152.092 43.8857 151.743 43.666 151.333 43.5254C150.929 43.3848 150.477 43.3145 149.979 43.3145C149.61 43.3203 149.259 43.376 148.925 43.4814C148.597 43.5811 148.292 43.7246 148.011 43.9121C147.823 44.0352 147.644 44.1816 147.474 44.3516C147.31 44.5156 147.158 44.6973 147.017 44.8965L146.903 43.4902H145.444V53ZM155.978 48.1572V48.3506C155.978 49.0361 156.077 49.6719 156.277 50.2578C156.476 50.8438 156.763 51.3535 157.138 51.7871C157.507 52.2207 157.958 52.5605 158.491 52.8066C159.03 53.0527 159.637 53.1758 160.311 53.1758C160.979 53.1758 161.579 53.0527 162.113 52.8066C162.646 52.5605 163.1 52.2207 163.475 51.7871C163.844 51.3535 164.128 50.8438 164.327 50.2578C164.527 49.6719 164.626 49.0361 164.626 48.3506V48.1572C164.626 47.4717 164.527 46.8359 164.327 46.25C164.128 45.6582 163.844 45.1455 163.475 44.7119C163.1 44.2783 162.643 43.9385 162.104 43.6924C161.571 43.4404 160.967 43.3145 160.293 43.3145C159.625 43.3145 159.025 43.4404 158.491 43.6924C157.958 43.9385 157.507 44.2783 157.138 44.7119C156.763 45.1455 156.476 45.6582 156.277 46.25C156.077 46.8359 155.978 47.4717 155.978 48.1572ZM157.604 48.3506V48.1572C157.604 47.6943 157.659 47.252 157.771 46.8301C157.882 46.4023 158.052 46.0273 158.28 45.7051C158.503 45.3828 158.781 45.1279 159.115 44.9404C159.449 44.7471 159.842 44.6504 160.293 44.6504C160.744 44.6504 161.137 44.7471 161.471 44.9404C161.811 45.1279 162.095 45.3828 162.323 45.7051C162.546 46.0273 162.713 46.4023 162.824 46.8301C162.942 47.252 163 47.6943 163 48.1572V48.3506C163 48.8193 162.945 49.2676 162.833 49.6953C162.722 50.1172 162.555 50.4893 162.332 50.8115C162.104 51.1338 161.82 51.3887 161.48 51.5762C161.146 51.7637 160.756 51.8574 160.311 51.8574C159.86 51.8574 159.464 51.7637 159.124 51.5762C158.784 51.3887 158.503 51.1338 158.28 50.8115C158.052 50.4893 157.882 50.1172 157.771 49.6953C157.659 49.2676 157.604 48.8193 157.604 48.3506ZM46.5117 80H50.6074C51.1523 79.9941 51.6797 79.9092 52.1895 79.7451C52.7051 79.5811 53.1592 79.3438 53.5518 79.0332C53.9443 78.7285 54.2578 78.3477 54.4922 77.8906C54.7266 77.4336 54.8408 76.9062 54.835 76.3086C54.835 75.9277 54.7764 75.5732 54.6592 75.2451C54.5479 74.917 54.3896 74.6211 54.1846 74.3574C53.9912 74.1172 53.7451 73.8975 53.4463 73.6982C53.1475 73.499 52.8369 73.3613 52.5146 73.2852V73.2588C52.8252 73.124 53.0889 72.9805 53.3057 72.8281C53.5283 72.6758 53.7305 72.4883 53.9121 72.2656C54.0879 72.0488 54.2256 71.8027 54.3252 71.5273C54.4307 71.252 54.4863 70.9473 54.4922 70.6133C54.498 70.0156 54.3838 69.5029 54.1494 69.0752C53.915 68.6475 53.6016 68.2959 53.209 68.0205C52.8164 67.7451 52.3682 67.543 51.8643 67.4141C51.3604 67.2793 50.8447 67.209 50.3174 67.2031H46.5117V80ZM48.1465 74.0146H50.7393C51.085 74.0264 51.4072 74.085 51.7061 74.1904C52.0049 74.2959 52.2656 74.4453 52.4883 74.6387C52.7109 74.8379 52.8838 75.0781 53.0068 75.3594C53.1357 75.6406 53.1973 75.9629 53.1914 76.3262C53.1914 76.6836 53.1211 77.0029 52.9805 77.2842C52.8457 77.5654 52.6611 77.8027 52.4268 77.9961C52.1924 78.1895 51.9229 78.3418 51.6182 78.4531C51.3135 78.5586 50.9912 78.6143 50.6514 78.6201H48.1465V74.0146ZM48.1465 72.6611V68.5918H50.3701C50.6865 68.5977 50.9941 68.6387 51.293 68.7148C51.5977 68.791 51.8672 68.9082 52.1016 69.0664C52.3301 69.2305 52.5117 69.4385 52.6465 69.6904C52.7871 69.9424 52.8574 70.2471 52.8574 70.6045C52.8574 70.9385 52.7871 71.2314 52.6465 71.4834C52.5059 71.7354 52.3213 71.9463 52.0928 72.1162C51.8643 72.292 51.6035 72.4268 51.3105 72.5205C51.0176 72.6084 50.7188 72.6553 50.4141 72.6611H48.1465ZM57.0628 75.1572V75.3506C57.0628 76.0361 57.1624 76.6719 57.3616 77.2578C57.5609 77.8438 57.848 78.3535 58.223 78.7871C58.5921 79.2207 59.0433 79.5605 59.5765 79.8066C60.1155 80.0527 60.722 80.1758 61.3958 80.1758C62.0638 80.1758 62.6644 80.0527 63.1976 79.8066C63.7308 79.5605 64.1849 79.2207 64.5599 78.7871C64.929 78.3535 65.2132 77.8438 65.4124 77.2578C65.6116 76.6719 65.7113 76.0361 65.7113 75.3506V75.1572C65.7113 74.4717 65.6116 73.8359 65.4124 73.25C65.2132 72.6582 64.929 72.1455 64.5599 71.7119C64.1849 71.2783 63.7279 70.9385 63.1888 70.6924C62.6556 70.4404 62.0521 70.3145 61.3782 70.3145C60.7103 70.3145 60.1097 70.4404 59.5765 70.6924C59.0433 70.9385 58.5921 71.2783 58.223 71.7119C57.848 72.1455 57.5609 72.6582 57.3616 73.25C57.1624 73.8359 57.0628 74.4717 57.0628 75.1572ZM58.6888 75.3506V75.1572C58.6888 74.6943 58.7445 74.252 58.8558 73.8301C58.9671 73.4023 59.137 73.0273 59.3655 72.7051C59.5882 72.3828 59.8665 72.1279 60.2005 71.9404C60.5345 71.7471 60.9271 71.6504 61.3782 71.6504C61.8294 71.6504 62.222 71.7471 62.556 71.9404C62.8958 72.1279 63.18 72.3828 63.4085 72.7051C63.6312 73.0273 63.7982 73.4023 63.9095 73.8301C64.0267 74.252 64.0853 74.6943 64.0853 75.1572V75.3506C64.0853 75.8193 64.0296 76.2676 63.9183 76.6953C63.807 77.1172 63.64 77.4893 63.4173 77.8115C63.1888 78.1338 62.9046 78.3887 62.5648 78.5762C62.2308 78.7637 61.8411 78.8574 61.3958 78.8574C60.9446 78.8574 60.5491 78.7637 60.2093 78.5762C59.8695 78.3887 59.5882 78.1338 59.3655 77.8115C59.137 77.4893 58.9671 77.1172 58.8558 76.6953C58.7445 76.2676 58.6888 75.8193 58.6888 75.3506ZM68.7653 66.5V67.915H71.9996V78.5938H68.7653V80H76.7282V78.5938H73.6256V66.5H68.7653ZM79.1933 75.166V75.3506C79.1933 76.0303 79.2841 76.666 79.4658 77.2578C79.6474 77.8438 79.9023 78.3535 80.2304 78.7871C80.5586 79.2207 80.9541 79.5605 81.417 79.8066C81.8857 80.0527 82.4072 80.1758 82.9814 80.1758C83.5673 80.1758 84.08 80.0762 84.5195 79.877C84.9589 79.6777 85.3369 79.3848 85.6533 78.998L85.7236 80H87.2177V66.5H85.5918V71.4307C85.2812 71.0674 84.9121 70.792 84.4843 70.6045C84.0625 70.4111 83.5673 70.3145 82.999 70.3145C82.4189 70.3145 81.8945 70.4346 81.4257 70.6748C80.957 70.915 80.5586 71.249 80.2304 71.6768C79.8964 72.1045 79.6386 72.6172 79.457 73.2148C79.2812 73.8066 79.1933 74.457 79.1933 75.166ZM80.8193 75.3506V75.166C80.8193 74.7031 80.8691 74.2637 80.9687 73.8477C81.0683 73.4258 81.2236 73.0537 81.4345 72.7314C81.6396 72.415 81.9033 72.1631 82.2255 71.9756C82.5537 71.7881 82.9463 71.6943 83.4033 71.6943C83.9365 71.6943 84.3818 71.8203 84.7392 72.0723C85.0966 72.3184 85.3808 72.6348 85.5918 73.0215V77.4336C85.3808 77.8496 85.0966 78.1807 84.7392 78.4268C84.3818 78.6729 83.9306 78.7959 83.3857 78.7959C82.9345 78.7959 82.5478 78.7051 82.2255 78.5234C81.9033 78.3359 81.6396 78.084 81.4345 77.7676C81.2236 77.4512 81.0683 77.085 80.9687 76.6689C80.8691 76.2529 80.8193 75.8135 80.8193 75.3506Z" fill="black"/>
<rect x="381" y="293" width="55" height="55" fill="#0094FF" fill-opacity="0.2"/>
<rect x="381" y="33" width="225" height="225" fill="#0094FF" fill-opacity="0.2"/>
</svg>
