<svg width="759" height="1266" viewBox="0 0 759 1266" fill="none" xmlns="http://www.w3.org/2000/svg">
<g clip-path="url(#clip0_2659_2813)">
<rect width="759" height="1266" fill="white"/>
<rect width="518" height="368" transform="translate(99 472)" fill="#FEB701" fill-opacity="0.5"/>
<rect width="276" height="369" transform="translate(468 867) rotate(90)" fill="#FEB701" fill-opacity="0.5"/>
<path d="M138.123 988V986.69H139.958V976.244H138.123V974.933H143.365V976.244H141.53V986.69H143.365V988H138.123ZM146.087 978.34H147.584V979.913H147.659C147.909 979.301 148.271 978.852 148.745 978.565C149.231 978.266 149.812 978.116 150.486 978.116C151.085 978.116 151.628 978.234 152.114 978.472C152.601 978.709 153.013 979.046 153.35 979.482C153.699 979.919 153.961 980.45 154.136 981.074C154.323 981.698 154.417 982.396 154.417 983.17C154.417 983.944 154.323 984.643 154.136 985.267C153.961 985.891 153.699 986.421 153.35 986.858C153.013 987.295 152.601 987.632 152.114 987.869C151.628 988.106 151.085 988.225 150.486 988.225C149.175 988.225 148.233 987.626 147.659 986.428H147.584V991.744H146.087V978.34ZM150.074 986.877C150.923 986.877 151.59 986.615 152.077 986.091C152.564 985.554 152.807 984.855 152.807 983.994V982.347C152.807 981.485 152.564 980.793 152.077 980.269C151.59 979.732 150.923 979.464 150.074 979.464C149.737 979.464 149.412 979.514 149.1 979.613C148.801 979.701 148.539 979.826 148.314 979.988C148.09 980.15 147.909 980.35 147.771 980.587C147.647 980.812 147.584 981.055 147.584 981.317V984.911C147.584 985.223 147.647 985.504 147.771 985.754C147.909 985.991 148.09 986.197 148.314 986.371C148.539 986.534 148.801 986.658 149.1 986.746C149.412 986.833 149.737 986.877 150.074 986.877ZM163.966 988C163.404 988 162.998 987.85 162.749 987.551C162.512 987.251 162.362 986.877 162.299 986.428H162.206C161.994 987.027 161.644 987.476 161.158 987.775C160.671 988.075 160.091 988.225 159.417 988.225C158.393 988.225 157.595 987.963 157.02 987.438C156.459 986.914 156.178 986.203 156.178 985.304C156.178 984.393 156.509 983.694 157.17 983.208C157.844 982.721 158.886 982.478 160.296 982.478H162.206V981.523C162.206 980.836 162.019 980.312 161.644 979.95C161.27 979.588 160.696 979.408 159.922 979.408C159.335 979.408 158.843 979.539 158.443 979.801C158.056 980.063 157.732 980.412 157.47 980.849L156.571 980.007C156.833 979.482 157.251 979.039 157.825 978.677C158.399 978.303 159.123 978.116 159.997 978.116C161.17 978.116 162.081 978.403 162.73 978.977C163.379 979.551 163.703 980.35 163.703 981.373V986.69H164.808V988H163.966ZM159.66 986.952C160.034 986.952 160.378 986.908 160.69 986.821C161.002 986.733 161.27 986.608 161.495 986.446C161.719 986.284 161.894 986.097 162.019 985.885C162.143 985.672 162.206 985.442 162.206 985.192V983.601H160.222C159.36 983.601 158.73 983.726 158.331 983.975C157.944 984.225 157.751 984.587 157.751 985.061V985.454C157.751 985.928 157.919 986.296 158.256 986.559C158.605 986.821 159.073 986.952 159.66 986.952ZM173.123 986.428H173.048C172.462 987.626 171.519 988.225 170.221 988.225C169.622 988.225 169.079 988.106 168.593 987.869C168.106 987.632 167.688 987.295 167.339 986.858C167.002 986.421 166.739 985.891 166.552 985.267C166.378 984.643 166.29 983.944 166.29 983.17C166.29 982.396 166.378 981.698 166.552 981.074C166.739 980.45 167.002 979.919 167.339 979.482C167.688 979.046 168.106 978.709 168.593 978.472C169.079 978.234 169.622 978.116 170.221 978.116C170.895 978.116 171.469 978.266 171.944 978.565C172.43 978.852 172.799 979.301 173.048 979.913H173.123V974.147H174.621V988H173.123V986.428ZM170.633 986.877C170.97 986.877 171.288 986.833 171.588 986.746C171.9 986.658 172.168 986.534 172.393 986.371C172.618 986.197 172.792 985.991 172.917 985.754C173.054 985.504 173.123 985.223 173.123 984.911V981.317C173.123 981.055 173.054 980.812 172.917 980.587C172.792 980.35 172.618 980.15 172.393 979.988C172.168 979.826 171.9 979.701 171.588 979.613C171.288 979.514 170.97 979.464 170.633 979.464C169.785 979.464 169.117 979.732 168.63 980.269C168.143 980.793 167.9 981.485 167.9 982.347V983.994C167.9 984.855 168.143 985.554 168.63 986.091C169.117 986.615 169.785 986.877 170.633 986.877ZM138.647 1007V1005.61H142.298V995.094H142.167L138.872 998.164L137.955 997.172L141.418 993.933H143.87V1005.61H147.24V1007H138.647ZM153.841 1007.22C152.281 1007.22 151.139 1006.63 150.415 1005.45C149.704 1004.26 149.348 1002.6 149.348 1000.47C149.348 998.333 149.704 996.673 150.415 995.487C151.139 994.302 152.281 993.709 153.841 993.709C155.401 993.709 156.536 994.302 157.248 995.487C157.972 996.673 158.333 998.333 158.333 1000.47C158.333 1002.6 157.972 1004.26 157.248 1005.45C156.536 1006.63 155.401 1007.22 153.841 1007.22ZM153.841 1005.86C154.352 1005.86 154.789 1005.75 155.151 1005.54C155.513 1005.33 155.806 1005.03 156.031 1004.64C156.256 1004.25 156.418 1003.8 156.518 1003.27C156.63 1002.75 156.686 1002.17 156.686 1001.53V999.4C156.686 998.763 156.63 998.183 156.518 997.659C156.418 997.135 156.256 996.679 156.031 996.292C155.806 995.905 155.513 995.606 155.151 995.394C154.789 995.181 154.352 995.075 153.841 995.075C153.329 995.075 152.892 995.181 152.53 995.394C152.168 995.606 151.875 995.905 151.65 996.292C151.426 996.679 151.257 997.135 151.145 997.659C151.045 998.183 150.995 998.763 150.995 999.4V1001.53C150.995 1002.17 151.045 1002.75 151.145 1003.27C151.257 1003.8 151.426 1004.25 151.65 1004.64C151.875 1005.03 152.168 1005.33 152.53 1005.54C152.892 1005.75 153.329 1005.86 153.841 1005.86ZM169.427 1007H160.853V1005.39L165.122 1001.46C165.733 1000.9 166.245 1000.3 166.657 999.68C167.068 999.044 167.274 998.408 167.274 997.771V997.546C167.274 996.823 167.075 996.236 166.675 995.787C166.276 995.337 165.671 995.113 164.859 995.113C164.46 995.113 164.111 995.169 163.811 995.281C163.512 995.394 163.25 995.55 163.025 995.749C162.813 995.949 162.632 996.186 162.482 996.461C162.345 996.723 162.232 997.01 162.145 997.322L160.741 996.779C160.866 996.392 161.034 996.018 161.246 995.656C161.471 995.281 161.746 994.951 162.07 994.664C162.407 994.376 162.806 994.146 163.268 993.971C163.742 993.796 164.298 993.709 164.934 993.709C165.571 993.709 166.139 993.802 166.638 993.99C167.137 994.177 167.555 994.439 167.892 994.776C168.229 995.113 168.485 995.512 168.66 995.974C168.847 996.436 168.94 996.947 168.94 997.509C168.94 998.021 168.866 998.495 168.716 998.932C168.578 999.368 168.385 999.787 168.135 1000.19C167.886 1000.57 167.58 1000.95 167.218 1001.33C166.869 1001.7 166.488 1002.08 166.076 1002.45L162.557 1005.61H169.427V1007ZM177.694 1007V1004.44H171.385V1003.05L176.852 993.933H179.192V1003.12H181.082V1004.44H179.192V1007H177.694ZM172.864 1003.12H177.694V995.15H177.6L172.864 1003.12ZM182.292 1007L185.867 1002.13L182.442 997.34H184.201L186.654 1000.93H186.71L189.256 997.34H190.922L187.515 1002.02L190.997 1007H189.237L186.729 1003.22H186.672L183.958 1007H182.292ZM193.034 1007V1005.61H196.684V995.094H196.553L193.259 998.164L192.341 997.172L195.805 993.933H198.257V1005.61H201.627V1007H193.034ZM207.497 999.475C208.383 999.475 209.045 999.275 209.482 998.876C209.931 998.464 210.156 997.94 210.156 997.303V997.172C210.156 996.486 209.937 995.974 209.5 995.637C209.076 995.288 208.514 995.113 207.816 995.113C207.142 995.113 206.593 995.263 206.168 995.562C205.744 995.849 205.394 996.242 205.12 996.741L203.959 995.843C204.121 995.581 204.315 995.325 204.54 995.075C204.777 994.813 205.051 994.582 205.363 994.383C205.675 994.183 206.037 994.021 206.449 993.896C206.861 993.771 207.329 993.709 207.853 993.709C208.402 993.709 208.92 993.784 209.407 993.933C209.893 994.071 210.312 994.283 210.661 994.57C211.023 994.844 211.304 995.188 211.503 995.6C211.716 996.011 211.822 996.479 211.822 997.004C211.822 997.428 211.753 997.808 211.616 998.145C211.491 998.482 211.316 998.776 211.092 999.025C210.867 999.275 210.599 999.487 210.287 999.662C209.987 999.836 209.663 999.968 209.313 1000.05V1000.13C209.663 1000.2 210 1000.33 210.324 1000.5C210.661 1000.67 210.954 1000.88 211.204 1001.16C211.466 1001.42 211.672 1001.75 211.822 1002.13C211.984 1002.51 212.065 1002.94 212.065 1003.42C212.065 1003.99 211.959 1004.5 211.747 1004.98C211.535 1005.44 211.235 1005.84 210.848 1006.18C210.461 1006.5 209.993 1006.76 209.444 1006.94C208.895 1007.13 208.29 1007.22 207.628 1007.22C207.067 1007.22 206.568 1007.16 206.131 1007.04C205.694 1006.91 205.307 1006.74 204.97 1006.53C204.633 1006.32 204.334 1006.08 204.072 1005.82C203.822 1005.56 203.597 1005.28 203.398 1005L204.577 1004.1C204.739 1004.36 204.914 1004.6 205.101 1004.81C205.301 1005.02 205.519 1005.2 205.756 1005.35C205.993 1005.5 206.262 1005.62 206.561 1005.71C206.861 1005.78 207.21 1005.82 207.61 1005.82C208.533 1005.82 209.232 1005.61 209.706 1005.2C210.181 1004.78 210.418 1004.18 210.418 1003.41V1003.26C210.418 1002.48 210.181 1001.89 209.706 1001.48C209.232 1001.05 208.533 1000.84 207.61 1000.84H206.075V999.475H207.497ZM219.471 1007.22C218.797 1007.22 218.185 1007.11 217.636 1006.89C217.1 1006.65 216.638 1006.32 216.251 1005.9C215.877 1005.46 215.59 1004.93 215.39 1004.3C215.19 1003.68 215.09 1002.98 215.09 1002.21C215.09 1001.23 215.234 1000.32 215.521 999.475C215.808 998.613 216.176 997.833 216.625 997.135C217.087 996.423 217.593 995.799 218.142 995.263C218.691 994.713 219.227 994.27 219.752 993.933H221.773C221.074 994.445 220.45 994.944 219.901 995.431C219.352 995.918 218.872 996.429 218.46 996.966C218.048 997.49 217.699 998.058 217.412 998.67C217.125 999.269 216.894 999.949 216.719 1000.71L216.813 1000.75C217.125 1000.21 217.524 999.768 218.011 999.418C218.51 999.056 219.159 998.876 219.958 998.876C220.519 998.876 221.037 998.969 221.511 999.156C221.986 999.344 222.391 999.612 222.728 999.961C223.065 1000.31 223.327 1000.74 223.514 1001.23C223.714 1001.73 223.814 1002.29 223.814 1002.9C223.814 1003.54 223.708 1004.12 223.496 1004.66C223.296 1005.18 223.003 1005.64 222.616 1006.03C222.241 1006.4 221.786 1006.69 221.249 1006.91C220.713 1007.12 220.12 1007.22 219.471 1007.22ZM219.452 1005.86C220.313 1005.86 220.981 1005.62 221.455 1005.15C221.942 1004.67 222.185 1003.99 222.185 1003.11V1002.96C222.185 1002.07 221.942 1001.39 221.455 1000.92C220.981 1000.44 220.313 1000.2 219.452 1000.2C218.591 1000.2 217.917 1000.44 217.43 1000.92C216.956 1001.39 216.719 1002.07 216.719 1002.96V1003.11C216.719 1003.99 216.956 1004.67 217.43 1005.15C217.917 1005.62 218.591 1005.86 219.452 1005.86ZM230.695 1007.22C230.022 1007.22 229.41 1007.11 228.861 1006.89C228.324 1006.65 227.863 1006.32 227.476 1005.9C227.101 1005.46 226.814 1004.93 226.615 1004.3C226.415 1003.68 226.315 1002.98 226.315 1002.21C226.315 1001.23 226.459 1000.32 226.746 999.475C227.033 998.613 227.401 997.833 227.85 997.135C228.312 996.423 228.817 995.799 229.366 995.263C229.915 994.713 230.452 994.27 230.976 993.933H232.998C232.299 994.445 231.675 994.944 231.126 995.431C230.577 995.918 230.096 996.429 229.685 996.966C229.273 997.49 228.923 998.058 228.636 998.67C228.349 999.269 228.118 999.949 227.944 1000.71L228.037 1000.75C228.349 1000.21 228.749 999.768 229.235 999.418C229.735 999.056 230.383 998.876 231.182 998.876C231.744 998.876 232.262 998.969 232.736 999.156C233.21 999.344 233.616 999.612 233.953 999.961C234.29 1000.31 234.552 1000.74 234.739 1001.23C234.939 1001.73 235.039 1002.29 235.039 1002.9C235.039 1003.54 234.932 1004.12 234.72 1004.66C234.521 1005.18 234.227 1005.64 233.84 1006.03C233.466 1006.4 233.011 1006.69 232.474 1006.91C231.937 1007.12 231.344 1007.22 230.695 1007.22ZM230.677 1005.86C231.538 1005.86 232.206 1005.62 232.68 1005.15C233.167 1004.67 233.41 1003.99 233.41 1003.11V1002.96C233.41 1002.07 233.167 1001.39 232.68 1000.92C232.206 1000.44 231.538 1000.2 230.677 1000.2C229.816 1000.2 229.142 1000.44 228.655 1000.92C228.181 1001.39 227.944 1002.07 227.944 1002.96V1003.11C227.944 1003.99 228.181 1004.67 228.655 1005.15C229.142 1005.62 229.816 1005.86 230.677 1005.86Z" fill="black"/>
<path d="M101.812 59.8925H110.491C112.245 59.8925 113.616 60.3864 114.604 61.3742C115.612 62.3621 116.116 63.6826 116.116 65.3357C116.116 66.1219 116.005 66.7872 115.783 67.3315C115.561 67.8758 115.279 68.3294 114.936 68.6923C114.594 69.035 114.221 69.2971 113.818 69.4786C113.414 69.6398 113.041 69.7507 112.699 69.8112V69.9926C113.082 70.0128 113.505 70.1136 113.969 70.295C114.453 70.4765 114.906 70.7688 115.33 71.172C115.753 71.555 116.106 72.059 116.388 72.684C116.69 73.2888 116.842 74.0246 116.842 74.8915C116.842 75.7584 116.7 76.5648 116.418 77.3107C116.156 78.0566 115.783 78.7018 115.299 79.2461C114.816 79.7904 114.241 80.2238 113.576 80.5464C112.91 80.8488 112.185 81 111.398 81H101.812V59.8925ZM104.352 78.7622H110.612C111.701 78.7622 112.558 78.4901 113.183 77.9458C113.808 77.3813 114.12 76.5648 114.12 75.4963V74.4682C114.12 73.3997 113.808 72.5933 113.183 72.049C112.558 71.4845 111.701 71.2022 110.612 71.2022H104.352V78.7622ZM104.352 69.025H110.189C111.197 69.025 111.983 68.773 112.548 68.269C113.112 67.765 113.394 67.0392 113.394 66.0917V65.0635C113.394 64.116 113.112 63.3902 112.548 62.8862C111.983 62.3822 111.197 62.1302 110.189 62.1302H104.352V69.025ZM130.943 78.4598H130.822C130.661 78.8227 130.459 79.1856 130.217 79.5485C129.996 79.8912 129.713 80.2037 129.371 80.4859C129.028 80.748 128.615 80.9597 128.131 81.121C127.647 81.2822 127.082 81.3629 126.437 81.3629C124.825 81.3629 123.544 80.8488 122.597 79.8206C121.649 78.7723 121.176 77.3006 121.176 75.4056V65.3962H123.595V74.9822C123.595 77.7845 124.784 79.1856 127.163 79.1856C127.647 79.1856 128.111 79.1251 128.554 79.0042C129.018 78.8832 129.421 78.7018 129.764 78.4598C130.127 78.2179 130.409 77.9155 130.61 77.5526C130.832 77.1696 130.943 76.716 130.943 76.1918V65.3962H133.362V81H130.943V78.4598ZM141.961 81C141.115 81 140.47 80.7682 140.026 80.3045C139.603 79.8206 139.391 79.1957 139.391 78.4296V67.513H136.821V65.3962H138.272C138.796 65.3962 139.149 65.2954 139.33 65.0938C139.532 64.872 139.633 64.499 139.633 63.9749V61.0718H141.81V65.3962H145.227V67.513H141.81V78.8832H144.985V81H141.961ZM152.297 81C151.451 81 150.805 80.7682 150.362 80.3045C149.939 79.8206 149.727 79.1957 149.727 78.4296V67.513H147.156V65.3962H148.608C149.132 65.3962 149.485 65.2954 149.666 65.0938C149.868 64.872 149.969 64.499 149.969 63.9749V61.0718H152.146V65.3962H155.563V67.513H152.146V78.8832H155.321V81H152.297ZM165.23 81.3629C164.182 81.3629 163.224 81.1714 162.358 80.7883C161.491 80.4053 160.745 79.861 160.12 79.1554C159.515 78.4296 159.041 77.5728 158.698 76.585C158.356 75.577 158.184 74.448 158.184 73.1981C158.184 71.9683 158.356 70.8494 158.698 69.8414C159.041 68.8334 159.515 67.9766 160.12 67.271C160.745 66.5453 161.491 65.9909 162.358 65.6078C163.224 65.2248 164.182 65.0333 165.23 65.0333C166.279 65.0333 167.226 65.2248 168.073 65.6078C168.94 65.9909 169.686 66.5453 170.311 67.271C170.936 67.9766 171.419 68.8334 171.762 69.8414C172.105 70.8494 172.276 71.9683 172.276 73.1981C172.276 74.448 172.105 75.577 171.762 76.585C171.419 77.5728 170.936 78.4296 170.311 79.1554C169.686 79.861 168.94 80.4053 168.073 80.7883C167.226 81.1714 166.279 81.3629 165.23 81.3629ZM165.23 79.2158C166.541 79.2158 167.609 78.8126 168.436 78.0062C169.262 77.1998 169.676 75.9701 169.676 74.317V72.0792C169.676 70.4261 169.262 69.1963 168.436 68.3899C167.609 67.5835 166.541 67.1803 165.23 67.1803C163.92 67.1803 162.851 67.5835 162.025 68.3899C161.198 69.1963 160.785 70.4261 160.785 72.0792V74.317C160.785 75.9701 161.198 77.1998 162.025 78.0062C162.851 78.8126 163.92 79.2158 165.23 79.2158ZM176.255 81V65.3962H178.674V67.9363H178.795C179.178 67.0493 179.712 66.3437 180.398 65.8195C181.103 65.2954 182.041 65.0333 183.21 65.0333C184.823 65.0333 186.093 65.5574 187.02 66.6058C187.968 67.6339 188.442 69.0955 188.442 70.9906V81H186.022V71.4139C186.022 68.6117 184.843 67.2106 182.484 67.2106C182.001 67.2106 181.527 67.271 181.063 67.392C180.62 67.513 180.216 67.6944 179.853 67.9363C179.491 68.1782 179.198 68.4907 178.977 68.8738C178.775 69.2366 178.674 69.6701 178.674 70.1741V81H176.255ZM198.129 81.3629C196.678 81.3629 195.458 81.0907 194.47 80.5464C193.503 79.9819 192.666 79.236 191.96 78.3086L193.684 76.9176C194.289 77.6837 194.964 78.2784 195.71 78.7018C196.456 79.105 197.323 79.3066 198.311 79.3066C199.339 79.3066 200.135 79.0848 200.7 78.6413C201.284 78.1978 201.577 77.5728 201.577 76.7664C201.577 76.1616 201.375 75.6475 200.972 75.2242C200.589 74.7806 199.883 74.4782 198.855 74.317L197.615 74.1355C196.889 74.0347 196.224 73.8835 195.619 73.6819C195.015 73.4602 194.48 73.1779 194.017 72.8352C193.573 72.4723 193.22 72.0288 192.958 71.5046C192.716 70.9805 192.595 70.3555 192.595 69.6298C192.595 68.8637 192.737 68.1984 193.019 67.6339C193.301 67.0493 193.684 66.5654 194.168 66.1824C194.672 65.7994 195.267 65.5171 195.952 65.3357C196.637 65.1341 197.373 65.0333 198.16 65.0333C199.43 65.0333 200.488 65.255 201.335 65.6986C202.202 66.1421 202.958 66.757 203.603 67.5432L202 68.9947C201.657 68.5109 201.153 68.0774 200.488 67.6944C199.823 67.2912 198.986 67.0896 197.978 67.0896C196.97 67.0896 196.204 67.3114 195.68 67.7549C195.176 68.1782 194.924 68.7629 194.924 69.5088C194.924 70.2749 195.176 70.8293 195.68 71.172C196.204 71.5147 196.95 71.7667 197.918 71.928L199.127 72.1094C200.861 72.3715 202.091 72.8755 202.817 73.6214C203.542 74.3472 203.905 75.3048 203.905 76.4942C203.905 78.0062 203.391 79.1957 202.363 80.0626C201.335 80.9294 199.924 81.3629 198.129 81.3629Z" fill="black"/>
<path d="M101.812 450V428.892H104.352V447.762H113.334V450H101.812ZM128.03 450C127.123 450 126.468 449.758 126.065 449.274C125.682 448.79 125.44 448.186 125.339 447.46H125.188C124.845 448.428 124.281 449.153 123.494 449.637C122.708 450.121 121.771 450.363 120.682 450.363C119.029 450.363 117.739 449.94 116.811 449.093C115.904 448.246 115.451 447.097 115.451 445.645C115.451 444.174 115.985 443.045 117.053 442.259C118.142 441.472 119.825 441.079 122.103 441.079H125.188V439.537C125.188 438.428 124.885 437.581 124.281 436.997C123.676 436.412 122.748 436.12 121.499 436.12C120.551 436.12 119.755 436.332 119.11 436.755C118.485 437.178 117.96 437.743 117.537 438.448L116.086 437.088C116.509 436.241 117.184 435.525 118.112 434.94C119.039 434.336 120.208 434.033 121.62 434.033C123.515 434.033 124.986 434.497 126.035 435.424C127.083 436.352 127.607 437.642 127.607 439.295V447.883H129.391V450H128.03ZM121.075 448.307C121.68 448.307 122.234 448.236 122.738 448.095C123.242 447.954 123.676 447.752 124.039 447.49C124.402 447.228 124.684 446.926 124.885 446.583C125.087 446.24 125.188 445.867 125.188 445.464V442.894H121.982C120.591 442.894 119.573 443.095 118.928 443.498C118.303 443.902 117.991 444.486 117.991 445.252V445.887C117.991 446.653 118.263 447.248 118.807 447.672C119.372 448.095 120.128 448.307 121.075 448.307ZM142.313 434.396H144.702L137.716 453.629C137.535 454.092 137.353 454.476 137.172 454.778C136.99 455.1 136.769 455.352 136.507 455.534C136.244 455.715 135.912 455.846 135.509 455.927C135.126 456.008 134.652 456.048 134.087 456.048H132.848V453.931H135.297L136.476 450.605L130.64 434.396H133.059L136.809 445.01L137.535 447.551H137.686L138.533 445.01L142.313 434.396ZM153.536 450.363C152.488 450.363 151.53 450.171 150.663 449.788C149.796 449.405 149.05 448.861 148.425 448.155C147.821 447.43 147.347 446.573 147.004 445.585C146.661 444.577 146.49 443.448 146.49 442.198C146.49 440.968 146.661 439.849 147.004 438.841C147.347 437.833 147.821 436.977 148.425 436.271C149.05 435.545 149.796 434.991 150.663 434.608C151.53 434.225 152.488 434.033 153.536 434.033C154.584 434.033 155.532 434.225 156.379 434.608C157.245 434.991 157.991 435.545 158.616 436.271C159.241 436.977 159.725 437.833 160.068 438.841C160.411 439.849 160.582 440.968 160.582 442.198C160.582 443.448 160.411 444.577 160.068 445.585C159.725 446.573 159.241 447.43 158.616 448.155C157.991 448.861 157.245 449.405 156.379 449.788C155.532 450.171 154.584 450.363 153.536 450.363ZM153.536 448.216C154.846 448.216 155.915 447.813 156.741 447.006C157.568 446.2 157.981 444.97 157.981 443.317V441.079C157.981 439.426 157.568 438.196 156.741 437.39C155.915 436.584 154.846 436.18 153.536 436.18C152.226 436.18 151.157 436.584 150.331 437.39C149.504 438.196 149.091 439.426 149.091 441.079V443.317C149.091 444.97 149.504 446.2 150.331 447.006C151.157 447.813 152.226 448.216 153.536 448.216ZM174.177 447.46H174.056C173.895 447.823 173.693 448.186 173.451 448.548C173.229 448.891 172.947 449.204 172.604 449.486C172.262 449.748 171.848 449.96 171.365 450.121C170.881 450.282 170.316 450.363 169.671 450.363C168.058 450.363 166.778 449.849 165.831 448.821C164.883 447.772 164.409 446.301 164.409 444.406V434.396H166.829V443.982C166.829 446.784 168.018 448.186 170.397 448.186C170.881 448.186 171.344 448.125 171.788 448.004C172.252 447.883 172.655 447.702 172.998 447.46C173.36 447.218 173.643 446.916 173.844 446.553C174.066 446.17 174.177 445.716 174.177 445.192V434.396H176.596V450H174.177V447.46ZM185.195 450C184.348 450 183.703 449.768 183.26 449.304C182.836 448.821 182.625 448.196 182.625 447.43V436.513H180.054V434.396H181.506C182.03 434.396 182.383 434.295 182.564 434.094C182.766 433.872 182.867 433.499 182.867 432.975V430.072H185.044V434.396H188.461V436.513H185.044V447.883H188.219V450H185.195ZM197.037 450.363C195.585 450.363 194.365 450.091 193.378 449.546C192.41 448.982 191.573 448.236 190.868 447.309L192.591 445.918C193.196 446.684 193.872 447.278 194.617 447.702C195.363 448.105 196.23 448.307 197.218 448.307C198.246 448.307 199.043 448.085 199.607 447.641C200.192 447.198 200.484 446.573 200.484 445.766C200.484 445.162 200.282 444.648 199.879 444.224C199.496 443.781 198.791 443.478 197.762 443.317L196.523 443.136C195.797 443.035 195.132 442.884 194.527 442.682C193.922 442.46 193.388 442.178 192.924 441.835C192.481 441.472 192.128 441.029 191.866 440.505C191.624 439.98 191.503 439.356 191.503 438.63C191.503 437.864 191.644 437.198 191.926 436.634C192.208 436.049 192.591 435.565 193.075 435.182C193.579 434.799 194.174 434.517 194.859 434.336C195.545 434.134 196.281 434.033 197.067 434.033C198.337 434.033 199.395 434.255 200.242 434.699C201.109 435.142 201.865 435.757 202.51 436.543L200.907 437.995C200.565 437.511 200.061 437.077 199.395 436.694C198.73 436.291 197.893 436.09 196.885 436.09C195.877 436.09 195.111 436.311 194.587 436.755C194.083 437.178 193.831 437.763 193.831 438.509C193.831 439.275 194.083 439.829 194.587 440.172C195.111 440.515 195.857 440.767 196.825 440.928L198.035 441.109C199.768 441.372 200.998 441.876 201.724 442.621C202.45 443.347 202.813 444.305 202.813 445.494C202.813 447.006 202.298 448.196 201.27 449.063C200.242 449.929 198.831 450.363 197.037 450.363Z" fill="black"/>
<path d="M138.741 645.933H143.121C143.933 645.933 144.669 646.071 145.33 646.345C145.992 646.62 146.553 647.032 147.015 647.581C147.489 648.117 147.851 648.798 148.101 649.621C148.351 650.432 148.475 651.381 148.475 652.467C148.475 653.552 148.351 654.507 148.101 655.331C147.851 656.142 147.489 656.822 147.015 657.371C146.553 657.908 145.992 658.314 145.33 658.588C144.669 658.863 143.933 659 143.121 659H138.741V645.933ZM143.121 657.615C143.658 657.615 144.151 657.527 144.6 657.353C145.05 657.165 145.436 656.897 145.761 656.548C146.085 656.198 146.335 655.774 146.51 655.275C146.697 654.763 146.791 654.183 146.791 653.534V651.4C146.791 650.751 146.697 650.177 146.51 649.677C146.335 649.166 146.085 648.735 145.761 648.386C145.436 648.036 145.05 647.774 144.6 647.6C144.151 647.412 143.658 647.319 143.121 647.319H140.313V657.615H143.121ZM154.782 659.225C154.121 659.225 153.522 659.106 152.985 658.869C152.461 658.632 152.005 658.295 151.618 657.858C151.244 657.409 150.951 656.878 150.739 656.267C150.539 655.643 150.439 654.944 150.439 654.17C150.439 653.409 150.539 652.716 150.739 652.092C150.951 651.468 151.244 650.938 151.618 650.501C152.005 650.052 152.461 649.709 152.985 649.472C153.522 649.234 154.121 649.116 154.782 649.116C155.431 649.116 156.011 649.234 156.523 649.472C157.035 649.709 157.472 650.039 157.833 650.464C158.195 650.876 158.47 651.368 158.657 651.943C158.857 652.517 158.957 653.147 158.957 653.833V654.545H152.012V654.994C152.012 655.406 152.074 655.793 152.199 656.155C152.336 656.504 152.523 656.81 152.76 657.072C153.01 657.334 153.309 657.54 153.659 657.69C154.021 657.839 154.426 657.914 154.876 657.914C155.487 657.914 156.018 657.771 156.467 657.484C156.929 657.197 157.284 656.785 157.534 656.248L158.601 657.016C158.289 657.677 157.802 658.214 157.141 658.626C156.479 659.025 155.693 659.225 154.782 659.225ZM154.782 650.37C154.37 650.37 153.996 650.445 153.659 650.595C153.322 650.732 153.029 650.932 152.779 651.194C152.542 651.456 152.355 651.768 152.217 652.13C152.08 652.479 152.012 652.866 152.012 653.29V653.421H157.347V653.216C157.347 652.354 157.11 651.668 156.635 651.156C156.174 650.632 155.556 650.37 154.782 650.37ZM164.326 659.225C163.428 659.225 162.672 659.056 162.061 658.719C161.462 658.37 160.944 657.908 160.507 657.334L161.574 656.473C161.949 656.947 162.367 657.315 162.828 657.577C163.29 657.827 163.827 657.952 164.438 657.952C165.075 657.952 165.568 657.814 165.917 657.54C166.279 657.265 166.46 656.878 166.46 656.379C166.46 656.005 166.335 655.687 166.086 655.424C165.849 655.15 165.412 654.963 164.775 654.863L164.008 654.751C163.559 654.688 163.147 654.595 162.772 654.47C162.398 654.332 162.067 654.158 161.78 653.946C161.506 653.721 161.287 653.446 161.125 653.122C160.975 652.797 160.9 652.411 160.9 651.961C160.9 651.487 160.988 651.075 161.162 650.726C161.337 650.364 161.574 650.064 161.874 649.827C162.186 649.59 162.554 649.415 162.978 649.303C163.403 649.178 163.858 649.116 164.345 649.116C165.131 649.116 165.786 649.253 166.31 649.528C166.847 649.802 167.315 650.183 167.714 650.67L166.722 651.568C166.51 651.269 166.198 651 165.786 650.763C165.374 650.514 164.856 650.389 164.232 650.389C163.608 650.389 163.134 650.526 162.81 650.801C162.498 651.063 162.342 651.425 162.342 651.886C162.342 652.361 162.498 652.704 162.81 652.916C163.134 653.128 163.596 653.284 164.195 653.384L164.944 653.496C166.017 653.659 166.778 653.971 167.228 654.432C167.677 654.882 167.902 655.474 167.902 656.211C167.902 657.147 167.583 657.883 166.947 658.42C166.31 658.956 165.437 659.225 164.326 659.225ZM170.547 645.147H172.044V653.927H172.119L173.598 652.28L176.331 649.34H178.147L174.572 653.159L178.503 659H176.687L173.486 654.077L172.044 655.556V659H170.547V645.147ZM182.37 659C181.846 659 181.446 658.856 181.172 658.569C180.91 658.27 180.779 657.883 180.779 657.409V650.651H179.188V649.34H180.086C180.411 649.34 180.629 649.278 180.741 649.153C180.866 649.016 180.929 648.785 180.929 648.461V646.664H182.276V649.34H184.392V650.651H182.276V657.69H184.242V659H182.37ZM190.376 659.225C189.727 659.225 189.134 659.106 188.598 658.869C188.061 658.632 187.599 658.295 187.212 657.858C186.838 657.409 186.545 656.878 186.333 656.267C186.12 655.643 186.014 654.944 186.014 654.17C186.014 653.409 186.12 652.716 186.333 652.092C186.545 651.468 186.838 650.938 187.212 650.501C187.599 650.052 188.061 649.709 188.598 649.472C189.134 649.234 189.727 649.116 190.376 649.116C191.025 649.116 191.612 649.234 192.136 649.472C192.672 649.709 193.134 650.052 193.521 650.501C193.908 650.938 194.207 651.468 194.42 652.092C194.632 652.716 194.738 653.409 194.738 654.17C194.738 654.944 194.632 655.643 194.42 656.267C194.207 656.878 193.908 657.409 193.521 657.858C193.134 658.295 192.672 658.632 192.136 658.869C191.612 659.106 191.025 659.225 190.376 659.225ZM190.376 657.896C191.187 657.896 191.849 657.646 192.36 657.147C192.872 656.648 193.128 655.886 193.128 654.863V653.478C193.128 652.454 192.872 651.693 192.36 651.194C191.849 650.695 191.187 650.445 190.376 650.445C189.565 650.445 188.903 650.695 188.392 651.194C187.88 651.693 187.624 652.454 187.624 653.478V654.863C187.624 655.886 187.88 656.648 188.392 657.147C188.903 657.646 189.565 657.896 190.376 657.896ZM197.201 649.34H198.698V650.913H198.773C199.023 650.301 199.385 649.852 199.859 649.565C200.346 649.266 200.926 649.116 201.6 649.116C202.199 649.116 202.742 649.234 203.229 649.472C203.715 649.709 204.127 650.046 204.464 650.482C204.814 650.919 205.076 651.45 205.25 652.074C205.438 652.698 205.531 653.396 205.531 654.17C205.531 654.944 205.438 655.643 205.25 656.267C205.076 656.891 204.814 657.421 204.464 657.858C204.127 658.295 203.715 658.632 203.229 658.869C202.742 659.106 202.199 659.225 201.6 659.225C200.29 659.225 199.347 658.626 198.773 657.428H198.698V662.744H197.201V649.34ZM201.188 657.877C202.037 657.877 202.705 657.615 203.191 657.091C203.678 656.554 203.921 655.855 203.921 654.994V653.347C203.921 652.485 203.678 651.793 203.191 651.269C202.705 650.732 202.037 650.464 201.188 650.464C200.851 650.464 200.527 650.514 200.215 650.613C199.915 650.701 199.653 650.826 199.429 650.988C199.204 651.15 199.023 651.35 198.886 651.587C198.761 651.812 198.698 652.055 198.698 652.317V655.911C198.698 656.223 198.761 656.504 198.886 656.754C199.023 656.991 199.204 657.197 199.429 657.371C199.653 657.534 199.915 657.658 200.215 657.746C200.527 657.833 200.851 657.877 201.188 657.877ZM138.647 678V676.615H142.298V666.094H142.167L138.872 669.164L137.955 668.172L141.418 664.933H143.87V676.615H147.24V678H138.647ZM155.245 678V675.435H148.936V674.05L154.402 664.933H156.742V674.125H158.633V675.435H156.742V678H155.245ZM150.415 674.125H155.245V666.15H155.151L150.415 674.125ZM166.469 678V675.435H160.161V674.05L165.627 664.933H167.967V674.125H169.858V675.435H167.967V678H166.469ZM161.64 674.125H166.469V666.15H166.376L161.64 674.125ZM176.29 678.225C174.73 678.225 173.588 677.632 172.864 676.446C172.153 675.261 171.797 673.601 171.797 671.467C171.797 669.333 172.153 667.673 172.864 666.487C173.588 665.302 174.73 664.709 176.29 664.709C177.85 664.709 178.986 665.302 179.697 666.487C180.421 667.673 180.783 669.333 180.783 671.467C180.783 673.601 180.421 675.261 179.697 676.446C178.986 677.632 177.85 678.225 176.29 678.225ZM176.29 676.858C176.802 676.858 177.239 676.752 177.6 676.54C177.962 676.328 178.256 676.028 178.48 675.641C178.705 675.254 178.867 674.799 178.967 674.275C179.079 673.751 179.136 673.17 179.136 672.534V670.4C179.136 669.763 179.079 669.183 178.967 668.659C178.867 668.135 178.705 667.679 178.48 667.292C178.256 666.905 177.962 666.606 177.6 666.394C177.239 666.181 176.802 666.075 176.29 666.075C175.778 666.075 175.342 666.181 174.98 666.394C174.618 666.606 174.324 666.905 174.1 667.292C173.875 667.679 173.707 668.135 173.594 668.659C173.495 669.183 173.445 669.763 173.445 670.4V672.534C173.445 673.17 173.495 673.751 173.594 674.275C173.707 674.799 173.875 675.254 174.1 675.641C174.324 676.028 174.618 676.328 174.98 676.54C175.342 676.752 175.778 676.858 176.29 676.858ZM182.292 678L185.867 673.133L182.442 668.34H184.201L186.654 671.935H186.71L189.256 668.34H190.922L187.515 673.02L190.997 678H189.237L186.729 674.219H186.672L183.958 678H182.292ZM193.034 678V676.615H196.684V666.094H196.553L193.259 669.164L192.341 668.172L195.805 664.933H198.257V676.615H201.627V678H193.034ZM208.227 678.225C206.667 678.225 205.525 677.632 204.802 676.446C204.09 675.261 203.735 673.601 203.735 671.467C203.735 669.333 204.09 667.673 204.802 666.487C205.525 665.302 206.667 664.709 208.227 664.709C209.787 664.709 210.923 665.302 211.634 666.487C212.358 667.673 212.72 669.333 212.72 671.467C212.72 673.601 212.358 675.261 211.634 676.446C210.923 677.632 209.787 678.225 208.227 678.225ZM208.227 676.858C208.739 676.858 209.176 676.752 209.538 676.54C209.9 676.328 210.193 676.028 210.418 675.641C210.642 675.254 210.805 674.799 210.904 674.275C211.017 673.751 211.073 673.17 211.073 672.534V670.4C211.073 669.763 211.017 669.183 210.904 668.659C210.805 668.135 210.642 667.679 210.418 667.292C210.193 666.905 209.9 666.606 209.538 666.394C209.176 666.181 208.739 666.075 208.227 666.075C207.716 666.075 207.279 666.181 206.917 666.394C206.555 666.606 206.262 666.905 206.037 667.292C205.813 667.679 205.644 668.135 205.532 668.659C205.432 669.183 205.382 669.763 205.382 670.4V672.534C205.382 673.17 205.432 673.751 205.532 674.275C205.644 674.799 205.813 675.254 206.037 675.641C206.262 676.028 206.555 676.328 206.917 676.54C207.279 676.752 207.716 676.858 208.227 676.858ZM223.814 678H215.24V676.39L219.508 672.459C220.12 671.897 220.631 671.304 221.043 670.68C221.455 670.044 221.661 669.408 221.661 668.771V668.546C221.661 667.823 221.461 667.236 221.062 666.787C220.663 666.337 220.057 666.113 219.246 666.113C218.847 666.113 218.497 666.169 218.198 666.281C217.898 666.394 217.636 666.55 217.412 666.749C217.199 666.949 217.018 667.186 216.869 667.461C216.731 667.723 216.619 668.01 216.532 668.322L215.128 667.779C215.253 667.392 215.421 667.018 215.633 666.656C215.858 666.281 216.132 665.951 216.457 665.664C216.794 665.376 217.193 665.146 217.655 664.971C218.129 664.796 218.685 664.709 219.321 664.709C219.958 664.709 220.525 664.802 221.025 664.99C221.524 665.177 221.942 665.439 222.279 665.776C222.616 666.113 222.872 666.512 223.046 666.974C223.234 667.436 223.327 667.947 223.327 668.509C223.327 669.021 223.252 669.495 223.102 669.932C222.965 670.368 222.772 670.787 222.522 671.186C222.273 671.573 221.967 671.953 221.605 672.328C221.255 672.702 220.875 673.077 220.463 673.451L216.944 676.615H223.814V678ZM232.081 678V675.435H225.772V674.05L231.238 664.933H233.578V674.125H235.469V675.435H233.578V678H232.081ZM227.251 674.125H232.081V666.15H231.987L227.251 674.125Z" fill="black"/>
<rect width="127" height="276" transform="translate(617 1143) rotate(-180)" fill="#FEB701" fill-opacity="0.5"/>
<path d="M519.123 990V988.69H520.958V978.244H519.123V976.933H524.365V978.244H522.53V988.69H524.365V990H519.123ZM527.087 980.34H528.584V981.913H528.659C528.909 981.301 529.271 980.852 529.745 980.565C530.231 980.266 530.812 980.116 531.486 980.116C532.085 980.116 532.628 980.234 533.114 980.472C533.601 980.709 534.013 981.046 534.35 981.482C534.699 981.919 534.961 982.45 535.136 983.074C535.323 983.698 535.417 984.396 535.417 985.17C535.417 985.944 535.323 986.643 535.136 987.267C534.961 987.891 534.699 988.421 534.35 988.858C534.013 989.295 533.601 989.632 533.114 989.869C532.628 990.106 532.085 990.225 531.486 990.225C530.175 990.225 529.233 989.626 528.659 988.428H528.584V993.744H527.087V980.34ZM531.074 988.877C531.923 988.877 532.59 988.615 533.077 988.091C533.564 987.554 533.807 986.855 533.807 985.994V984.347C533.807 983.485 533.564 982.793 533.077 982.269C532.59 981.732 531.923 981.464 531.074 981.464C530.737 981.464 530.412 981.514 530.1 981.613C529.801 981.701 529.539 981.826 529.314 981.988C529.09 982.15 528.909 982.35 528.771 982.587C528.647 982.812 528.584 983.055 528.584 983.317V986.911C528.584 987.223 528.647 987.504 528.771 987.754C528.909 987.991 529.09 988.197 529.314 988.371C529.539 988.534 529.801 988.658 530.1 988.746C530.412 988.833 530.737 988.877 531.074 988.877ZM544.966 990C544.404 990 543.998 989.85 543.749 989.551C543.512 989.251 543.362 988.877 543.299 988.428H543.206C542.994 989.027 542.644 989.476 542.158 989.775C541.671 990.075 541.091 990.225 540.417 990.225C539.393 990.225 538.595 989.963 538.02 989.438C537.459 988.914 537.178 988.203 537.178 987.304C537.178 986.393 537.509 985.694 538.17 985.208C538.844 984.721 539.886 984.478 541.296 984.478H543.206V983.523C543.206 982.836 543.019 982.312 542.644 981.95C542.27 981.588 541.696 981.408 540.922 981.408C540.335 981.408 539.843 981.539 539.443 981.801C539.056 982.063 538.732 982.412 538.47 982.849L537.571 982.007C537.833 981.482 538.251 981.039 538.825 980.677C539.399 980.303 540.123 980.116 540.997 980.116C542.17 980.116 543.081 980.403 543.73 980.977C544.379 981.551 544.703 982.35 544.703 983.373V988.69H545.808V990H544.966ZM540.66 988.952C541.034 988.952 541.378 988.908 541.69 988.821C542.002 988.733 542.27 988.608 542.495 988.446C542.719 988.284 542.894 988.097 543.019 987.885C543.143 987.672 543.206 987.442 543.206 987.192V985.601H541.222C540.36 985.601 539.73 985.726 539.331 985.975C538.944 986.225 538.751 986.587 538.751 987.061V987.454C538.751 987.928 538.919 988.296 539.256 988.559C539.605 988.821 540.073 988.952 540.66 988.952ZM554.123 988.428H554.048C553.462 989.626 552.519 990.225 551.221 990.225C550.622 990.225 550.079 990.106 549.593 989.869C549.106 989.632 548.688 989.295 548.339 988.858C548.002 988.421 547.739 987.891 547.552 987.267C547.378 986.643 547.29 985.944 547.29 985.17C547.29 984.396 547.378 983.698 547.552 983.074C547.739 982.45 548.002 981.919 548.339 981.482C548.688 981.046 549.106 980.709 549.593 980.472C550.079 980.234 550.622 980.116 551.221 980.116C551.895 980.116 552.469 980.266 552.944 980.565C553.43 980.852 553.799 981.301 554.048 981.913H554.123V976.147H555.621V990H554.123V988.428ZM551.633 988.877C551.97 988.877 552.288 988.833 552.588 988.746C552.9 988.658 553.168 988.534 553.393 988.371C553.618 988.197 553.792 987.991 553.917 987.754C554.054 987.504 554.123 987.223 554.123 986.911V983.317C554.123 983.055 554.054 982.812 553.917 982.587C553.792 982.35 553.618 982.15 553.393 981.988C553.168 981.826 552.9 981.701 552.588 981.613C552.288 981.514 551.97 981.464 551.633 981.464C550.785 981.464 550.117 981.732 549.63 982.269C549.143 982.793 548.9 983.485 548.9 984.347V985.994C548.9 986.855 549.143 987.554 549.63 988.091C550.117 988.615 550.785 988.877 551.633 988.877ZM522.886 1001.47C523.772 1001.47 524.433 1001.27 524.87 1000.88C525.32 1000.46 525.544 999.94 525.544 999.303V999.172C525.544 998.486 525.326 997.974 524.889 997.637C524.465 997.288 523.903 997.113 523.204 997.113C522.53 997.113 521.981 997.263 521.557 997.562C521.132 997.849 520.783 998.242 520.508 998.741L519.348 997.843C519.51 997.581 519.704 997.325 519.928 997.075C520.165 996.813 520.44 996.582 520.752 996.383C521.064 996.183 521.426 996.021 521.838 995.896C522.249 995.771 522.717 995.709 523.242 995.709C523.791 995.709 524.309 995.784 524.795 995.933C525.282 996.071 525.7 996.283 526.05 996.57C526.412 996.844 526.692 997.188 526.892 997.6C527.104 998.011 527.21 998.479 527.21 999.004C527.21 999.428 527.142 999.808 527.004 1000.15C526.88 1000.48 526.705 1000.78 526.48 1001.03C526.256 1001.27 525.987 1001.49 525.675 1001.66C525.376 1001.84 525.051 1001.97 524.702 1002.05V1002.13C525.051 1002.2 525.388 1002.33 525.713 1002.5C526.05 1002.67 526.343 1002.88 526.592 1003.16C526.855 1003.42 527.06 1003.75 527.21 1004.13C527.372 1004.51 527.454 1004.94 527.454 1005.42C527.454 1005.99 527.348 1006.5 527.135 1006.98C526.923 1007.44 526.624 1007.84 526.237 1008.18C525.85 1008.5 525.382 1008.76 524.833 1008.94C524.284 1009.13 523.678 1009.22 523.017 1009.22C522.455 1009.22 521.956 1009.16 521.519 1009.04C521.083 1008.91 520.696 1008.74 520.359 1008.53C520.022 1008.32 519.722 1008.08 519.46 1007.82C519.211 1007.56 518.986 1007.28 518.786 1007L519.966 1006.1C520.128 1006.36 520.303 1006.6 520.49 1006.81C520.689 1007.02 520.908 1007.2 521.145 1007.35C521.382 1007.5 521.65 1007.62 521.95 1007.71C522.249 1007.78 522.599 1007.82 522.998 1007.82C523.922 1007.82 524.621 1007.61 525.095 1007.2C525.569 1006.78 525.806 1006.18 525.806 1005.41V1005.26C525.806 1004.48 525.569 1003.89 525.095 1003.48C524.621 1003.05 523.922 1002.84 522.998 1002.84H521.463V1001.47H522.886ZM539.202 1000.73C539.202 1001.7 539.059 1002.62 538.772 1003.48C538.485 1004.33 538.11 1005.11 537.649 1005.82C537.199 1006.52 536.7 1007.14 536.151 1007.69C535.602 1008.23 535.065 1008.66 534.541 1009H532.519C533.218 1008.49 533.842 1007.99 534.391 1007.5C534.941 1007.02 535.421 1006.51 535.833 1005.99C536.245 1005.45 536.594 1004.88 536.881 1004.28C537.168 1003.67 537.399 1002.98 537.574 1002.22L537.48 1002.19C537.168 1002.72 536.763 1003.17 536.263 1003.53C535.777 1003.88 535.134 1004.06 534.335 1004.06C533.774 1004.06 533.256 1003.96 532.781 1003.78C532.307 1003.59 531.902 1003.32 531.565 1002.97C531.228 1002.62 530.959 1002.2 530.76 1001.72C530.573 1001.22 530.479 1000.66 530.479 1000.03C530.479 999.397 530.579 998.816 530.778 998.292C530.991 997.756 531.284 997.3 531.658 996.926C532.045 996.539 532.501 996.239 533.025 996.027C533.561 995.815 534.161 995.709 534.822 995.709C535.496 995.709 536.101 995.827 536.638 996.064C537.187 996.289 537.649 996.62 538.023 997.057C538.41 997.481 538.703 998.005 538.903 998.629C539.103 999.253 539.202 999.952 539.202 1000.73ZM534.841 1002.73C535.702 1002.73 536.369 1002.49 536.844 1002.02C537.33 1001.54 537.574 1000.86 537.574 999.977V999.827C537.574 998.941 537.33 998.261 536.844 997.787C536.369 997.312 535.702 997.075 534.841 997.075C533.98 997.075 533.306 997.312 532.819 997.787C532.345 998.261 532.108 998.941 532.108 999.827V999.977C532.108 1000.86 532.345 1001.54 532.819 1002.02C533.306 1002.49 533.98 1002.73 534.841 1002.73ZM546.065 1009.22C544.505 1009.22 543.363 1008.63 542.64 1007.45C541.928 1006.26 541.573 1004.6 541.573 1002.47C541.573 1000.33 541.928 998.673 542.64 997.487C543.363 996.302 544.505 995.709 546.065 995.709C547.625 995.709 548.761 996.302 549.472 997.487C550.196 998.673 550.558 1000.33 550.558 1002.47C550.558 1004.6 550.196 1006.26 549.472 1007.45C548.761 1008.63 547.625 1009.22 546.065 1009.22ZM546.065 1007.86C546.577 1007.86 547.014 1007.75 547.376 1007.54C547.738 1007.33 548.031 1007.03 548.256 1006.64C548.48 1006.25 548.642 1005.8 548.742 1005.27C548.855 1004.75 548.911 1004.17 548.911 1003.53V1001.4C548.911 1000.76 548.855 1000.18 548.742 999.659C548.642 999.135 548.48 998.679 548.256 998.292C548.031 997.905 547.738 997.606 547.376 997.394C547.014 997.181 546.577 997.075 546.065 997.075C545.554 997.075 545.117 997.181 544.755 997.394C544.393 997.606 544.1 997.905 543.875 998.292C543.65 998.679 543.482 999.135 543.37 999.659C543.27 1000.18 543.22 1000.76 543.22 1001.4V1003.53C543.22 1004.17 543.27 1004.75 543.37 1005.27C543.482 1005.8 543.65 1006.25 543.875 1006.64C544.1 1007.03 544.393 1007.33 544.755 1007.54C545.117 1007.75 545.554 1007.86 546.065 1007.86ZM552.067 1009L555.643 1004.13L552.217 999.34H553.977L556.429 1002.93H556.485L559.031 999.34H560.697L557.29 1004.02L560.772 1009H559.012L556.504 1005.22H556.448L553.733 1009H552.067ZM566.778 1009.22C566.029 1009.22 565.374 1009.13 564.812 1008.94C564.251 1008.74 563.777 1008.48 563.39 1008.14C563.015 1007.8 562.728 1007.4 562.529 1006.94C562.341 1006.48 562.248 1005.98 562.248 1005.44C562.248 1004.54 562.491 1003.83 562.978 1003.31C563.465 1002.78 564.101 1002.42 564.887 1002.2V1002.05C564.201 1001.82 563.652 1001.44 563.24 1000.91C562.841 1000.38 562.641 999.734 562.641 998.985C562.641 997.986 563.003 997.194 563.727 996.607C564.451 996.008 565.468 995.709 566.778 995.709C568.088 995.709 569.106 996.008 569.829 996.607C570.553 997.194 570.915 997.986 570.915 998.985C570.915 999.734 570.709 1000.38 570.297 1000.91C569.898 1001.44 569.355 1001.82 568.669 1002.05V1002.2C569.455 1002.42 570.091 1002.78 570.578 1003.31C571.065 1003.83 571.308 1004.54 571.308 1005.44C571.308 1005.98 571.208 1006.48 571.009 1006.94C570.822 1007.4 570.535 1007.8 570.148 1008.14C569.773 1008.48 569.305 1008.74 568.744 1008.94C568.182 1009.13 567.527 1009.22 566.778 1009.22ZM566.778 1007.86C567.689 1007.86 568.394 1007.66 568.893 1007.26C569.393 1006.85 569.642 1006.27 569.642 1005.52V1005.12C569.642 1004.38 569.393 1003.8 568.893 1003.4C568.394 1002.99 567.689 1002.78 566.778 1002.78C565.867 1002.78 565.162 1002.99 564.663 1003.4C564.163 1003.8 563.914 1004.38 563.914 1005.12V1005.52C563.914 1006.27 564.163 1006.85 564.663 1007.26C565.162 1007.66 565.867 1007.86 566.778 1007.86ZM566.778 1001.47C567.602 1001.47 568.226 1001.3 568.65 1000.95C569.074 1000.6 569.287 1000.09 569.287 999.415V999.135C569.287 998.461 569.074 997.949 568.65 997.6C568.226 997.25 567.602 997.075 566.778 997.075C565.954 997.075 565.33 997.25 564.906 997.6C564.482 997.949 564.27 998.461 564.27 999.135V999.415C564.27 1000.09 564.482 1000.6 564.906 1000.95C565.33 1001.3 565.954 1001.47 566.778 1001.47ZM579.407 1009V1006.44H573.098V1005.05L578.564 995.933H580.904V1005.12H582.795V1006.44H580.904V1009H579.407ZM574.577 1005.12H579.407V997.15H579.313L574.577 1005.12ZM590.631 1009V1006.44H584.323V1005.05L589.789 995.933H592.129V1005.12H594.02V1006.44H592.129V1009H590.631ZM585.802 1005.12H590.631V997.15H590.538L585.802 1005.12Z" fill="black"/>
<rect x="102.5" y="102" width="352" height="51" fill="#FEB701" fill-opacity="0.5"/>
<path d="M121.704 129.383H121.646C121.541 129.872 121.253 130.28 120.782 130.607C120.322 130.924 119.707 131.082 118.939 131.082C118.344 131.082 117.792 130.972 117.283 130.751C116.774 130.52 116.333 130.189 115.958 129.757C115.594 129.316 115.306 128.773 115.094 128.13C114.893 127.477 114.792 126.728 114.792 125.884C114.792 125.048 114.898 124.309 115.109 123.666C115.32 123.013 115.618 122.466 116.002 122.024C116.386 121.583 116.846 121.252 117.384 121.031C117.922 120.8 118.522 120.685 119.184 120.685C120.086 120.685 120.85 120.887 121.474 121.29C122.098 121.684 122.582 122.236 122.928 122.946L121.603 123.724C121.411 123.253 121.114 122.874 120.71 122.586C120.307 122.288 119.798 122.14 119.184 122.14C118.387 122.14 117.744 122.394 117.254 122.903C116.774 123.412 116.534 124.132 116.534 125.063V126.704C116.534 127.636 116.774 128.356 117.254 128.864C117.744 129.373 118.387 129.628 119.184 129.628C119.501 129.628 119.803 129.589 120.091 129.512C120.379 129.426 120.629 129.306 120.84 129.152C121.061 128.989 121.234 128.792 121.358 128.562C121.493 128.322 121.56 128.044 121.56 127.727V126.949H119.486V125.552H123.13V130.909H121.704V129.383ZM128.214 131.082C127.676 131.082 127.196 130.991 126.774 130.808C126.352 130.626 125.992 130.367 125.694 130.031C125.396 129.685 125.166 129.272 125.003 128.792C124.849 128.303 124.772 127.76 124.772 127.165C124.772 126.57 124.849 126.032 125.003 125.552C125.166 125.063 125.396 124.65 125.694 124.314C125.992 123.968 126.352 123.704 126.774 123.522C127.196 123.34 127.676 123.248 128.214 123.248C128.761 123.248 129.241 123.344 129.654 123.536C130.076 123.728 130.427 123.997 130.705 124.343C130.984 124.679 131.19 125.072 131.324 125.524C131.468 125.975 131.54 126.46 131.54 126.978V127.568H126.4V127.813C126.4 128.389 126.568 128.864 126.904 129.239C127.249 129.604 127.739 129.786 128.372 129.786C128.833 129.786 129.222 129.685 129.539 129.484C129.856 129.282 130.124 129.008 130.345 128.663L131.267 129.57C130.988 130.031 130.585 130.4 130.057 130.679C129.529 130.948 128.915 131.082 128.214 131.082ZM128.214 124.472C127.945 124.472 127.696 124.52 127.465 124.616C127.244 124.712 127.052 124.847 126.889 125.02C126.736 125.192 126.616 125.399 126.529 125.639C126.443 125.879 126.4 126.143 126.4 126.431V126.532H129.884V126.388C129.884 125.812 129.736 125.351 129.438 125.005C129.14 124.65 128.732 124.472 128.214 124.472ZM133.278 130.909V123.421H134.847V124.66H134.919C134.996 124.468 135.087 124.285 135.193 124.112C135.308 123.94 135.443 123.791 135.596 123.666C135.759 123.532 135.947 123.431 136.158 123.364C136.379 123.287 136.633 123.248 136.921 123.248C137.43 123.248 137.881 123.373 138.275 123.623C138.668 123.872 138.956 124.256 139.139 124.775H139.182C139.316 124.352 139.575 123.992 139.959 123.695C140.343 123.397 140.838 123.248 141.443 123.248C142.191 123.248 142.772 123.503 143.185 124.012C143.598 124.511 143.804 125.226 143.804 126.157V130.909H142.235V126.344C142.235 125.768 142.124 125.336 141.903 125.048C141.683 124.751 141.332 124.602 140.852 124.602C140.651 124.602 140.459 124.631 140.276 124.688C140.094 124.736 139.931 124.813 139.787 124.919C139.652 125.024 139.542 125.159 139.455 125.322C139.369 125.485 139.326 125.672 139.326 125.884V130.909H137.756V126.344C137.756 125.183 137.3 124.602 136.388 124.602C136.196 124.602 136.004 124.631 135.812 124.688C135.63 124.736 135.467 124.813 135.323 124.919C135.179 125.024 135.063 125.159 134.977 125.322C134.891 125.485 134.847 125.672 134.847 125.884V130.909H133.278ZM151.463 130.909C151.05 130.909 150.733 130.794 150.512 130.564C150.292 130.324 150.157 130.021 150.109 129.656H150.037C149.893 130.127 149.629 130.482 149.245 130.722C148.861 130.962 148.396 131.082 147.848 131.082C147.071 131.082 146.471 130.88 146.048 130.477C145.636 130.074 145.429 129.532 145.429 128.85C145.429 128.101 145.698 127.54 146.236 127.165C146.783 126.791 147.58 126.604 148.626 126.604H149.98V125.97C149.98 125.509 149.855 125.154 149.605 124.904C149.356 124.655 148.967 124.53 148.439 124.53C147.997 124.53 147.637 124.626 147.359 124.818C147.08 125.01 146.845 125.255 146.653 125.552L145.717 124.703C145.967 124.28 146.317 123.935 146.768 123.666C147.22 123.388 147.81 123.248 148.54 123.248C149.509 123.248 150.253 123.474 150.772 123.925C151.29 124.376 151.549 125.024 151.549 125.869V129.628H152.341V130.909H151.463ZM148.295 129.887C148.784 129.887 149.188 129.781 149.504 129.57C149.821 129.349 149.98 129.056 149.98 128.692V127.612H148.655C147.57 127.612 147.028 127.948 147.028 128.62V128.879C147.028 129.215 147.138 129.469 147.359 129.642C147.589 129.805 147.901 129.887 148.295 129.887ZM147.157 122.125C146.831 122.125 146.6 122.053 146.466 121.909C146.332 121.765 146.264 121.583 146.264 121.362V121.103C146.264 120.882 146.332 120.7 146.466 120.556C146.6 120.412 146.831 120.34 147.157 120.34C147.484 120.34 147.714 120.412 147.848 120.556C147.983 120.7 148.05 120.882 148.05 121.103V121.362C148.05 121.583 147.983 121.765 147.848 121.909C147.714 122.053 147.484 122.125 147.157 122.125ZM150.037 122.125C149.711 122.125 149.48 122.053 149.346 121.909C149.212 121.765 149.144 121.583 149.144 121.362V121.103C149.144 120.882 149.212 120.7 149.346 120.556C149.48 120.412 149.711 120.34 150.037 120.34C150.364 120.34 150.594 120.412 150.728 120.556C150.863 120.7 150.93 120.882 150.93 121.103V121.362C150.93 121.583 150.863 121.765 150.728 121.909C150.594 122.053 150.364 122.125 150.037 122.125ZM155.478 130.909C154.94 130.909 154.537 130.775 154.268 130.506C154.009 130.228 153.879 129.844 153.879 129.354V120.253H155.449V129.628H156.486V130.909H155.478ZM162.694 129.671H162.622C162.459 130.112 162.19 130.458 161.816 130.708C161.451 130.957 161.019 131.082 160.52 131.082C159.57 131.082 158.835 130.741 158.317 130.06C157.798 129.368 157.539 128.404 157.539 127.165C157.539 125.927 157.798 124.967 158.317 124.285C158.835 123.594 159.57 123.248 160.52 123.248C161.019 123.248 161.451 123.373 161.816 123.623C162.19 123.863 162.459 124.208 162.622 124.66H162.694V120.253H164.264V130.909H162.694V129.671ZM160.995 129.728C161.475 129.728 161.878 129.613 162.205 129.383C162.531 129.143 162.694 128.831 162.694 128.447V125.884C162.694 125.5 162.531 125.192 162.205 124.962C161.878 124.722 161.475 124.602 160.995 124.602C160.448 124.602 160.011 124.78 159.685 125.135C159.358 125.48 159.195 125.941 159.195 126.517V127.813C159.195 128.389 159.358 128.855 159.685 129.21C160.011 129.556 160.448 129.728 160.995 129.728ZM169.445 131.082C168.908 131.082 168.428 130.991 168.005 130.808C167.583 130.626 167.223 130.367 166.925 130.031C166.628 129.685 166.397 129.272 166.234 128.792C166.08 128.303 166.004 127.76 166.004 127.165C166.004 126.57 166.08 126.032 166.234 125.552C166.397 125.063 166.628 124.65 166.925 124.314C167.223 123.968 167.583 123.704 168.005 123.522C168.428 123.34 168.908 123.248 169.445 123.248C169.992 123.248 170.472 123.344 170.885 123.536C171.308 123.728 171.658 123.997 171.936 124.343C172.215 124.679 172.421 125.072 172.556 125.524C172.7 125.975 172.772 126.46 172.772 126.978V127.568H167.631V127.813C167.631 128.389 167.799 128.864 168.135 129.239C168.48 129.604 168.97 129.786 169.604 129.786C170.064 129.786 170.453 129.685 170.77 129.484C171.087 129.282 171.356 129.008 171.576 128.663L172.498 129.57C172.22 130.031 171.816 130.4 171.288 130.679C170.76 130.948 170.146 131.082 169.445 131.082ZM169.445 124.472C169.176 124.472 168.927 124.52 168.696 124.616C168.476 124.712 168.284 124.847 168.12 125.02C167.967 125.192 167.847 125.399 167.76 125.639C167.674 125.879 167.631 126.143 167.631 126.431V126.532H171.116V126.388C171.116 125.812 170.967 125.351 170.669 125.005C170.372 124.65 169.964 124.472 169.445 124.472Z" fill="black"/>
<path d="M438.177 133.472C438.274 133.375 438.274 133.216 438.177 133.119L436.586 131.528C436.488 131.43 436.33 131.43 436.232 131.528C436.135 131.625 436.135 131.784 436.232 131.881L437.646 133.295L436.232 134.71C436.135 134.807 436.135 134.966 436.232 135.063C436.33 135.161 436.488 135.161 436.586 135.063L438.177 133.472ZM392 133.545L438 133.545L438 133.045L392 133.045L392 133.545Z" fill="black"/>
<rect x="102.5" y="158" width="352" height="51" fill="#FEB701" fill-opacity="0.5"/>
<path d="M438.677 185.767C438.774 185.669 438.774 185.511 438.677 185.414L437.086 183.823C436.988 183.725 436.83 183.725 436.732 183.823C436.635 183.92 436.635 184.078 436.732 184.176L438.146 185.59L436.732 187.005C436.635 187.102 436.635 187.26 436.732 187.358C436.83 187.456 436.988 187.456 437.086 187.358L438.677 185.767ZM392.5 185.84L438.5 185.84L438.5 185.34L392.5 185.34L392.5 185.84Z" fill="black"/>
<path d="M123.017 188.049L122.11 185.327H118.351L117.473 188.049H115.817L119.244 177.998H121.289L124.716 188.049H123.017ZM120.266 179.495H120.194L118.74 183.931H121.706L120.266 179.495ZM126.158 188.049V180.561H127.727V182.001H127.799C127.905 181.617 128.126 181.281 128.462 180.993C128.798 180.705 129.263 180.561 129.858 180.561H130.276V182.073H129.657C129.033 182.073 128.553 182.174 128.217 182.375C127.89 182.577 127.727 182.875 127.727 183.268V188.049H126.158ZM134.494 188.222C133.957 188.222 133.477 188.131 133.054 187.948C132.632 187.766 132.277 187.507 131.989 187.171C131.701 186.825 131.48 186.412 131.326 185.932C131.173 185.443 131.096 184.9 131.096 184.305C131.096 183.71 131.173 183.172 131.326 182.692C131.48 182.203 131.701 181.79 131.989 181.454C132.277 181.108 132.632 180.844 133.054 180.662C133.477 180.479 133.957 180.388 134.494 180.388C135.243 180.388 135.857 180.556 136.337 180.892C136.817 181.228 137.168 181.675 137.389 182.231L136.093 182.836C135.987 182.491 135.8 182.217 135.531 182.015C135.272 181.804 134.926 181.699 134.494 181.699C133.918 181.699 133.481 181.881 133.184 182.246C132.896 182.601 132.752 183.067 132.752 183.643V184.982C132.752 185.558 132.896 186.028 133.184 186.393C133.481 186.748 133.918 186.926 134.494 186.926C134.955 186.926 135.32 186.815 135.589 186.595C135.867 186.364 136.088 186.062 136.251 185.687L137.446 186.321C137.197 186.935 136.822 187.406 136.323 187.732C135.824 188.059 135.214 188.222 134.494 188.222ZM138.94 177.393H140.51V181.799H140.582C140.745 181.396 140.99 181.06 141.316 180.791C141.652 180.523 142.108 180.388 142.684 180.388C143.452 180.388 144.048 180.643 144.47 181.151C144.902 181.651 145.118 182.366 145.118 183.297V188.049H143.548V183.484C143.548 182.323 143.078 181.742 142.137 181.742C141.936 181.742 141.734 181.771 141.532 181.828C141.34 181.876 141.168 181.953 141.014 182.059C140.86 182.164 140.736 182.299 140.64 182.462C140.553 182.625 140.51 182.812 140.51 183.023V188.049H138.94V177.393ZM148.086 179.222C147.759 179.222 147.519 179.145 147.366 178.991C147.222 178.838 147.15 178.641 147.15 178.401V178.156C147.15 177.916 147.222 177.719 147.366 177.566C147.519 177.412 147.759 177.335 148.086 177.335C148.412 177.335 148.647 177.412 148.791 177.566C148.935 177.719 149.007 177.916 149.007 178.156V178.401C149.007 178.641 148.935 178.838 148.791 178.991C148.647 179.145 148.412 179.222 148.086 179.222ZM147.294 180.561H148.863V188.049H147.294V180.561ZM152.732 188.049L150.183 180.561H151.738L152.876 183.974L153.639 186.595H153.725L154.488 183.974L155.655 180.561H157.152L154.575 188.049H152.732ZM163.833 188.049C163.42 188.049 163.103 187.934 162.883 187.703C162.662 187.463 162.527 187.161 162.479 186.796H162.407C162.263 187.267 161.999 187.622 161.615 187.862C161.231 188.102 160.766 188.222 160.219 188.222C159.441 188.222 158.841 188.02 158.419 187.617C158.006 187.214 157.799 186.671 157.799 185.99C157.799 185.241 158.068 184.679 158.606 184.305C159.153 183.931 159.95 183.743 160.996 183.743H162.35V183.11C162.35 182.649 162.225 182.294 161.975 182.044C161.726 181.795 161.337 181.67 160.809 181.67C160.367 181.67 160.007 181.766 159.729 181.958C159.451 182.15 159.215 182.395 159.023 182.692L158.087 181.843C158.337 181.42 158.687 181.075 159.139 180.806C159.59 180.527 160.18 180.388 160.91 180.388C161.879 180.388 162.623 180.614 163.142 181.065C163.66 181.516 163.919 182.164 163.919 183.009V186.767H164.711V188.049H163.833ZM160.665 187.027C161.155 187.027 161.558 186.921 161.875 186.71C162.191 186.489 162.35 186.196 162.35 185.831V184.751H161.025C159.94 184.751 159.398 185.087 159.398 185.759V186.019C159.398 186.355 159.508 186.609 159.729 186.782C159.959 186.945 160.271 187.027 160.665 187.027ZM167.848 188.049C167.311 188.049 166.907 187.915 166.639 187.646C166.379 187.367 166.25 186.983 166.25 186.494V177.393H167.819V186.767H168.856V188.049H167.848ZM171.148 179.222C170.822 179.222 170.582 179.145 170.428 178.991C170.284 178.838 170.212 178.641 170.212 178.401V178.156C170.212 177.916 170.284 177.719 170.428 177.566C170.582 177.412 170.822 177.335 171.148 177.335C171.474 177.335 171.71 177.412 171.854 177.566C171.998 177.719 172.07 177.916 172.07 178.156V178.401C172.07 178.641 171.998 178.838 171.854 178.991C171.71 179.145 171.474 179.222 171.148 179.222ZM170.356 180.561H171.926V188.049H170.356V180.561ZM177.105 188.222C176.567 188.222 176.087 188.131 175.665 187.948C175.242 187.766 174.882 187.507 174.585 187.171C174.287 186.825 174.057 186.412 173.893 185.932C173.74 185.443 173.663 184.9 173.663 184.305C173.663 183.71 173.74 183.172 173.893 182.692C174.057 182.203 174.287 181.79 174.585 181.454C174.882 181.108 175.242 180.844 175.665 180.662C176.087 180.479 176.567 180.388 177.105 180.388C177.652 180.388 178.132 180.484 178.545 180.676C178.967 180.868 179.317 181.137 179.596 181.483C179.874 181.819 180.081 182.212 180.215 182.663C180.359 183.115 180.431 183.599 180.431 184.118V184.708H175.29V184.953C175.29 185.529 175.458 186.004 175.794 186.379C176.14 186.743 176.629 186.926 177.263 186.926C177.724 186.926 178.113 186.825 178.429 186.623C178.746 186.422 179.015 186.148 179.236 185.803L180.157 186.71C179.879 187.171 179.476 187.54 178.948 187.819C178.42 188.087 177.805 188.222 177.105 188.222ZM177.105 181.612C176.836 181.612 176.586 181.66 176.356 181.756C176.135 181.852 175.943 181.987 175.78 182.159C175.626 182.332 175.506 182.539 175.42 182.779C175.333 183.019 175.29 183.283 175.29 183.571V183.671H178.775V183.527C178.775 182.951 178.626 182.491 178.329 182.145C178.031 181.79 177.623 181.612 177.105 181.612ZM182.169 188.049V180.561H183.738V181.799H183.81C183.973 181.396 184.218 181.06 184.545 180.791C184.881 180.523 185.337 180.388 185.913 180.388C186.681 180.388 187.276 180.643 187.698 181.151C188.13 181.651 188.346 182.366 188.346 183.297V188.049H186.777V183.499C186.777 182.327 186.306 181.742 185.365 181.742C185.164 181.742 184.962 181.771 184.761 181.828C184.569 181.876 184.396 181.953 184.242 182.059C184.089 182.164 183.964 182.299 183.868 182.462C183.781 182.625 183.738 182.817 183.738 183.038V188.049H182.169Z" fill="black"/>
<rect x="102.5" y="214" width="352" height="51" fill="#FEB701" fill-opacity="0.5"/>
<path d="M115.738 244.049V233.998H117.366V242.609H121.455V244.049H115.738ZM123.798 235.222C123.472 235.222 123.232 235.145 123.078 234.992C122.934 234.838 122.862 234.641 122.862 234.401V234.157C122.862 233.917 122.934 233.72 123.078 233.566C123.232 233.413 123.472 233.336 123.798 233.336C124.124 233.336 124.36 233.413 124.504 233.566C124.648 233.72 124.72 233.917 124.72 234.157V234.401C124.72 234.641 124.648 234.838 124.504 234.992C124.36 235.145 124.124 235.222 123.798 235.222ZM123.006 236.561H124.576V244.049H123.006V236.561ZM128.891 244.049C128.343 244.049 127.931 243.91 127.652 243.632C127.374 243.344 127.235 242.941 127.235 242.422V237.843H126.068V236.561H126.702C126.961 236.561 127.139 236.504 127.235 236.389C127.34 236.273 127.393 236.086 127.393 235.827V234.517H128.804V236.561H130.374V237.843H128.804V242.768H130.259V244.049H128.891ZM134.958 244.222C134.42 244.222 133.94 244.131 133.518 243.949C133.095 243.766 132.735 243.507 132.438 243.171C132.14 242.825 131.91 242.413 131.746 241.933C131.593 241.443 131.516 240.901 131.516 240.305C131.516 239.71 131.593 239.173 131.746 238.693C131.91 238.203 132.14 237.79 132.438 237.454C132.735 237.109 133.095 236.845 133.518 236.662C133.94 236.48 134.42 236.389 134.958 236.389C135.505 236.389 135.985 236.485 136.398 236.677C136.82 236.869 137.17 237.137 137.449 237.483C137.727 237.819 137.934 238.213 138.068 238.664C138.212 239.115 138.284 239.6 138.284 240.118V240.709H133.143V240.953C133.143 241.529 133.311 242.005 133.647 242.379C133.993 242.744 134.482 242.926 135.116 242.926C135.577 242.926 135.966 242.825 136.282 242.624C136.599 242.422 136.868 242.149 137.089 241.803L138.01 242.71C137.732 243.171 137.329 243.541 136.801 243.819C136.273 244.088 135.658 244.222 134.958 244.222ZM134.958 237.613C134.689 237.613 134.439 237.661 134.209 237.757C133.988 237.853 133.796 237.987 133.633 238.16C133.479 238.333 133.359 238.539 133.273 238.779C133.186 239.019 133.143 239.283 133.143 239.571V239.672H136.628V239.528C136.628 238.952 136.479 238.491 136.182 238.145C135.884 237.79 135.476 237.613 134.958 237.613ZM140.022 244.049V236.561H141.591V238.001H141.663C141.769 237.617 141.99 237.281 142.326 236.993C142.662 236.705 143.127 236.561 143.722 236.561H144.14V238.073H143.521C142.897 238.073 142.417 238.174 142.081 238.376C141.754 238.577 141.591 238.875 141.591 239.269V244.049H140.022ZM150.908 244.049C150.495 244.049 150.178 243.934 149.958 243.704C149.737 243.464 149.602 243.161 149.554 242.797H149.482C149.338 243.267 149.074 243.622 148.69 243.862C148.306 244.102 147.841 244.222 147.294 244.222C146.516 244.222 145.916 244.021 145.494 243.617C145.081 243.214 144.874 242.672 144.874 241.99C144.874 241.241 145.143 240.68 145.681 240.305C146.228 239.931 147.025 239.744 148.071 239.744H149.425V239.11C149.425 238.649 149.3 238.294 149.05 238.045C148.801 237.795 148.412 237.67 147.884 237.67C147.442 237.67 147.082 237.766 146.804 237.958C146.526 238.15 146.29 238.395 146.098 238.693L145.162 237.843C145.412 237.421 145.762 237.075 146.214 236.806C146.665 236.528 147.255 236.389 147.985 236.389C148.954 236.389 149.698 236.614 150.217 237.065C150.735 237.517 150.994 238.165 150.994 239.009V242.768H151.786V244.049H150.908ZM147.74 243.027C148.23 243.027 148.633 242.921 148.95 242.71C149.266 242.489 149.425 242.197 149.425 241.832V240.752H148.1C147.015 240.752 146.473 241.088 146.473 241.76V242.019C146.473 242.355 146.583 242.609 146.804 242.782C147.034 242.945 147.346 243.027 147.74 243.027ZM155.356 244.049C154.809 244.049 154.396 243.91 154.118 243.632C153.839 243.344 153.7 242.941 153.7 242.422V237.843H152.534V236.561H153.167C153.427 236.561 153.604 236.504 153.7 236.389C153.806 236.273 153.859 236.086 153.859 235.827V234.517H155.27V236.561H156.839V237.843H155.27V242.768H156.724V244.049H155.356ZM163.078 242.811H163.02C162.953 242.993 162.862 243.171 162.747 243.344C162.641 243.517 162.502 243.67 162.329 243.805C162.166 243.929 161.964 244.03 161.724 244.107C161.494 244.184 161.225 244.222 160.918 244.222C160.14 244.222 159.536 243.973 159.104 243.473C158.681 242.974 158.47 242.259 158.47 241.328V236.561H160.04V241.126C160.04 242.288 160.52 242.869 161.48 242.869C161.681 242.869 161.878 242.845 162.07 242.797C162.262 242.739 162.43 242.657 162.574 242.552C162.728 242.446 162.848 242.312 162.934 242.149C163.03 241.985 163.078 241.793 163.078 241.573V236.561H164.648V244.049H163.078V242.811ZM166.895 244.049V236.561H168.465V238.001H168.537C168.642 237.617 168.863 237.281 169.199 236.993C169.535 236.705 170.001 236.561 170.596 236.561H171.013V238.073H170.394C169.77 238.073 169.29 238.174 168.954 238.376C168.628 238.577 168.465 238.875 168.465 239.269V244.049H166.895Z" fill="black"/>
<path d="M438.677 241.767C438.774 241.669 438.774 241.511 438.677 241.414L437.086 239.823C436.988 239.725 436.83 239.725 436.732 239.823C436.635 239.92 436.635 240.078 436.732 240.176L438.146 241.59L436.732 243.005C436.635 243.102 436.635 243.26 436.732 243.358C436.83 243.456 436.988 243.456 437.086 243.358L438.677 241.767ZM392.5 241.84L438.5 241.84L438.5 241.34L392.5 241.34L392.5 241.84Z" fill="black"/>
<rect x="99.5" y="295.5" width="144" height="99" rx="4.5" stroke="#9747FF" stroke-dasharray="10 5"/>
<path d="M133.317 321.058H133.259L129.789 327.206L126.318 321.058H126.261V330H125.426V319.949H126.606L129.789 325.608H129.832L133.014 319.949H134.152V330H133.317V321.058ZM139.548 330.173C139.058 330.173 138.612 330.086 138.209 329.914C137.815 329.741 137.474 329.491 137.186 329.165C136.908 328.829 136.692 328.421 136.538 327.941C136.394 327.461 136.322 326.918 136.322 326.314C136.322 325.709 136.394 325.171 136.538 324.701C136.692 324.221 136.908 323.818 137.186 323.491C137.474 323.155 137.815 322.901 138.209 322.728C138.602 322.546 139.044 322.454 139.533 322.454C140.004 322.454 140.431 322.546 140.815 322.728C141.199 322.901 141.525 323.146 141.794 323.462C142.063 323.779 142.269 324.163 142.413 324.614C142.567 325.056 142.644 325.546 142.644 326.083V326.472H137.186V326.832C137.186 327.216 137.239 327.571 137.345 327.898C137.46 328.214 137.618 328.488 137.82 328.718C138.031 328.949 138.285 329.131 138.583 329.266C138.881 329.39 139.217 329.453 139.591 329.453C140.666 329.453 141.41 328.958 141.823 327.97L142.428 328.373C142.197 328.92 141.833 329.357 141.333 329.683C140.844 330.01 140.249 330.173 139.548 330.173ZM139.533 323.146C139.178 323.146 138.857 323.213 138.569 323.347C138.281 323.472 138.031 323.65 137.82 323.88C137.618 324.11 137.46 324.389 137.345 324.715C137.239 325.032 137.186 325.382 137.186 325.766V325.838H141.751V325.723C141.751 325.339 141.698 324.989 141.593 324.672C141.487 324.346 141.333 324.072 141.132 323.851C140.94 323.63 140.705 323.458 140.426 323.333C140.157 323.208 139.86 323.146 139.533 323.146ZM144.731 319.344H145.552V323.794H145.595C145.759 323.41 146.013 323.093 146.359 322.843C146.704 322.584 147.175 322.454 147.77 322.454C148.557 322.454 149.167 322.699 149.599 323.189C150.04 323.669 150.261 324.36 150.261 325.262V330H149.44V325.406C149.44 324.658 149.277 324.101 148.951 323.736C148.634 323.371 148.168 323.189 147.554 323.189C147.295 323.189 147.045 323.222 146.805 323.29C146.565 323.357 146.349 323.458 146.157 323.592C145.975 323.726 145.826 323.899 145.711 324.11C145.605 324.312 145.552 324.547 145.552 324.816V330H144.731V319.344ZM152.845 330V322.627H153.666V323.952H153.724C153.868 323.606 154.113 323.299 154.458 323.03C154.804 322.762 155.293 322.627 155.927 322.627H156.417V323.434H155.769C155.154 323.434 154.65 323.568 154.257 323.837C153.863 324.106 153.666 324.48 153.666 324.96V330H152.845ZM162.303 330C162.005 330 161.779 329.918 161.626 329.755C161.472 329.592 161.395 329.376 161.395 329.107V319.344H162.216V329.28H163.354V330H162.303ZM167.828 330.173C167.338 330.173 166.892 330.086 166.488 329.914C166.095 329.741 165.754 329.491 165.466 329.165C165.188 328.829 164.972 328.421 164.818 327.941C164.674 327.461 164.602 326.918 164.602 326.314C164.602 325.709 164.674 325.171 164.818 324.701C164.972 324.221 165.188 323.818 165.466 323.491C165.754 323.155 166.095 322.901 166.488 322.728C166.882 322.546 167.324 322.454 167.813 322.454C168.284 322.454 168.711 322.546 169.095 322.728C169.479 322.901 169.805 323.146 170.074 323.462C170.343 323.779 170.549 324.163 170.693 324.614C170.847 325.056 170.924 325.546 170.924 326.083V326.472H165.466V326.832C165.466 327.216 165.519 327.571 165.624 327.898C165.74 328.214 165.898 328.488 166.1 328.718C166.311 328.949 166.565 329.131 166.863 329.266C167.16 329.39 167.496 329.453 167.871 329.453C168.946 329.453 169.69 328.958 170.103 327.97L170.708 328.373C170.477 328.92 170.112 329.357 169.613 329.683C169.124 330.01 168.528 330.173 167.828 330.173ZM167.813 323.146C167.458 323.146 167.136 323.213 166.848 323.347C166.56 323.472 166.311 323.65 166.1 323.88C165.898 324.11 165.74 324.389 165.624 324.715C165.519 325.032 165.466 325.382 165.466 325.766V325.838H170.031V325.723C170.031 325.339 169.978 324.989 169.872 324.672C169.767 324.346 169.613 324.072 169.412 323.851C169.22 323.63 168.984 323.458 168.706 323.333C168.437 323.208 168.14 323.146 167.813 323.146ZM175.099 330.173C174.456 330.173 173.904 330.053 173.443 329.813C172.992 329.573 172.598 329.222 172.262 328.762L172.867 328.286C173.174 328.69 173.51 328.987 173.875 329.179C174.24 329.371 174.667 329.467 175.157 329.467C175.723 329.467 176.16 329.347 176.467 329.107C176.774 328.867 176.928 328.522 176.928 328.07C176.928 327.677 176.808 327.37 176.568 327.149C176.337 326.918 175.953 326.765 175.416 326.688L174.811 326.587C174.475 326.539 174.168 326.467 173.889 326.371C173.611 326.275 173.371 326.146 173.169 325.982C172.977 325.819 172.824 325.622 172.709 325.392C172.603 325.152 172.55 324.864 172.55 324.528C172.55 324.182 172.613 323.88 172.737 323.621C172.872 323.362 173.049 323.146 173.27 322.973C173.491 322.8 173.755 322.67 174.062 322.584C174.369 322.498 174.701 322.454 175.056 322.454C175.67 322.454 176.174 322.56 176.568 322.771C176.961 322.982 177.297 323.256 177.576 323.592L177.029 324.096C176.837 323.866 176.577 323.654 176.251 323.462C175.934 323.261 175.521 323.16 175.013 323.16C174.485 323.16 174.072 323.275 173.774 323.506C173.486 323.736 173.342 324.062 173.342 324.485C173.342 324.917 173.472 325.229 173.731 325.421C174 325.613 174.398 325.752 174.926 325.838L175.517 325.925C176.265 326.04 176.817 326.266 177.173 326.602C177.537 326.928 177.72 327.389 177.72 327.984C177.72 328.675 177.485 329.213 177.014 329.597C176.553 329.981 175.915 330.173 175.099 330.173ZM182.509 330.173C182.019 330.173 181.573 330.086 181.17 329.914C180.776 329.741 180.435 329.491 180.147 329.165C179.869 328.829 179.653 328.421 179.499 327.941C179.355 327.461 179.283 326.918 179.283 326.314C179.283 325.709 179.355 325.171 179.499 324.701C179.653 324.221 179.869 323.818 180.147 323.491C180.435 323.155 180.776 322.901 181.17 322.728C181.563 322.546 182.005 322.454 182.494 322.454C182.965 322.454 183.392 322.546 183.776 322.728C184.16 322.901 184.486 323.146 184.755 323.462C185.024 323.779 185.23 324.163 185.374 324.614C185.528 325.056 185.605 325.546 185.605 326.083V326.472H180.147V326.832C180.147 327.216 180.2 327.571 180.306 327.898C180.421 328.214 180.579 328.488 180.781 328.718C180.992 328.949 181.246 329.131 181.544 329.266C181.842 329.39 182.178 329.453 182.552 329.453C183.627 329.453 184.371 328.958 184.784 327.97L185.389 328.373C185.158 328.92 184.794 329.357 184.294 329.683C183.805 330.01 183.21 330.173 182.509 330.173ZM182.494 323.146C182.139 323.146 181.818 323.213 181.53 323.347C181.242 323.472 180.992 323.65 180.781 323.88C180.579 324.11 180.421 324.389 180.306 324.715C180.2 325.032 180.147 325.382 180.147 325.766V325.838H184.712V325.723C184.712 325.339 184.659 324.989 184.554 324.672C184.448 324.346 184.294 324.072 184.093 323.851C183.901 323.63 183.666 323.458 183.387 323.333C183.118 323.208 182.821 323.146 182.494 323.146ZM187.692 330V322.627H188.513V323.794H188.556C188.72 323.41 188.974 323.093 189.32 322.843C189.665 322.584 190.136 322.454 190.731 322.454C191.518 322.454 192.128 322.699 192.56 323.189C193.001 323.669 193.222 324.36 193.222 325.262V330H192.401V325.406C192.401 324.658 192.238 324.101 191.912 323.736C191.595 323.371 191.129 323.189 190.515 323.189C190.256 323.189 190.006 323.222 189.766 323.29C189.526 323.357 189.31 323.458 189.118 323.592C188.936 323.726 188.787 323.899 188.672 324.11C188.566 324.312 188.513 324.547 188.513 324.816V330H187.692Z" fill="black"/>
<path d="M222.177 327.177C222.274 327.079 222.274 326.921 222.177 326.823L220.586 325.232C220.488 325.135 220.33 325.135 220.232 325.232C220.135 325.33 220.135 325.488 220.232 325.586L221.646 327L220.232 328.414C220.135 328.512 220.135 328.67 220.232 328.768C220.33 328.865 220.488 328.865 220.586 328.768L222.177 327.177ZM204 327.25L222 327.25L222 326.75L204 326.75L204 327.25Z" fill="black"/>
<line x1="119.25" y1="322" x2="119.25" y2="335" stroke="black" stroke-width="0.5"/>
<line x1="119" y1="334.75" x2="224" y2="334.75" stroke="black" stroke-width="0.5"/>
<path d="M132.928 362.31H132.856L132.064 363.938L129.861 367.955L127.658 363.938L126.866 362.31H126.794V370H125.238V359.949H127.168L129.861 365.061H129.947L132.64 359.949H134.483V370H132.928V362.31ZM139.789 370.173C139.251 370.173 138.771 370.082 138.349 369.899C137.927 369.717 137.567 369.458 137.269 369.122C136.971 368.776 136.741 368.363 136.578 367.883C136.424 367.394 136.347 366.851 136.347 366.256C136.347 365.661 136.424 365.123 136.578 364.643C136.741 364.154 136.971 363.741 137.269 363.405C137.567 363.059 137.927 362.795 138.349 362.613C138.771 362.43 139.251 362.339 139.789 362.339C140.336 362.339 140.816 362.435 141.229 362.627C141.651 362.819 142.002 363.088 142.28 363.434C142.559 363.77 142.765 364.163 142.899 364.614C143.043 365.066 143.115 365.55 143.115 366.069V366.659H137.975V366.904C137.975 367.48 138.143 367.955 138.479 368.33C138.824 368.694 139.314 368.877 139.947 368.877C140.408 368.877 140.797 368.776 141.114 368.574C141.431 368.373 141.699 368.099 141.92 367.754L142.842 368.661C142.563 369.122 142.16 369.491 141.632 369.77C141.104 370.038 140.49 370.173 139.789 370.173ZM139.789 363.563C139.52 363.563 139.271 363.611 139.04 363.707C138.819 363.803 138.627 363.938 138.464 364.11C138.311 364.283 138.191 364.49 138.104 364.73C138.018 364.97 137.975 365.234 137.975 365.522V365.622H141.459V365.478C141.459 364.902 141.311 364.442 141.013 364.096C140.715 363.741 140.307 363.563 139.789 363.563ZM144.853 359.344H146.422V363.75H146.494C146.658 363.347 146.902 363.011 147.229 362.742C147.565 362.474 148.021 362.339 148.597 362.339C149.365 362.339 149.96 362.594 150.382 363.102C150.814 363.602 151.03 364.317 151.03 365.248V370H149.461V365.435C149.461 364.274 148.99 363.693 148.05 363.693C147.848 363.693 147.646 363.722 147.445 363.779C147.253 363.827 147.08 363.904 146.926 364.01C146.773 364.115 146.648 364.25 146.552 364.413C146.466 364.576 146.422 364.763 146.422 364.974V370H144.853V359.344ZM153.206 370V362.512H154.776V363.952H154.848C154.953 363.568 155.174 363.232 155.51 362.944C155.846 362.656 156.312 362.512 156.907 362.512H157.324V364.024H156.705C156.081 364.024 155.601 364.125 155.265 364.326C154.939 364.528 154.776 364.826 154.776 365.219V370H153.206ZM163.72 370C163.182 370 162.779 369.866 162.51 369.597C162.251 369.318 162.122 368.934 162.122 368.445V359.344H163.691V368.718H164.728V370H163.72ZM169.165 370.173C168.628 370.173 168.148 370.082 167.725 369.899C167.303 369.717 166.943 369.458 166.645 369.122C166.348 368.776 166.117 368.363 165.954 367.883C165.801 367.394 165.724 366.851 165.724 366.256C165.724 365.661 165.801 365.123 165.954 364.643C166.117 364.154 166.348 363.741 166.645 363.405C166.943 363.059 167.303 362.795 167.725 362.613C168.148 362.43 168.628 362.339 169.165 362.339C169.713 362.339 170.193 362.435 170.605 362.627C171.028 362.819 171.378 363.088 171.657 363.434C171.935 363.77 172.141 364.163 172.276 364.614C172.42 365.066 172.492 365.55 172.492 366.069V366.659H167.351V366.904C167.351 367.48 167.519 367.955 167.855 368.33C168.201 368.694 168.69 368.877 169.324 368.877C169.785 368.877 170.173 368.776 170.49 368.574C170.807 368.373 171.076 368.099 171.297 367.754L172.218 368.661C171.94 369.122 171.537 369.491 171.009 369.77C170.481 370.038 169.866 370.173 169.165 370.173ZM169.165 363.563C168.897 363.563 168.647 363.611 168.417 363.707C168.196 363.803 168.004 363.938 167.841 364.11C167.687 364.283 167.567 364.49 167.481 364.73C167.394 364.97 167.351 365.234 167.351 365.522V365.622H170.836V365.478C170.836 364.902 170.687 364.442 170.389 364.096C170.092 363.741 169.684 363.563 169.165 363.563ZM176.605 370.173C175.895 370.173 175.3 370.048 174.82 369.798C174.34 369.549 173.922 369.203 173.567 368.762L174.575 367.84C174.853 368.176 175.161 368.44 175.497 368.632C175.842 368.814 176.241 368.906 176.692 368.906C177.153 368.906 177.493 368.819 177.714 368.646C177.945 368.464 178.06 368.214 178.06 367.898C178.06 367.658 177.978 367.456 177.815 367.293C177.661 367.12 177.388 367.01 176.994 366.962L176.303 366.875C175.535 366.779 174.93 366.558 174.489 366.213C174.057 365.858 173.841 365.334 173.841 364.643C173.841 364.278 173.908 363.957 174.042 363.678C174.177 363.39 174.364 363.15 174.604 362.958C174.853 362.757 175.146 362.603 175.482 362.498C175.828 362.392 176.207 362.339 176.62 362.339C177.292 362.339 177.839 362.445 178.261 362.656C178.693 362.867 179.077 363.16 179.413 363.534L178.449 364.456C178.257 364.226 178.002 364.029 177.685 363.866C177.378 363.693 177.023 363.606 176.62 363.606C176.188 363.606 175.866 363.693 175.655 363.866C175.453 364.038 175.353 364.264 175.353 364.542C175.353 364.83 175.444 365.046 175.626 365.19C175.809 365.334 176.101 365.44 176.505 365.507L177.196 365.594C178.021 365.718 178.621 365.963 178.996 366.328C179.38 366.683 179.572 367.163 179.572 367.768C179.572 368.133 179.5 368.464 179.356 368.762C179.221 369.05 179.025 369.299 178.765 369.51C178.506 369.722 178.194 369.885 177.829 370C177.465 370.115 177.057 370.173 176.605 370.173ZM184.283 370.173C183.745 370.173 183.265 370.082 182.843 369.899C182.42 369.717 182.06 369.458 181.763 369.122C181.465 368.776 181.235 368.363 181.071 367.883C180.918 367.394 180.841 366.851 180.841 366.256C180.841 365.661 180.918 365.123 181.071 364.643C181.235 364.154 181.465 363.741 181.763 363.405C182.06 363.059 182.42 362.795 182.843 362.613C183.265 362.43 183.745 362.339 184.283 362.339C184.83 362.339 185.31 362.435 185.723 362.627C186.145 362.819 186.495 363.088 186.774 363.434C187.052 363.77 187.259 364.163 187.393 364.614C187.537 365.066 187.609 365.55 187.609 366.069V366.659H182.468V366.904C182.468 367.48 182.636 367.955 182.972 368.33C183.318 368.694 183.807 368.877 184.441 368.877C184.902 368.877 185.291 368.776 185.607 368.574C185.924 368.373 186.193 368.099 186.414 367.754L187.335 368.661C187.057 369.122 186.654 369.491 186.126 369.77C185.598 370.038 184.983 370.173 184.283 370.173ZM184.283 363.563C184.014 363.563 183.764 363.611 183.534 363.707C183.313 363.803 183.121 363.938 182.958 364.11C182.804 364.283 182.684 364.49 182.598 364.73C182.511 364.97 182.468 365.234 182.468 365.522V365.622H185.953V365.478C185.953 364.902 185.804 364.442 185.507 364.096C185.209 363.741 184.801 363.563 184.283 363.563ZM189.347 370V362.512H190.916V363.75H190.988C191.151 363.347 191.396 363.011 191.723 362.742C192.059 362.474 192.515 362.339 193.091 362.339C193.859 362.339 194.454 362.594 194.876 363.102C195.308 363.602 195.524 364.317 195.524 365.248V370H193.955V365.45C193.955 364.278 193.484 363.693 192.543 363.693C192.342 363.693 192.14 363.722 191.939 363.779C191.747 363.827 191.574 363.904 191.42 364.01C191.267 364.115 191.142 364.25 191.046 364.413C190.959 364.576 190.916 364.768 190.916 364.989V370H189.347Z" fill="black"/>
<path d="M222.354 367.354C222.549 367.158 222.549 366.842 222.354 366.646L219.172 363.464C218.976 363.269 218.66 363.269 218.464 363.464C218.269 363.66 218.269 363.976 218.464 364.172L221.293 367L218.464 369.828C218.269 370.024 218.269 370.34 218.464 370.536C218.66 370.731 218.976 370.731 219.172 370.536L222.354 367.354ZM204 367.5L222 367.5L222 366.5L204 366.5L204 367.5Z" fill="black"/>
<line x1="119.5" y1="362" x2="119.5" y2="375" stroke="black"/>
<line x1="119" y1="374.5" x2="224" y2="374.5" stroke="black"/>
<rect x="297.5" y="295.5" width="155.695" height="93" rx="4.5" stroke="#9747FF" stroke-dasharray="10 5"/>
<path d="M355.056 316.949H358.612C359.256 316.949 359.836 317.054 360.355 317.266C360.883 317.477 361.329 317.794 361.694 318.216C362.068 318.629 362.356 319.152 362.558 319.786C362.76 320.41 362.86 321.139 362.86 321.974C362.86 322.81 362.76 323.544 362.558 324.178C362.356 324.802 362.068 325.325 361.694 325.747C361.329 326.16 360.883 326.472 360.355 326.683C359.836 326.894 359.256 327 358.612 327H355.056V316.949ZM358.612 325.56C359.361 325.56 359.966 325.325 360.427 324.854C360.888 324.384 361.118 323.693 361.118 322.781V321.168C361.118 320.256 360.888 319.565 360.427 319.094C359.966 318.624 359.361 318.389 358.612 318.389H356.683V325.56H358.612ZM364.885 327V316.949H371.322V318.389H366.512V321.182H370.876V322.622H366.512V325.56H371.322V327H364.885Z" fill="black"/>
<path d="M372.101 329.174L376.09 316.344H377.443L373.454 329.174H372.101ZM379.243 327V316.949H385.68V318.389H380.87V321.182H385.233V322.622H380.87V325.56H385.68V327H379.243ZM390.486 321.442L389.377 319.31H389.334V327H387.779V316.949H389.593L392.877 322.507L393.985 324.638H394.029V316.949H395.584V327H393.769L390.486 321.442Z" fill="#B4B4B4"/>
<path d="M356.831 354V343.949H363.267V345.389H358.458V348.182H362.821V349.622H358.458V352.56H363.267V354H356.831ZM368.074 348.442L366.965 346.31H366.922V354H365.367V343.949H367.181L370.464 349.507L371.573 351.638H371.616V343.949H373.171V354H371.357L368.074 348.442Z" fill="black"/>
<path d="M374.101 356.174L378.09 343.344H379.443L375.454 356.174H374.101ZM381.243 343.949H384.8C385.443 343.949 386.024 344.054 386.542 344.266C387.07 344.477 387.517 344.794 387.881 345.216C388.256 345.629 388.544 346.152 388.745 346.786C388.947 347.41 389.048 348.139 389.048 348.974C389.048 349.81 388.947 350.544 388.745 351.178C388.544 351.802 388.256 352.325 387.881 352.747C387.517 353.16 387.07 353.472 386.542 353.683C386.024 353.894 385.443 354 384.8 354H381.243V343.949ZM384.8 352.56C385.549 352.56 386.153 352.325 386.614 351.854C387.075 351.384 387.305 350.693 387.305 349.781V348.168C387.305 347.256 387.075 346.565 386.614 346.094C386.153 345.624 385.549 345.389 384.8 345.389H382.87V352.56H384.8ZM391.073 354V343.949H397.51V345.389H392.7V348.182H397.063V349.622H392.7V352.56H397.51V354H391.073Z" fill="#B4B4B4"/>
</g>
<defs>
<clipPath id="clip0_2659_2813">
<rect width="759" height="1266" fill="white"/>
</clipPath>
</defs>
</svg>
